<svg width="428" height="522" viewBox="0 0 428 522" fill="none" xmlns="http://www.w3.org/2000/svg">
<g opacity="0.35">
<path d="M427.748 335.011C424.361 300.041 389.361 268.666 398.017 234.514C401.404 221.277 411.001 209.839 415.517 196.929C425.678 166.698 400.275 131.238 364.522 125.846C359.065 125.029 352.855 124.702 348.715 121.434C344.952 118.492 343.635 113.917 343.258 109.505C339.683 78.1301 363.017 41.3628 338.742 18.1586C323.312 3.45166 296.403 3.94189 274.575 9.82466C252.747 15.8708 232.236 26.1657 209.467 27.7998C180.111 30.0875 152.45 17.3415 124.412 9.17102C96.3739 1.00051 61.5617 -1.45065 41.0507 17.0147C22.7978 33.3557 23.5505 59.3379 29.5721 81.3983C35.5937 103.459 45.9432 125.519 43.1206 148.07C40.8625 166.372 29.9484 183.039 21.6688 200.034C-2.60567 249.547 -6.7455 306.414 10.5665 358.215C18.8462 383.054 32.9592 407.729 58.1746 421.618C83.2017 435.345 121.213 433.711 138.149 412.467L127.234 398.414C139.278 407.402 153.202 414.755 167.88 420.148C204.009 433.22 244.091 435.508 283.231 433.22C317.29 431.26 352.102 425.54 380.705 409.363C409.307 393.022 430.571 364.425 427.748 335.011Z" fill="#C7BEE7"/>
</g>
<path d="M182.933 215.591C182.933 215.591 183.26 215.591 183.096 215.917C182.933 216.081 182.606 216.244 182.28 215.917C181.79 215.264 182.443 214.774 182.606 214.611C182.77 214.611 182.933 214.448 182.933 214.448L183.096 214.284C183.586 213.958 184.403 213.794 185.383 213.794C187.179 213.794 188.485 214.448 188.649 215.101C188.649 215.917 187.179 216.571 185.546 216.571C184.729 216.571 183.913 216.407 183.259 216.244L183.096 216.081C183.096 216.081 183.096 215.754 182.933 215.591C182.933 215.754 182.77 215.591 182.933 215.591C182.933 215.591 182.77 215.591 182.933 215.591C182.77 215.591 182.77 215.591 182.933 215.591C182.933 215.427 182.77 215.591 182.933 215.591C182.933 215.591 182.77 215.591 182.933 215.591Z" fill="black"/>
<path d="M221.801 37.6036C223.434 26.9884 234.049 9.02419 252.993 20.1293C258.872 23.5589 261.485 29.928 262.628 36.4604C263.445 41.0331 261.812 85.9436 261.812 85.9436C260.179 103.908 233.232 108.154 232.253 86.2702L233.396 71.2456C219.841 66.8363 220.004 49.6886 221.801 37.6036Z" fill="#B15635"/>
<path d="M233.56 71.2466C233.56 71.2466 241.236 73.8596 255.934 64.7142C255.934 64.7142 247.768 76.4726 232.907 81.3719L233.56 71.2466Z" fill="#4C2A1D"/>
<path opacity="0.46" d="M258.22 52.4672C258.22 56.8766 254.627 60.3061 250.381 60.3061C245.972 60.3061 242.542 56.7133 242.542 52.4672C242.542 48.0578 246.135 44.6283 250.381 44.6283C254.79 44.465 258.22 48.0578 258.22 52.4672Z" fill="#2E266F"/>
<path opacity="0.46" d="M229.969 47.076C229.969 42.6666 226.376 39.2371 222.13 39.2371C221.967 39.2371 221.803 39.2371 221.64 39.2371C220.987 44.1364 220.66 49.689 221.477 54.9149C221.64 54.9149 221.967 54.9149 222.13 54.9149C226.376 54.9149 229.969 51.3221 229.969 47.076Z" fill="#2E266F"/>
<path d="M271.45 42.9933C272.266 46.0962 270.307 49.1991 267.204 50.0157C264.101 50.8322 260.998 48.8725 260.181 45.7696C259.365 42.6667 261.324 39.5638 264.427 38.7472C267.53 37.9307 270.633 39.8904 271.45 42.9933Z" fill="#B15635"/>
<path d="M263.122 45.9328C263.285 44.7896 264.101 43.6465 265.245 43.1565C265.898 42.9932 266.714 42.9932 267.204 43.3198C267.858 43.6465 268.184 44.1364 268.348 44.6263C267.694 44.463 267.204 44.2997 266.878 44.1364C266.388 44.1364 266.061 44.1364 265.571 44.2997C264.918 44.6263 264.101 45.2796 263.122 45.9328Z" fill="#2E266F"/>
<path d="M236.001 31.7221C236.164 32.5387 236.001 33.3552 235.838 34.0085C235.674 34.825 235.348 35.4783 234.858 36.1315C234.041 37.438 233.225 38.7445 232.081 39.8877V39.0711C233.388 40.2143 234.694 41.3574 235.838 42.6639C234.368 41.8474 232.898 40.8675 231.428 39.8877L231.102 39.561L231.428 39.0711C232.245 37.7646 233.061 36.6214 233.878 35.3149C234.368 34.6617 234.694 34.0085 235.021 33.3552C235.511 33.0286 235.838 32.3754 236.001 31.7221Z" fill="#2E266F"/>
<path d="M242.048 34.6616C242.048 35.6414 242.048 36.7846 242.211 37.6012C242.375 38.581 242.701 39.3976 243.354 39.5609C243.844 39.7242 244.661 39.2343 245.314 38.581C245.967 37.9278 246.621 37.1112 247.111 36.2947C247.274 36.1314 247.601 35.9681 247.764 36.1314C247.927 36.2947 248.09 36.458 247.927 36.7846C247.601 37.7645 246.947 38.7444 246.294 39.7242C245.967 40.2142 245.477 40.5408 244.824 40.8674C244.334 41.194 243.354 41.3573 242.701 41.194C241.885 40.8674 241.395 40.2142 241.231 39.7242C240.905 39.071 240.905 38.581 240.905 37.9278C240.905 36.7846 241.068 35.6414 241.231 34.6616C241.231 34.4983 241.558 34.335 241.721 34.335C242.048 34.335 242.048 34.4983 242.048 34.6616Z" fill="#2E266F"/>
<path d="M226.038 32.8675C226.038 33.8474 226.038 34.8272 226.038 35.6438C226.038 36.1337 226.202 36.6236 226.202 36.9503C226.365 37.2769 226.528 37.4402 226.692 37.4402C226.692 37.4402 227.018 37.4402 227.345 37.1136C227.671 36.9503 227.998 36.4603 228.161 36.1337C228.651 35.4805 229.305 34.6639 229.795 33.8474C229.958 33.6841 230.284 33.5207 230.448 33.684C230.611 33.8474 230.774 34.0107 230.611 34.3373C230.284 35.3172 229.958 36.297 229.305 37.1136C228.978 37.6035 228.651 37.9301 228.161 38.4201C227.671 38.7467 227.018 39.2366 226.038 39.0733C225.059 38.7467 224.732 37.9301 224.569 37.4402C224.405 36.787 224.405 36.297 224.405 35.8071C224.405 34.6639 224.569 33.684 224.895 32.7042C224.895 32.5409 225.222 32.3776 225.385 32.3776C225.875 32.5409 226.038 32.7042 226.038 32.8675Z" fill="#2E266F"/>
<path d="M231.599 49.5246C235.191 53.7707 237.804 50.6678 238.621 49.3613L231.599 49.5246Z" fill="white"/>
<path d="M233.404 9.35082C232.425 6.90115 232.915 3.63494 234.874 2.00183C236.671 0.53203 239.12 0.205409 241.407 0.205409C248.592 -0.284524 255.941 0.0420978 262.964 1.83852C263.944 2.16514 264.923 2.32845 265.74 3.145C267.047 4.28818 267.373 6.0846 266.883 7.71771C266.393 9.35082 265.413 10.6573 264.27 11.8005C263.617 12.4537 262.964 12.9437 262.147 13.4336C262.311 13.5969 262.474 13.7602 262.474 13.9235C267.373 26.3351 266.72 36.2971 262.8 39.5633C251.695 34.8273 238.141 26.0085 233.078 19.6394C232.588 19.1495 237.977 15.3933 238.957 14.9034C236.507 13.5969 234.384 11.8005 233.404 9.35082Z" fill="#6E739D"/>
<path d="M239.445 4.61458C239.445 4.61458 239.609 4.45127 239.935 4.28796C240.262 4.12464 240.752 3.79802 241.569 3.63471C243.038 3.14478 244.998 2.65485 247.774 2.65485C249.081 2.65485 250.551 2.65485 252.02 2.65485C252.837 2.65485 253.654 2.65485 254.47 2.81816C255.287 2.81816 256.103 2.98147 257.083 3.14478C257.573 3.30809 257.9 3.30809 258.39 3.63471C258.553 3.79802 258.879 4.12464 258.879 4.28796C258.879 4.61458 258.879 4.9412 258.716 5.10451C258.39 5.59444 257.9 5.75775 257.573 5.92106C257.083 6.08438 256.756 6.24769 256.267 6.57431C254.47 7.22755 252.51 7.8808 250.551 8.20742C248.101 8.69735 245.815 8.69735 243.528 8.86066C242.385 8.86066 241.242 8.86066 240.262 8.86066C239.935 8.86066 239.609 8.86066 239.445 8.69735C239.119 8.53404 238.956 8.37073 238.792 8.04411C238.629 7.71748 238.792 7.22755 238.956 7.06424C239.119 6.90093 239.445 6.73762 239.609 6.57431C241.405 5.59444 243.365 5.10451 244.998 4.9412C246.794 4.77789 248.264 4.9412 249.571 5.26782L249.897 5.43113L249.571 5.59444C248.264 6.73762 246.794 6.90093 245.815 6.90093C245.325 6.90093 244.998 6.73762 244.835 6.73762C244.671 6.57431 244.508 6.57431 244.508 6.57431C244.508 6.57431 244.998 6.73762 245.815 6.73762C246.631 6.73762 248.101 6.57431 249.244 5.43113V5.75775C247.938 5.43113 246.468 5.26782 244.835 5.43113C243.202 5.59444 241.405 6.08438 239.609 7.06424C239.119 7.22755 238.792 7.55417 238.956 7.8808C239.119 8.20742 239.445 8.37073 239.935 8.37073C240.915 8.37073 242.058 8.37073 243.202 8.20742C245.488 8.04411 247.774 7.88079 250.224 7.55417C252.184 7.22755 253.98 6.73762 255.777 6.08438C256.267 5.92106 256.593 5.75775 257.083 5.59444C257.573 5.43113 257.9 5.26782 258.063 4.9412C258.226 4.61458 258.226 4.45127 257.9 4.28796C257.573 4.12464 257.083 3.96133 256.756 3.79802C255.94 3.63471 255.123 3.4714 254.307 3.4714C253.49 3.4714 252.674 3.30809 251.857 3.30809C250.387 3.14478 248.918 3.14478 247.611 3.14478C244.998 3.14478 242.875 3.63471 241.569 3.96133C240.099 4.28795 239.445 4.61458 239.445 4.61458Z" fill="#2E266F"/>
<path d="M262.637 13.4337C262.637 13.4337 262.31 13.597 261.657 13.7603C261.004 13.9236 260.187 14.2503 259.044 14.4136C256.757 14.9035 253.491 14.9035 249.898 14.7402C246.306 14.5769 243.203 14.5769 240.916 14.4136C238.63 14.2503 237.16 14.087 237.16 14.087C237.16 13.9236 238.63 13.9236 240.916 13.9236C243.203 13.9236 246.469 13.9236 249.898 14.087C253.491 14.2503 256.594 14.2503 258.881 13.9236C261.33 13.7603 262.637 13.4337 262.637 13.4337Z" fill="#2E266F"/>
<path d="M174.771 110.276C174.608 102.764 174.771 96.2313 174.934 93.1284C174.934 92.6385 174.934 92.3118 174.934 91.8219C174.934 91.8219 176.077 83.983 176.404 82.6765C176.894 79.7369 179.344 73.0412 179.344 73.0412C179.344 73.0412 177.874 71.408 175.261 75.3275C172.648 79.5736 172.648 77.9405 172.648 77.9405C172.648 77.9405 171.505 62.4259 169.055 61.7727C168.075 61.4461 167.585 64.549 167.912 66.672C168.402 68.7951 168.402 71.898 168.402 71.898C168.402 71.898 165.626 59.6497 163.176 59.6497C163.176 59.6497 161.869 59.6497 162.849 63.4058C164.156 68.4684 164.646 72.7145 164.646 72.7145C164.646 72.7145 160.89 62.0993 159.583 62.0993C157.46 62.0993 161.379 72.8778 161.216 75.8174C161.216 75.8174 158.603 67.4886 157.46 68.7951C156.317 70.1016 159.583 79.0837 158.44 88.0658C158.277 88.8823 158.113 89.8622 157.787 91.0054C157.787 91.0054 155.5 98.681 153.867 109.949C160.726 109.949 167.749 110.113 174.771 110.276Z" fill="#B15635"/>
<path d="M310.97 159.269C293.986 92.1483 270.306 88.3922 270.306 88.3922L261.977 88.0655C252.342 93.9447 236.337 94.2714 232.254 88.3922L230.621 90.5152L231.111 89.2087C218.536 77.777 179.832 118.278 179.832 118.278L182.118 96.2311L148.803 95.9045C139.33 122.851 140.8 157.799 149.456 172.334C157.621 186.052 188.487 161.555 202.042 149.96L207.431 208.099L289.087 210.875L285.657 188.502C308.684 193.891 317.829 186.542 310.97 159.269Z" fill="#7E5CEB"/>
<path d="M175.266 143.429C174.612 143.266 176.572 137.223 178.042 129.548C179.512 121.872 179.675 115.666 180.328 115.666C180.818 115.666 181.635 122.199 180.165 130.038C178.858 137.876 175.919 143.756 175.266 143.429Z" fill="#6D4ED2"/>
<path d="M207.272 204.181L201.229 256.114H322.733L288.927 206.957L207.272 204.181Z" fill="#2E266F"/>
<path d="M222.13 116.81L265.408 115.83L277.983 206.631L296.6 245.989C296.6 245.989 213.475 243.376 212.168 244.192C210.862 245.009 211.352 205.161 211.352 205.161L222.13 116.81Z" fill="#FCFAF1"/>
<path d="M222.942 119.256C222.126 119.256 221.309 111.744 223.922 102.762C226.372 93.78 231.108 87.7375 231.761 88.2274C232.414 88.7173 229.148 95.0865 226.699 103.579C224.249 112.071 223.759 119.256 222.942 119.256Z" fill="#2E266F"/>
<path d="M263.606 120.728C263.279 120.728 263.116 118.768 263.116 115.829C263.116 112.889 263.279 108.807 263.279 104.234C263.279 99.8244 262.953 95.7416 262.626 92.802C262.299 89.8625 261.973 88.066 262.299 87.9027C262.626 87.7394 263.606 89.3725 264.586 92.3121C265.566 95.2517 266.219 99.4978 266.219 104.071C266.219 108.643 265.729 112.889 265.239 115.829C264.586 118.932 263.932 120.728 263.606 120.728Z" fill="#2E266F"/>
<path d="M288.603 211.695C288.766 211.532 289.746 212.512 291.706 214.145C293.666 215.778 296.769 218.064 300.851 220.024C302.811 221.004 305.261 221.984 307.547 221.33C308.527 221.004 309.67 220.351 310.323 219.371C310.977 218.391 310.977 217.248 310.323 216.431C309.67 215.615 308.364 214.961 306.894 214.471C305.424 214.145 303.791 213.981 302.158 213.655C298.728 213.328 295.299 213.328 291.706 213.655V210.879C294.319 211.042 297.095 211.042 299.872 211.042C303.954 210.879 308.037 210.552 311.793 209.899C313.59 209.572 315.223 208.919 316.366 207.776C317.509 206.796 317.999 205.326 317.999 203.856C317.836 202.386 317.182 201.57 315.713 201.243C314.406 200.917 312.61 200.917 311.14 200.917C308.037 200.917 305.097 201.57 302.648 202.223C297.585 203.856 293.829 206.306 291.543 208.266C289.256 210.225 288.113 211.532 287.95 211.368C287.787 211.205 288.603 209.735 290.889 207.449C293.012 205.163 296.769 202.386 301.995 200.427C304.608 199.447 307.71 198.794 311.14 198.63C311.957 198.63 312.773 198.63 313.753 198.63C314.569 198.63 315.549 198.794 316.529 198.957C317.509 199.283 318.652 199.773 319.469 200.59C320.285 201.407 320.775 202.713 320.775 203.693C320.939 205.979 320.122 208.266 318.326 209.899C316.693 211.369 314.57 212.185 312.446 212.675C308.364 213.492 304.281 213.818 300.035 213.981C297.095 214.145 294.319 213.981 291.706 213.818V211.042C295.462 210.715 299.218 210.879 302.648 211.205C304.444 211.369 306.077 211.695 307.874 212.185C309.507 212.675 311.467 213.492 312.61 215.125C313.263 215.941 313.59 217.084 313.426 218.064C313.426 219.044 313.1 220.024 312.446 220.841C311.467 222.31 309.833 223.29 308.2 223.617C306.567 223.943 305.097 223.78 303.628 223.29C302.321 222.964 301.178 222.31 300.035 221.657C295.789 219.371 292.849 216.758 291.053 214.798C289.256 213.002 288.44 211.858 288.603 211.695Z" fill="#2E266F"/>
<path d="M268.666 182.949C265.237 182.949 255.601 154.37 266.543 148.001C266.543 147.837 277.485 182.786 268.666 182.949Z" fill="#6D4ED2"/>
<path d="M253.48 150.942C252.827 150.616 251.684 150.126 250.54 149.799C249.397 149.472 248.417 149.146 247.274 148.982C244.988 148.493 242.701 148.166 240.415 148.166C238.129 148.166 235.679 148.329 233.393 148.656C230.943 148.983 228.657 149.636 226.37 150.452C225.88 150.616 225.39 150.289 225.227 149.962C225.064 149.472 225.227 149.146 225.554 148.819C227.677 147.513 229.963 146.37 232.413 145.553C234.862 144.573 237.312 143.92 239.925 143.43C242.538 142.94 245.968 143.757 248.581 143.757C249.887 143.757 257.726 145.063 259.359 145.553H259.522C261.482 146.206 259.522 146.696 258.869 148.656C258.216 150.616 256.093 151.759 254.133 151.269C253.97 151.269 253.643 151.106 253.48 150.942Z" fill="#963B20"/>
<path d="M219.831 206.959C219.178 206.959 218.688 206.959 218.034 206.796C215.585 206.306 213.952 204.836 213.135 202.713C208.889 192.424 224.404 167.274 225.057 166.295L225.22 166.131L229.793 167.274V167.601C229.956 168.908 232.569 198.304 224.077 205.653C222.934 206.469 221.464 206.959 219.831 206.959ZM225.547 166.785C223.914 169.398 209.869 192.914 213.788 202.386C214.605 204.346 216.075 205.489 218.198 205.979C220.321 206.469 222.117 206.142 223.587 204.673C231.263 197.977 229.303 170.541 228.976 167.601L225.547 166.785Z" fill="#2E266F"/>
<path d="M217.875 206.633C210.69 195.038 226.041 166.786 226.694 165.642L227.347 165.969C227.184 166.296 211.506 195.038 218.529 206.307L217.875 206.633Z" fill="#2E266F"/>
<path d="M218.361 206.632L218.035 205.979C228.487 199.446 227.997 166.294 227.997 165.968H228.813C228.813 166.131 228.976 174.46 227.67 183.605C226.037 196.18 222.934 203.856 218.361 206.632Z" fill="#2E266F"/>
<path d="M227.348 165.807L218.002 205.72L218.797 205.907L228.143 165.994L227.348 165.807Z" fill="#2E266F"/>
<path d="M229.633 139.673L224.733 166.946L229.633 168.089L237.472 141.47C238.125 139.183 236.818 136.897 234.532 136.407C232.246 135.754 230.123 137.387 229.633 139.673Z" fill="#F9401D"/>
<path d="M269.322 145.064C263.116 144.738 256.747 144.084 250.541 143.921C246.459 143.758 242.049 145.718 241.069 149.8C240.09 154.373 243.029 158.946 247.765 159.926C255.931 161.559 264.096 163.192 272.262 164.825C270.465 157.803 270.139 152.087 269.322 145.064Z" fill="#B15635"/>
<path d="M247.438 145.393L242.539 146.537C242.212 146.537 241.886 146.7 241.559 146.7C236.66 147.353 231.761 148.333 228.168 149.639C225.228 150.619 222.615 151.762 222.942 152.089C223.758 153.069 230.617 152.742 230.617 152.742C230.617 152.742 220.982 154.375 224.085 155.192C227.188 156.009 232.904 155.355 232.904 155.355C232.904 155.355 223.922 157.968 227.351 158.295C230.617 158.622 236.17 157.642 236.17 157.642C236.17 157.642 226.371 161.071 231.597 161.071C238.62 161.071 239.763 161.235 245.152 160.581C246.458 160.418 248.255 160.255 250.215 160.091C249.071 155.192 248.255 150.293 247.438 145.393Z" fill="#B15635"/>
<path d="M268.668 182.952L285.489 188.341L295.288 149.146L266.545 144.9L268.668 182.952Z" fill="#7E5CEB"/>
<path d="M290.395 147.516C290.232 147.843 288.762 147.843 286.476 147.843C284.189 147.68 281.086 147.516 277.494 147.353C270.471 146.863 264.592 145.557 264.755 144.74C264.919 143.924 270.634 143.924 277.657 144.413C281.25 144.74 284.516 145.23 286.802 145.883C289.089 146.537 290.395 147.19 290.395 147.516Z" fill="#6D4ED2"/>
<path d="M105.711 183.906L97.519 192.824V239.362H116.51V192.824L105.711 183.906Z" fill="#FF8C32"/>
<path d="M105.712 181.769V183.905L113.253 192.823V239.362H130.568V192.823L123.12 183.905V181.769H105.712Z" fill="#FFC32E"/>
<path d="M113.447 193.292C118.754 193.385 124.06 193.199 129.366 193.292C129.832 193.292 129.832 192.549 129.366 192.549C124.06 192.456 118.754 192.641 113.447 192.549C112.889 192.549 112.889 193.292 113.447 193.292Z" fill="#FF8C32"/>
<path d="M107.104 184.465C112.131 184.465 117.251 184.465 122.278 184.465C122.744 184.465 122.744 183.722 122.278 183.722C117.251 183.722 112.131 183.722 107.104 183.722C106.639 183.722 106.639 184.465 107.104 184.465Z" fill="#FF8C32"/>
<path d="M117.771 229.001C117.771 224.265 121.691 214.793 126.427 214.793C131.163 214.793 135.082 224.265 135.082 229.001C135.082 233.737 131.163 237.656 126.427 237.656C121.691 237.656 117.771 233.737 117.771 229.001Z" fill="white"/>
<path d="M138.339 229.001C138.339 224.265 142.259 214.793 146.995 214.793C151.731 214.793 155.65 224.265 155.65 229.001C155.65 233.737 151.731 237.656 146.995 237.656C142.259 237.656 138.339 233.737 138.339 229.001Z" fill="white"/>
<path d="M158.92 229.001C158.92 224.265 162.839 214.793 167.575 214.793C172.311 214.793 176.231 224.265 176.231 229.001C176.231 233.737 172.311 237.656 167.575 237.656C162.839 237.656 158.92 233.737 158.92 229.001Z" fill="white"/>
<path d="M176.883 226.062H117.111C115.641 226.062 114.334 227.206 114.334 228.839C114.334 229.819 114.334 230.635 114.334 231.615C114.334 232.105 114.334 232.595 114.334 232.921C114.334 233.901 115.478 233.575 116.131 233.575C116.947 233.575 117.601 234.065 117.764 234.881C118.254 237.168 120.377 238.801 122.663 238.801H130.176C132.462 238.801 134.585 237.168 135.075 234.881C135.238 234.065 135.892 233.575 136.708 233.575H136.871C137.688 233.575 138.341 234.065 138.504 234.881C138.994 237.168 141.117 238.801 143.404 238.801H150.753C153.039 238.801 155.162 237.168 155.652 234.881C155.815 234.065 156.469 233.575 157.285 233.575H157.449C158.265 233.575 158.918 234.065 159.082 234.881C159.572 237.168 161.695 238.801 163.981 238.801H171.33C173.616 238.801 175.739 237.168 176.229 234.881C176.393 234.065 177.046 233.575 177.862 233.575C178.352 233.575 178.842 233.575 179.332 233.575C179.496 233.575 179.659 233.575 179.659 233.411C179.659 232.921 179.659 231.942 179.659 231.288C179.659 230.472 179.659 229.655 179.659 228.839C179.659 227.369 178.352 226.062 176.883 226.062Z" fill="#A9BFDF"/>
<path d="M117.445 232.102C137.369 231.612 157.13 232.102 177.054 231.612C177.707 231.612 177.707 230.632 177.054 230.632C157.13 231.122 137.369 230.632 117.445 231.122C116.792 231.285 116.792 232.102 117.445 232.102Z" fill="white"/>
<path d="M175.088 199.605C176.068 220.672 195.666 237.493 219.999 237.493C244.169 237.493 263.93 220.672 264.909 199.605H175.088Z" fill="#FFA037"/>
<path d="M236.98 234.391H202.685V238.801H236.98V234.391Z" fill="#FFA037"/>
<path d="M358.003 260.356H69.4326V520.673H358.003V260.356Z" fill="#FFBF48"/>
<path d="M360.618 238.963H67.1479V262.806H360.618V238.963Z" fill="#2E266F"/>
<path d="M179.943 288.099L177.831 288.31L201.107 520.352L203.22 520.14L179.943 288.099Z" fill="#060606"/>
<path d="M82.6687 520.509L80.709 520.183L107.819 287.465L109.778 287.791L82.6687 520.509Z" fill="#060606"/>
<path d="M89.4197 448.663L89.4019 450.786L195.554 451.679L195.572 449.556L89.4197 448.663Z" fill="#060606"/>
<path d="M90.0039 284.512L89.9517 290.718L198.39 291.63L198.442 285.425L90.0039 284.512Z" fill="#030F09"/>
<path d="M323.717 289.579L321.605 289.791L344.783 520.533L346.896 520.321L323.717 289.579Z" fill="#060606"/>
<path d="M251.607 288.904L224.336 520.178L226.445 520.427L253.715 289.152L251.607 288.904Z" fill="#060606"/>
<path d="M233.198 450.168L233.18 452.291L339.332 453.184L339.35 451.061L233.198 450.168Z" fill="#060606"/>
<path d="M235.412 285.857L235.359 292.062L343.798 292.974L343.85 286.769L235.412 285.857Z" fill="#030F09"/>
<path d="M50 520.513H377.438" stroke="#060606" stroke-miterlimit="10"/>
</svg>
