<svg width="414" height="325" viewBox="0 0 414 325" fill="none" xmlns="http://www.w3.org/2000/svg">
<g opacity="0.5">
<path d="M25.6499 226.172C31.5598 230.518 39.1804 235.173 39.3359 243.088C39.3359 245.726 38.4028 248.364 37.3141 250.847C30.3156 268.383 21.6064 285.298 17.2517 303.92C16.1631 308.886 15.2299 314.007 14.9189 319.128H398.748C408.39 309.817 416.633 297.092 413.211 284.056C408.701 266.676 386.617 260.468 383.04 242.777C379.463 225.552 396.104 210.499 396.571 192.808C396.882 181.479 390.039 170.927 381.329 164.874C372.62 158.977 362.045 156.96 351.78 156.029C337.783 154.942 323.786 155.718 310.1 158.512C294.548 161.615 278.996 167.202 263.288 165.185C257.067 164.409 250.846 162.236 246.025 158.046C239.493 152.46 235.76 143.769 233.117 135.234C225.807 111.491 224.874 84.7989 212.743 63.6937C196.724 36.0708 164.687 23.8112 135.449 27.2253C106.21 30.6393 79.6162 47.3993 56.2878 67.263C33.5816 86.6611 12.4305 110.56 3.7213 140.665C-5.14347 170.927 1.69951 208.481 25.6499 226.172Z" fill="#D8CEF9"/>
</g>
<path d="M209.478 75.9548C209.634 75.4893 190.815 64.7815 200.924 28.0027L221.92 27.382L209.478 75.9548Z" fill="#2E266F"/>
<path d="M268.271 39.6391C265.783 23.9655 250.075 -2.2608 222.392 13.8784C213.683 18.9995 209.951 28.1555 208.24 37.7769C206.996 44.4499 209.329 110.248 209.329 110.248C211.661 136.63 251.319 142.837 252.719 110.714L251.164 88.8328C271.071 82.315 271.071 57.1751 268.271 39.6391Z" fill="#FEBF9F"/>
<path d="M251.01 88.6764C251.01 88.6764 239.656 92.4008 218.194 79.2101C218.194 79.2101 229.859 96.746 251.632 103.884L251.01 88.6764Z" fill="#B06D6A"/>
<path opacity="0.46" d="M214.774 61.2097C214.774 67.5723 219.907 72.6934 226.283 72.6934C232.659 72.6934 237.792 67.5723 237.792 61.2097C237.792 54.8471 232.659 49.726 226.283 49.726C219.907 49.5708 214.774 54.8471 214.774 61.2097Z" fill="#EFA586"/>
<path opacity="0.46" d="M256.298 53.295C256.298 46.9324 261.43 41.8113 267.806 41.8113C267.962 41.8113 268.273 41.8113 268.429 41.8113C269.362 48.9498 269.984 57.1746 268.74 64.7787C268.429 64.7787 268.118 64.7787 267.806 64.7787C261.586 64.7787 256.298 59.6576 256.298 53.295Z" fill="#EFA586"/>
<path d="M195.487 47.3987C194.398 51.899 197.198 56.5546 201.708 57.6409C206.218 58.7271 210.884 55.9338 211.972 51.4335C213.061 46.9331 210.262 42.2775 205.751 41.1913C201.241 40.105 196.576 42.8983 195.487 47.3987Z" fill="#FEBF9F"/>
<path d="M207.773 51.7432C206.374 50.812 205.13 49.8809 203.885 49.4154C203.263 49.105 202.797 49.105 202.019 49.2602C201.397 49.2602 200.619 49.5706 199.842 49.8809C200.153 49.105 200.775 48.3291 201.553 47.8635C202.33 47.398 203.574 47.2428 204.507 47.7083C205.441 48.0187 206.218 48.6395 206.685 49.4154C207.307 50.0361 207.618 50.812 207.773 51.7432Z" fill="#2E266F"/>
<path d="M248.206 32.9655C249.606 34.3621 250.694 35.7588 251.628 37.3106C252.094 38.0866 252.561 38.8625 253.027 39.6384C253.494 40.4143 253.805 41.1903 254.271 42.1214L254.583 42.7421L254.116 43.0525C252.094 44.4491 249.917 45.8458 247.584 47.0873C249.295 45.2251 251.161 43.518 253.027 41.811L252.872 42.7421C252.405 41.9662 251.783 41.1903 251.472 40.4143C251.005 39.6384 250.539 38.8625 250.228 38.0866C249.295 36.5347 248.517 34.8277 248.206 32.9655Z" fill="#2E266F"/>
<path d="M239.808 34.9817C240.274 36.5336 240.43 38.0854 240.43 39.7924C240.43 40.5684 240.274 41.4995 239.808 42.4306C239.497 43.3617 238.719 44.2928 237.631 44.6032C236.542 45.0687 235.298 44.7584 234.52 44.2928C233.743 43.8273 232.965 43.2065 232.498 42.5858C231.41 41.3443 230.632 39.9476 230.01 38.3958C229.854 38.0854 230.01 37.6199 230.477 37.4647C230.788 37.3095 231.099 37.4647 231.41 37.775C232.187 39.0165 233.12 40.258 234.209 41.1891C235.142 42.1202 236.386 42.8961 237.008 42.5858C237.786 42.4306 238.408 41.1891 238.564 39.7924C238.719 38.3958 238.875 36.8439 238.719 35.4473C238.719 35.1369 239.03 34.8265 239.341 34.8265C239.341 34.5162 239.652 34.6713 239.808 34.9817Z" fill="#2E266F"/>
<path d="M263.449 32.3449C263.915 33.7415 264.226 35.2934 264.226 36.8452C264.226 37.6212 264.226 38.3971 263.915 39.3282C263.76 39.7938 263.604 40.2593 263.293 40.7249C262.982 41.1904 262.516 41.656 261.894 41.8112C261.272 41.9664 260.649 41.9664 260.027 41.656C259.561 41.5008 259.094 41.1904 258.783 40.8801C258.161 40.2593 257.695 39.6386 257.228 39.0178C256.295 37.7764 255.828 36.3797 255.362 34.8278C255.206 34.3623 255.517 34.0519 255.828 33.8967C256.139 33.7415 256.45 33.8967 256.606 34.2071C257.383 35.4486 258.161 36.5349 258.939 37.6212C259.405 38.0867 259.716 38.7075 260.183 39.0178C260.649 39.3282 260.96 39.4834 261.116 39.4834C261.272 39.4834 261.583 39.173 261.738 38.7075C261.894 38.2419 262.049 37.466 262.049 36.8452C262.205 35.4486 262.205 34.0519 262.049 32.6553C262.049 32.3449 262.36 32.0345 262.671 32.0345C262.982 31.8793 263.293 32.0345 263.449 32.3449Z" fill="#2E266F"/>
<path d="M253.959 56.8655C253.648 57.9518 253.026 59.0381 252.093 59.814C251.16 60.59 250.071 61.2107 248.672 61.2107C247.272 61.2107 246.028 60.59 245.25 59.814C244.317 59.0381 243.85 57.9518 243.695 56.7103C244.628 57.3311 245.561 57.9518 246.339 58.2622C247.116 58.7277 248.049 58.8829 248.672 58.8829C249.449 58.8829 250.227 58.7277 251.16 58.2622C252.093 57.9518 252.871 57.3311 253.959 56.8655Z" fill="#2E266F"/>
<path d="M200.457 30.9503C200.457 30.9503 202.479 38.5544 204.656 39.7959C206.678 40.8822 213.21 44.6066 213.21 44.6066C213.21 44.6066 222.075 34.83 224.874 16.2078C224.874 16.2078 249.136 32.5022 265.31 21.3289C265.31 21.3289 261.577 2.86187 241.359 0.844464C228.296 -0.552201 215.543 5.34483 207.611 15.7422C204.656 19.777 201.857 24.8981 200.457 30.9503Z" fill="#2E266F"/>
<path d="M206.679 99.2324C206.834 99.3876 206.057 100.164 204.346 101.095C202.635 102.026 199.68 102.802 196.103 102.491C194.237 102.336 192.371 101.871 190.349 100.629C189.883 100.319 189.105 99.8531 188.794 98.7668C188.638 98.1461 188.794 97.6805 188.949 97.0598C189.26 96.5942 189.572 96.1287 190.038 95.9735C190.816 95.5079 191.438 95.3528 192.06 95.1976C192.682 95.1976 193.304 95.0424 193.771 95.0424C198.592 94.732 203.569 96.2839 208.545 97.8357L207.457 100.784C207.301 100.784 207.301 100.629 207.146 100.629C202.013 98.7668 197.503 95.0424 195.481 90.542C195.17 89.9213 195.015 89.4557 194.859 88.835L194.548 87.9039C194.548 87.5935 194.393 87.2831 194.393 86.8176C194.393 86.352 194.393 85.7313 195.015 85.1106C195.637 84.4898 196.414 84.3346 196.881 84.4898C197.348 84.4898 197.659 84.645 197.97 84.8002L198.747 85.1106C200.614 86.0417 202.169 87.2831 203.569 88.5246C206.212 91.0076 207.612 93.4905 208.39 95.3528C209.167 97.215 209.323 98.3013 209.012 98.3013C208.856 98.4565 208.234 97.3702 207.301 95.8183C206.212 94.2665 204.657 92.0939 202.013 90.0765C200.769 89.1454 199.214 88.0591 197.503 87.2831L196.881 86.9728C196.726 86.9728 196.57 86.8176 196.57 86.8176C196.57 86.8176 196.57 86.8176 196.57 86.6624V86.5072C196.57 86.352 196.57 86.352 196.57 86.1968C196.57 86.0417 196.57 86.1968 196.57 86.0417C196.57 86.0417 196.57 86.0417 196.881 86.1968C197.037 86.1968 197.192 86.1968 197.192 86.1968C197.192 86.1968 197.192 86.5072 197.348 86.6624L197.503 87.4383C197.659 87.9039 197.814 88.3694 198.125 88.835C199.836 92.5594 203.724 95.6631 208.234 97.215C208.39 97.215 208.39 97.215 208.545 97.3702L207.457 100.319C202.635 98.6117 197.97 97.215 193.771 97.3702C193.304 97.3702 192.682 97.3702 192.215 97.5254C191.749 97.5254 191.438 97.6805 191.282 97.8357C191.282 97.8357 191.282 97.8357 191.127 97.8357H190.971C190.971 97.8357 191.282 97.6805 191.127 97.8357C191.127 97.8357 191.127 97.8357 191.127 97.9909C191.127 97.9909 191.282 98.1461 191.438 98.3013C192.837 99.2324 194.548 99.8531 196.103 100.163C199.214 100.784 201.858 100.319 203.569 99.8531C205.59 99.5428 206.523 99.0772 206.679 99.2324Z" fill="#2E266F"/>
<path d="M175.413 267.916L167.948 316.799L324.559 315.868L305.274 253.639L175.413 267.916Z" fill="#2E266F"/>
<path d="M338.555 221.518C332.334 205.223 325.958 188.929 318.493 173.1C317.559 170.462 309.006 157.116 301.696 145.788C290.654 128.717 276.346 113.975 259.705 102.491C256.595 100.629 251.929 99.8529 251.929 99.8529C244.619 107.922 208.694 98.301 208.694 98.301C208.694 98.301 207.916 98.7666 207.45 99.077C169.813 119.251 136.065 166.738 117.091 204.758C110.87 217.328 104.338 230.363 105.116 244.64C105.271 246.968 105.738 249.296 106.671 251.469C111.492 262.487 124.09 261.711 134.354 260.004C145.396 258.142 156.594 256.279 167.791 254.262C169.502 265.59 174.168 274.281 182.877 278.16C189.098 280.954 217.87 281.73 228.134 281.109C239.332 280.333 283.345 273.815 297.186 270.556C305.429 272.729 313.827 274.591 322.225 275.833C326.735 276.453 331.712 277.074 335.911 275.057C339.488 273.35 341.976 269.936 343.532 266.366C349.597 252.245 344.154 235.95 338.555 221.518Z" fill="#7E5CEB"/>
<path d="M201.541 146.563L274.325 145.943L297.809 282.506L324.559 315.87L167.948 316.801L186.61 285.144L201.541 146.563Z" fill="#FCFAF1"/>
<path d="M171.528 288.403C171.528 287.472 175.105 286.696 179.615 285.92C184.126 285.299 187.858 284.834 188.169 285.765C188.48 286.541 184.903 288.248 180.238 289.024C175.416 289.799 171.528 289.334 171.528 288.403Z" fill="#2E266F"/>
<path d="M316.164 285.764C316.008 286.695 311.809 286.695 306.677 285.92C301.545 285.144 297.501 283.747 297.657 282.971C297.812 282.04 302.011 282.04 307.144 282.816C312.276 283.592 316.319 284.988 316.164 285.764Z" fill="#2E266F"/>
<path d="M206.986 98.7677C207.453 99.078 206.053 101.561 204.653 105.751C203.254 109.941 201.854 115.993 201.543 122.977C200.765 136.788 203.098 147.806 202.321 148.116C201.854 148.272 200.765 145.478 199.832 140.978C198.899 136.478 198.121 129.96 198.432 122.821C198.743 115.683 200.61 109.32 202.632 104.975C204.653 100.785 206.675 98.6125 206.986 98.7677Z" fill="#2E266F"/>
<path d="M252.091 100.164C252.246 100.008 253.024 100.164 254.112 100.939C255.356 101.715 256.756 103.112 258.467 104.819C261.888 108.388 265.932 113.82 269.665 120.338C270.598 121.889 271.531 123.597 272.308 125.148C273.086 126.855 273.708 128.562 274.019 130.114C274.797 133.373 275.108 136.322 275.108 138.805C274.952 143.926 273.242 146.719 272.931 146.564C272.464 146.409 273.242 143.46 272.931 138.805C272.775 136.477 272.308 133.684 271.375 130.89C270.909 129.338 270.287 127.942 269.665 126.39C268.887 124.838 268.109 123.286 267.176 121.734C263.444 115.527 259.867 109.94 257.067 106.061C255.668 104.198 254.423 102.647 253.646 101.56C252.557 100.94 251.935 100.474 252.091 100.164Z" fill="#2E266F"/>
<path d="M207.759 230.828C207.759 230.828 276.5 268.694 307.605 273.039L308.693 216.396L222.223 193.118L207.759 230.828Z" fill="#7E5CEB"/>
<path d="M295.327 211.277C294.86 211.277 294.394 208.484 293.616 204.139C292.994 199.638 292.061 193.586 291.283 186.758C290.506 179.93 289.884 173.722 289.728 169.222C289.572 164.722 289.728 161.928 290.039 161.928C290.506 161.928 291.128 164.566 291.905 169.067C292.683 173.412 293.616 179.619 294.394 186.448C295.171 193.276 295.638 199.483 295.793 203.983C296.104 208.484 295.793 211.277 295.327 211.277Z" fill="#2E266F"/>
<path d="M285.682 193.898C274.796 186.604 265.309 186.604 261.887 188.467C261.887 188.467 267.953 201.657 269.508 206.468C269.663 206.778 295.169 211.744 295.013 211.279C293.925 207.244 293.458 199.174 285.682 193.898Z" fill="#FBD2C3"/>
<path d="M195.013 195.757C195.013 196.688 188.637 197.775 180.86 199.016C173.084 200.413 166.708 201.499 166.397 200.568C166.086 199.792 172.307 197.309 180.238 195.912C188.326 194.671 195.013 194.981 195.013 195.757Z" fill="#2E266F"/>
<path d="M219.429 194.052L219.118 192.345C216.007 190.949 212.742 189.707 209.631 188.466C202.633 185.672 194.856 183.19 187.547 184.431C187.236 190.018 186.925 195.604 186.614 201.191C187.08 201.346 187.547 201.346 187.858 201.346C193.301 201.501 198.745 201.501 204.188 201.501C209.165 201.346 214.452 201.036 218.962 199.174C220.362 198.553 221.917 197.622 222.228 196.07C222.539 194.673 220.673 192.966 219.429 194.052Z" fill="#FBD2C3"/>
<path d="M186.615 197.623C186.77 197.623 187.081 198.554 187.237 200.105C187.392 200.881 187.392 201.813 187.548 203.054C187.548 203.675 187.703 204.295 187.703 204.916V205.382V205.692V205.847C188.17 205.847 183.66 206.003 185.526 205.847C185.526 205.537 185.526 205.227 185.526 204.761C185.06 199.019 184.749 191.26 184.593 182.57C184.282 165.189 184.749 151.067 185.526 151.067C186.459 151.067 187.392 165.189 187.703 182.57C187.859 191.26 187.859 199.174 187.703 204.761C187.703 205.071 187.703 205.537 187.703 205.847C189.57 205.847 185.215 205.847 185.526 205.847V205.692V205.382V204.916C185.526 204.295 185.526 203.675 185.682 203.054C185.682 201.968 185.837 200.881 185.837 200.105C186.148 198.398 186.459 197.623 186.615 197.623Z" fill="#2E266F"/>
<path d="M170.595 252.713C216.319 246.35 216.163 245.574 277.906 228.194C275.106 219.814 272.618 209.727 262.042 184.897C262.042 184.897 211.809 192.812 188.169 197.002C182.726 197.933 177.283 199.019 171.995 200.571C171.373 215.624 171.528 237.66 170.595 252.713Z" fill="#7E5CEB"/>
<path d="M315.854 218.107C315.698 218.572 314.143 218.262 311.655 217.641C309.166 217.021 305.9 215.934 302.168 214.693C294.858 212.52 288.793 211.124 288.793 210.192C288.948 209.417 295.325 209.417 302.946 211.744C306.678 212.986 309.944 214.382 312.277 215.624C314.61 216.865 316.009 217.797 315.854 218.107Z" fill="#2E266F"/>
<path d="M251.936 236.261C233.585 240.607 198.903 253.642 186.306 270.712C173.708 287.783 176.663 309.354 192.682 309.354C208.701 309.354 260.645 309.354 272.621 309.354C284.596 309.354 289.262 285.765 286.462 269.316C283.818 253.021 273.709 231.14 251.936 236.261Z" fill="#FFA037"/>
<path d="M281.019 230.211C281.019 230.211 255.358 243.556 244.16 257.213C232.807 270.869 254.114 297.095 269.51 295.699C284.907 294.302 290.35 287.474 290.661 272.11C290.972 259.851 288.017 250.229 290.039 244.953C293.772 235.487 297.66 235.487 295.794 230.521C294.083 225.865 292.528 223.538 281.019 230.211Z" fill="#F48B20"/>
<path d="M287.236 227.107L295.323 235.642L301.389 230.986C301.389 230.986 313.053 233.004 314.297 227.107C315.852 219.503 307.765 220.434 307.765 220.434C307.765 220.434 312.275 212.519 305.432 210.502C298.589 208.485 297.967 217.175 296.723 219.658C294.857 222.606 287.236 227.107 287.236 227.107Z" fill="white"/>
<path d="M166.094 310.909C166.094 310.909 153.963 290.735 166.094 290.735C178.225 290.735 175.27 292.287 182.735 285.459C190.356 278.631 190.356 290.735 198.287 290.735C206.374 290.735 206.374 282.665 214.461 286.7C222.549 290.735 218.505 298.805 226.592 298.805C234.679 298.805 230.325 308.426 230.325 308.426L166.094 310.909Z" fill="#35CD8C"/>
<path d="M267.184 306.874C267.184 306.874 263.14 286.7 271.227 290.735C279.314 294.77 280.403 301.132 287.868 289.804C295.489 278.63 307.62 286.7 303.576 294.77C299.532 302.839 299.532 306.874 299.532 306.874H267.184Z" fill="#35CD8C"/>
<path d="M159.716 305.322C160.338 311.064 165.16 315.564 171.069 315.564H295.643C301.553 315.564 306.374 311.064 306.996 305.322H159.716Z" fill="#2E266F"/>
<path d="M223.473 170.466C223.628 170.466 223.317 171.398 222.851 173.105C222.384 174.812 221.607 177.139 221.762 180.088C221.918 181.485 222.384 183.036 223.473 184.278C224.561 185.519 226.117 186.45 227.983 187.382C229.849 188.313 231.871 189.244 233.737 191.106C234.67 192.037 235.292 193.279 235.448 194.675C235.759 196.072 235.448 197.469 234.826 198.71C233.737 201.193 232.026 202.9 230.627 204.607C229.227 206.314 228.138 208.021 227.516 209.883C226.428 213.608 226.894 217.332 228.138 219.97C229.227 222.764 230.938 224.626 232.182 225.712C232.493 226.023 232.804 226.178 233.115 226.488C233.426 226.643 233.582 226.799 233.737 226.954C234.048 227.264 234.204 227.419 234.204 227.575C234.204 227.575 233.893 227.575 233.426 227.419C233.271 227.264 232.96 227.264 232.649 227.109C232.338 226.954 232.026 226.799 231.56 226.488C230.005 225.557 227.983 223.695 226.583 220.746C225.028 217.798 224.25 213.763 225.495 209.418C226.117 207.245 227.361 205.228 228.916 203.366C230.316 201.659 231.871 199.796 232.804 197.934C233.737 196.072 233.426 194.055 232.026 192.658C230.782 191.261 228.761 190.33 226.894 189.244C225.028 188.158 223.317 187.071 221.918 185.519C220.673 183.968 220.051 181.95 220.051 180.243C220.051 176.829 221.14 174.501 221.918 172.794C222.851 171.242 223.473 170.466 223.473 170.466Z" fill="#2E266F"/>
<path d="M251.934 167.364C252.09 167.519 251.468 168.295 250.534 169.691C249.601 171.088 248.202 173.261 247.58 176.209C247.268 177.606 247.424 179.158 248.046 180.709C248.668 182.106 250.068 183.503 251.623 184.899C253.178 186.296 254.889 187.693 256.133 190.021C256.755 191.107 257.066 192.659 256.911 194.055C256.755 195.452 255.978 196.693 255.2 197.78C253.489 199.797 251.468 201.039 249.601 202.435C247.735 203.677 246.335 205.073 245.247 206.625C243.069 209.884 242.603 213.609 243.069 216.557C243.38 219.506 244.625 221.678 245.558 223.23C245.713 223.54 246.024 223.851 246.18 224.161C246.335 224.472 246.491 224.627 246.646 224.782C246.957 225.092 247.113 225.403 246.957 225.403C246.957 225.403 246.646 225.403 246.335 225.092C246.18 224.937 245.869 224.782 245.558 224.627C245.247 224.316 245.091 224.161 244.78 223.696C243.536 222.299 241.981 220.126 241.514 216.868C240.892 213.609 241.203 209.419 243.536 205.694C244.625 203.832 246.491 202.125 248.357 200.728C250.223 199.332 252.09 198.09 253.489 196.383C254.889 194.831 255.2 192.814 254.267 191.107C253.334 189.4 251.779 188.003 250.223 186.606C248.668 185.21 247.268 183.658 246.335 181.641C245.558 179.778 245.558 177.606 246.024 176.054C246.957 172.795 248.668 170.778 249.757 169.381C251.001 167.984 251.779 167.364 251.934 167.364Z" fill="#2E266F"/>
<path d="M39.3359 222.915L25.6499 237.813V315.56H57.3764V237.813L39.3359 222.915Z" fill="#FF8C32"/>
<path d="M39.3364 219.346V222.915L51.9337 237.813V315.56H80.8609V237.813L68.4191 222.915V219.346H39.3364Z" fill="#FFC32E"/>
<path d="M52.2531 238.591C61.1178 238.746 69.9826 238.436 78.8474 238.591C79.625 238.591 79.625 237.35 78.8474 237.35C69.9826 237.195 61.1178 237.505 52.2531 237.35C51.3199 237.35 51.3199 238.591 52.2531 238.591Z" fill="#FF8C32"/>
<path d="M41.6638 223.846C50.062 223.846 58.6157 223.846 67.0139 223.846C67.7915 223.846 67.7915 222.605 67.0139 222.605C58.6157 222.605 50.062 222.605 41.6638 222.605C40.8862 222.605 40.8862 223.846 41.6638 223.846Z" fill="#FF8C32"/>
<path d="M101.703 286.385C102.169 281.885 100.303 277.54 96.4148 274.746C94.8596 273.66 92.8378 272.729 90.505 272.108C80.7071 269.936 76.0414 275.833 75.4193 276.764C74.7972 277.695 69.354 282.816 71.5313 292.127C73.5531 301.438 79.4629 303.301 83.351 303.611C87.239 303.921 95.1707 303.921 98.4366 298.8C100.303 295.541 101.236 290.11 101.703 286.385Z" fill="#F05034"/>
<path d="M88.1712 274.28C88.9488 274.435 89.7264 274.901 90.3485 275.211C91.1261 273.349 92.0592 271.487 93.4589 269.935C93.4589 269.78 93.6144 269.625 93.77 269.469C93.9255 269.469 93.9255 269.314 94.081 269.314C94.8586 268.849 95.6362 269.78 95.1697 270.556C94.081 272.418 93.1479 274.125 92.3703 276.142H92.5258C92.5258 275.987 92.6813 275.987 92.8368 275.987C92.9923 275.832 93.3034 275.677 93.4589 275.832C93.9255 275.987 93.9255 276.297 93.9255 276.763C93.9255 277.073 93.9255 277.384 93.6144 277.539C92.8368 277.849 92.0592 277.849 91.2816 277.694C90.9706 277.849 90.504 277.849 90.0374 277.384C89.8819 277.229 89.8819 277.229 89.7264 277.073C88.7932 276.453 88.0156 275.677 87.7046 274.746C87.7046 274.435 87.8601 274.28 88.1712 274.28Z" fill="#515C43"/>
<path d="M129.694 274.593C126.739 271.179 122.229 269.627 117.563 270.558C115.697 270.869 113.675 271.645 111.653 273.197C103.255 278.938 104.499 286.232 104.81 287.474C105.121 288.56 105.121 296.009 113.364 300.82C121.607 305.63 126.894 302.682 129.849 300.044C132.804 297.405 138.092 291.664 136.692 285.767C135.448 281.732 132.027 277.231 129.694 274.593Z" fill="#FC9F28"/>
<path d="M111.496 276.144C112.118 275.678 112.895 275.523 113.673 275.213C112.74 273.351 112.118 271.333 111.962 269.471C111.807 269.316 111.807 269.161 111.807 269.005C111.807 268.85 111.807 268.85 111.962 268.695C112.118 267.764 113.362 267.919 113.517 268.695C114.14 270.712 114.917 272.575 115.695 274.437L115.85 274.282C115.85 274.127 115.85 274.127 115.85 273.971C115.85 273.661 116.006 273.506 116.161 273.351C116.628 273.195 116.783 273.351 117.25 273.661C117.561 273.816 117.717 274.127 117.561 274.437C117.25 275.213 116.783 275.834 116.161 276.299C116.006 276.609 115.695 276.92 115.228 276.92C115.073 276.92 114.917 276.92 114.762 276.92C113.673 277.23 112.584 277.23 111.651 276.765C111.34 276.609 111.34 276.299 111.496 276.144Z" fill="#707C5F"/>
<path d="M52.5594 315.56H121.456C131.409 315.56 139.341 307.49 139.341 297.714H34.6743C34.6743 307.49 42.7615 315.56 52.5594 315.56Z" fill="#2E266F"/>
<path d="M388.166 301.129C388.322 300.819 388.322 300.664 388.477 300.353C388.633 299.888 388.788 299.267 388.788 298.801C388.788 298.181 388.944 297.56 388.944 296.939C388.944 296.629 388.944 296.318 388.944 296.008C388.944 295.853 388.944 295.543 388.944 295.387C388.788 295.387 388.633 295.543 388.322 295.698C388.166 295.853 388.011 295.853 387.855 296.008C387.7 296.008 387.7 296.163 387.544 296.163C387.544 296.008 387.7 295.698 387.7 295.543C388.166 294.767 388.477 293.991 388.788 293.215C389.099 292.594 389.255 291.818 389.41 291.042C389.41 290.577 389.566 290.266 389.566 289.801C389.566 289.335 389.721 288.87 389.877 288.404C390.188 286.697 390.188 284.835 389.566 283.283C389.41 282.817 389.255 282.507 389.099 282.041C388.944 281.731 388.788 281.421 388.477 281.11C388.011 280.49 387.7 279.869 387.233 279.248C387.077 279.093 386.766 278.938 386.455 278.938C386.3 278.472 386.3 278.007 386.144 277.386C385.989 276.92 385.833 276.455 385.522 275.989C385.211 275.368 384.9 275.058 384.434 274.593C384.278 274.282 384.123 274.127 383.811 273.817C383.656 273.506 383.345 273.196 383.189 273.041C382.256 272.11 381.323 271.334 380.234 270.713C379.923 270.558 379.457 270.247 379.146 270.092C378.99 269.937 378.835 269.782 378.679 269.782C378.524 269.782 378.524 269.937 378.524 270.092C378.368 270.558 378.368 271.023 378.368 271.334C378.368 271.644 378.368 271.799 378.213 271.954C378.057 271.334 377.746 270.713 377.591 270.092C377.28 269.471 376.968 268.695 376.502 268.075C376.191 267.764 375.88 267.299 375.413 267.144L375.102 266.988C374.947 266.988 374.947 267.144 374.791 267.144C374.636 267.299 374.325 267.454 374.169 267.609C374.014 267.764 373.858 267.92 373.703 268.23C373.703 267.92 373.702 267.609 373.547 267.299C373.547 266.988 373.547 266.833 373.391 266.523C373.236 266.368 373.236 266.057 373.08 265.902C373.08 265.747 372.925 265.592 372.769 265.592C372.614 265.592 372.614 265.592 372.458 265.592C372.147 265.592 371.992 265.747 371.681 265.747C371.37 265.902 370.903 266.057 370.592 266.213C369.97 266.523 369.503 266.833 368.881 266.988C368.57 267.144 368.104 267.299 367.793 267.454C367.637 267.609 367.326 267.609 367.171 267.764C367.326 267.454 367.326 266.988 367.326 266.678C367.326 266.523 367.326 265.902 367.171 265.902C367.015 265.902 366.86 265.902 366.86 265.902C366.548 265.902 366.393 266.057 366.082 266.057C365.46 266.213 364.682 266.368 364.06 266.678C363.438 266.833 362.971 267.144 362.505 267.609C361.883 267.92 361.416 268.385 360.95 268.851C360.328 269.316 359.705 269.937 359.239 270.558C359.083 270.713 359.083 270.713 358.928 270.868C358.772 270.868 358.461 271.023 358.306 271.023C357.839 271.178 357.528 271.334 357.062 271.489C356.906 271.644 356.751 271.799 356.44 271.954C356.128 272.11 355.973 272.265 355.662 272.42C355.351 272.575 355.195 272.73 355.04 272.885C354.729 273.041 354.418 273.351 354.107 273.661C353.796 273.972 353.485 274.282 353.174 274.593C352.863 274.903 352.707 275.058 352.396 275.368C352.24 275.524 352.085 275.679 351.929 275.989C351.618 276.3 351.463 276.61 351.307 277.075C351.307 277.075 351.307 277.231 351.152 277.231V277.075C351.152 276.92 350.996 276.92 350.996 276.765C350.841 276.61 350.53 276.144 350.374 276.144C350.219 276.144 350.063 276.3 350.063 276.455C349.908 276.61 349.752 276.765 349.597 276.92C349.441 277.231 349.13 277.541 348.819 278.007C348.508 278.317 348.352 278.783 348.197 279.093C347.73 279.869 347.108 280.49 346.953 281.265C346.797 282.197 346.486 282.973 346.331 283.904C346.02 284.99 346.02 285.921 346.02 287.007C346.02 287.783 346.175 288.404 346.175 289.18C346.175 289.18 346.175 289.18 346.02 289.025C345.864 288.87 345.708 288.714 345.553 288.559L345.397 288.404C345.242 288.404 345.242 288.559 345.242 288.559C345.086 289.025 344.931 289.645 344.775 290.266C344.62 291.042 344.62 291.818 344.775 292.594C344.775 293.06 344.931 293.68 344.931 294.146C344.931 294.611 344.931 294.922 345.086 295.387C345.242 295.853 345.397 296.318 345.553 296.784C345.708 296.939 345.708 297.094 345.864 297.25C345.864 297.405 345.864 297.715 345.708 297.87C345.708 298.025 345.553 298.336 345.553 298.491C345.553 298.957 345.553 299.422 345.553 300.043C345.553 300.664 345.708 301.129 345.864 301.75C346.02 302.215 346.331 302.526 346.486 302.991C346.642 303.457 346.953 303.767 347.264 304.233C347.419 304.543 347.575 304.854 347.886 305.009C348.197 305.164 348.508 305.63 348.663 305.94C348.974 306.405 349.441 306.561 349.908 306.871C350.685 307.337 351.463 307.802 352.24 307.957C352.551 308.113 352.863 308.268 353.018 308.578C353.174 308.888 353.329 309.199 353.485 309.354C353.64 309.509 353.64 309.664 353.796 309.82C353.796 309.975 353.951 309.975 353.951 310.13C353.951 310.44 354.107 310.751 354.107 311.061C354.107 311.371 353.951 311.682 353.951 312.147C353.796 312.458 353.796 312.768 353.64 313.234C353.485 313.544 351.618 318.975 352.862 320.682C353.951 322.39 357.839 322.7 359.55 322.855C362.349 323.165 363.127 322.234 364.06 319.751C364.682 318.355 364.838 316.648 365.615 315.406C366.237 314.165 367.015 314.01 367.948 313.389C368.104 313.389 368.259 313.389 368.415 313.544C368.726 313.544 368.881 313.699 369.192 313.699C369.348 313.699 369.659 313.699 369.814 313.699C370.281 313.699 370.748 313.544 371.059 313.544C371.525 313.544 371.992 313.389 372.458 313.234C372.769 313.234 372.925 313.078 373.236 313.078C373.391 313.078 373.702 312.923 373.858 312.768C374.325 312.613 374.791 312.458 375.258 312.147C375.569 311.992 375.724 311.992 376.035 311.682C376.191 311.527 376.346 311.371 376.502 311.216C376.813 310.906 377.124 310.595 377.28 310.285C377.435 310.13 377.591 309.82 377.746 309.664C377.902 309.509 378.057 309.354 378.213 309.044C378.524 308.733 378.835 308.268 378.99 307.957C379.146 307.957 379.301 307.957 379.301 307.957C379.768 307.802 380.079 307.802 380.545 307.647C381.168 307.492 381.79 307.337 382.256 307.026C382.567 306.871 382.723 306.871 383.034 306.716C383.345 306.561 383.5 306.405 383.656 306.25C384.122 305.94 384.589 305.63 385.056 305.164C385.367 304.854 385.833 304.388 386.144 304.078C386.455 303.612 386.766 303.302 387.077 302.836C387.388 302.371 387.7 301.905 387.855 301.44C387.855 301.595 388.011 301.44 388.166 301.129Z" fill="#2FB97E"/>
<path d="M379.302 308.266C379.302 308.266 379.458 305.317 378.68 304.697C378.68 304.697 373.859 303.145 368.571 309.197C368.415 309.352 368.104 309.197 368.104 309.042C368.571 306.714 369.349 300.817 366.705 298.179C366.705 298.179 362.039 299.731 358.307 304.541C357.995 304.852 357.529 304.697 357.373 304.231C357.218 301.283 356.751 294.61 353.796 293.834C353.796 293.834 350.686 298.179 349.753 301.438C349.753 301.593 349.442 301.593 349.442 301.438C348.82 300.196 346.953 296.782 345.243 297.558" stroke="#269F6B" stroke-width="0.8077" stroke-miterlimit="10" stroke-linecap="round"/>
<path d="M344.929 288.87C344.929 288.87 350.372 289.181 352.083 296.629C352.083 296.629 351.928 287.318 360.481 284.059C360.481 284.059 365.614 291.353 362.814 300.044" stroke="#269F6B" stroke-width="0.8077" stroke-miterlimit="10" stroke-linecap="round"/>
<path d="M363.591 296.784C363.591 296.784 368.724 290.111 375.878 290.111C375.878 290.111 379.921 298.957 374.789 304.699" stroke="#269F6B" stroke-width="0.8077" stroke-miterlimit="10" stroke-linecap="round"/>
<path d="M388.944 296.008C388.944 296.008 382.257 294.456 375.414 304.078" stroke="#269F6B" stroke-width="0.8077" stroke-miterlimit="10" stroke-linecap="round"/>
<path d="M349.909 276.456C349.909 276.456 355.819 282.664 354.264 288.25" stroke="#269F6B" stroke-width="0.8077" stroke-miterlimit="10" stroke-linecap="round"/>
<path d="M358.771 271.179C358.771 271.179 364.059 279.404 361.415 285.301" stroke="#269F6B" stroke-width="0.8077" stroke-miterlimit="10" stroke-linecap="round"/>
<path d="M389.877 288.249C389.877 288.249 386.767 289.49 383.19 296.629C383.19 296.629 387.078 286.697 385.989 283.904C385.989 283.904 378.369 283.748 372.459 290.577C372.459 290.577 378.68 280.955 372.77 272.73C372.77 272.73 364.683 275.679 361.261 285.455" stroke="#269F6B" stroke-width="0.8077" stroke-miterlimit="10" stroke-linecap="round"/>
<path d="M367.014 266.213C367.014 266.213 367.947 270.093 361.881 278.163" stroke="#269F6B" stroke-width="0.8077" stroke-miterlimit="10" stroke-linecap="round"/>
<path d="M372.927 266.058C372.927 266.058 374.638 268.231 371.061 273.507" stroke="#269F6B" stroke-width="0.8077" stroke-miterlimit="10" stroke-linecap="round"/>
<path d="M386.452 278.937C386.452 278.937 382.72 279.403 378.676 285.455" stroke="#269F6B" stroke-width="0.8077" stroke-miterlimit="10" stroke-linecap="round"/>
<path d="M375.104 276.765L379.614 272.73C379.614 272.73 382.103 274.592 382.103 280.8" stroke="#269F6B" stroke-width="0.8077" stroke-miterlimit="10" stroke-linecap="round"/>
<path d="M378.525 270.093C378.525 270.093 377.747 271.8 377.903 273.817" stroke="#269F6B" stroke-width="0.8077" stroke-miterlimit="10" stroke-linecap="round"/>
<path d="M349.758 315.561H381.796C389.105 315.561 395.17 309.664 395.17 302.216V297.87H336.539V302.216C336.383 309.664 342.448 315.561 349.758 315.561Z" fill="#2E266F"/>
<path d="M405.904 314.631H7.92236V324.407H405.904V314.631Z" fill="#FFC850"/>
<path d="M131.252 260.937C131.407 263.264 131.719 265.282 132.185 267.144C135.762 280.8 154.58 283.594 161.89 271.334C163.756 268.23 164.534 264.506 164.845 260.937H131.252Z" fill="#F05034"/>
<path d="M135.61 237.661L159.871 237.816C159.871 237.816 169.514 258.456 161.893 271.336C154.584 283.596 135.921 280.802 132.188 267.146C130.478 260.939 130.789 251.472 135.61 237.661Z" stroke="#2E266F" stroke-width="0.9771" stroke-miterlimit="10"/>
<path d="M148.208 279.251V315.098" stroke="#2E266F" stroke-width="0.9771" stroke-miterlimit="10"/>
<path d="M138.099 315.098H158.784" stroke="#2E266F" stroke-width="0.9771" stroke-miterlimit="10"/>
</svg>
