<svg width="514" height="323" viewBox="0 0 514 323" fill="none" xmlns="http://www.w3.org/2000/svg">
<g opacity="0.5">
<path d="M418.751 216.856C412.396 221.538 404.201 226.555 404.034 235.084C404.034 237.927 405.038 240.77 406.208 243.446C413.734 262.343 423.099 280.571 427.781 300.639C428.952 305.991 429.955 311.509 430.29 317.028H17.5613C7.19294 306.994 -1.67035 293.281 2.00875 279.233C6.85848 260.503 30.6054 253.814 34.4517 234.75C38.2981 216.187 20.4043 199.966 19.9026 180.901C19.5681 168.693 26.9263 157.321 36.2913 150.799C45.6563 144.445 57.028 142.271 68.0653 141.267C83.1162 140.097 98.1671 140.933 112.883 143.943C129.607 147.288 146.33 153.308 163.22 151.134C169.91 150.298 176.599 147.956 181.783 143.441C188.807 137.421 192.82 128.056 195.663 118.858C203.523 93.2716 204.527 64.5077 217.571 41.7642C234.461 12.1642 268.911 -1.04714 300.35 2.63196C331.79 6.31106 360.387 24.3721 385.471 45.7778C409.887 66.6818 432.631 92.4355 442.163 125.046C451.695 157.489 444.337 197.792 418.751 216.856Z" fill="#FFE9CF"/>
</g>
<path d="M438.157 151.802C426.45 161 411.065 168.024 396.85 173.041C392.67 157.488 389.158 141.768 386.482 126.048C397.686 123.707 409.894 119.526 421.266 111.667C438.658 99.793 461.904 55.8111 467.757 44.4393C468.091 43.7704 468.426 43.2687 468.593 42.5997C468.593 42.5997 473.108 30.7263 473.777 28.8867C475.282 24.3715 477.122 13.1669 477.122 13.1669C477.122 13.1669 480.466 11.9963 480.968 19.689C481.47 27.2144 482.807 25.0404 482.807 25.0404C482.807 25.0404 496.52 4.47089 500.534 5.30705C502.039 5.64151 500.534 10.324 498.193 12.9997C495.852 15.6754 493.51 20.0234 493.51 20.0234C493.51 20.0234 506.889 5.30705 510.568 6.97936C510.568 6.97936 512.407 8.14999 508.059 12.498C502.206 18.5184 498.193 24.2042 498.193 24.2042C498.193 24.2042 511.739 12.3308 513.578 13.3342C516.588 14.8393 502.708 26.88 500.701 31.0608C500.701 31.0608 510.902 21.5285 511.404 24.2042C511.906 26.7127 500.367 36.9139 495.015 50.4596C494.681 51.7975 494.179 53.3026 493.51 54.9749C493.51 54.9749 479.463 119.526 438.157 151.802Z" fill="#FEBF9F"/>
<path d="M482.138 26.0441C483.81 27.3819 485.315 28.887 486.653 30.5593C487.322 31.3955 487.824 32.3989 488.493 33.235C488.994 34.2384 489.496 35.2418 489.663 36.5797L487.991 35.9107C488.827 35.2418 489.663 34.7401 490.667 34.4057C491.67 34.0712 492.673 33.904 493.677 34.0712C494.68 34.0712 495.683 34.4057 496.52 34.9074C497.356 35.409 498.192 35.9107 498.694 36.5797C497.858 36.2452 497.021 35.9107 496.185 35.7435C495.349 35.5763 494.513 35.5763 493.677 35.5763C492.841 35.5763 492.172 35.9107 491.335 36.2452C490.667 36.5797 489.83 37.0814 489.329 37.4158L487.991 38.7537L487.656 36.7469C487.489 35.9107 487.155 35.0746 486.82 34.0712C486.319 33.235 485.984 32.2316 485.482 31.3955C484.312 29.7232 483.141 28.0508 482.138 26.0441Z" fill="#2E266F"/>
<path d="M336.15 78.3872C336.15 88.5883 328.625 96.9499 319.427 96.9499C310.23 96.9499 302.704 88.5883 302.704 78.3872C302.704 68.1861 310.23 59.8245 319.427 59.8245C328.625 59.8245 336.15 68.1861 336.15 78.3872Z" fill="#2E266F"/>
<path d="M307.049 85.7457C307.049 85.7457 330.963 66.0123 315.745 23.0337C305.879 -5.06121 247.682 74.7084 307.049 85.7457Z" fill="#2E266F"/>
<path d="M247.509 37.2489C250.185 20.3584 266.908 -7.73651 296.842 9.48837C306.207 15.007 310.221 24.8737 312.06 35.2421C313.398 42.433 310.89 113.339 310.89 113.339C308.381 141.769 265.737 148.458 264.232 113.841L265.904 90.2614C244.331 83.2376 244.499 56.1461 247.509 37.2489Z" fill="#FEBF9F"/>
<path d="M265.909 90.0937C265.909 90.0937 278.117 94.1073 301.195 79.8926C301.195 79.8926 288.318 98.7898 264.905 106.65L265.909 90.0937Z" fill="#B06D6A"/>
<path d="M305.036 60.4945C305.036 67.3511 299.517 72.8697 292.661 72.8697C285.804 72.8697 280.286 67.3511 280.286 60.4945C280.286 53.638 285.804 48.1194 292.661 48.1194C299.517 48.1194 305.036 53.638 305.036 60.4945Z" fill="#FCB091"/>
<path d="M260.218 51.9654C260.218 45.1089 254.699 39.5902 247.842 39.5902C247.675 39.5902 247.341 39.5902 247.174 39.5902C246.17 47.2829 245.501 56.1462 246.839 64.3405C247.174 64.3405 247.508 64.3405 247.842 64.3405C254.699 64.3405 260.218 58.8219 260.218 51.9654Z" fill="#FCB091"/>
<path d="M325.776 45.6104C326.946 50.4601 323.936 55.4771 319.086 56.6477C314.237 57.8183 309.22 54.8081 308.049 49.9584C306.878 45.1087 309.889 40.0917 314.738 38.9211C319.588 37.7505 324.605 40.7607 325.776 45.6104Z" fill="#FEBF9F"/>
<path d="M312.562 50.2929C312.729 49.2895 313.064 48.4534 313.565 47.6172C314.067 46.781 314.903 46.1121 315.907 45.7777C316.91 45.4432 318.081 45.4432 319.084 45.9449C320.087 46.4466 320.589 47.2827 320.924 48.1189C319.92 47.7844 319.251 47.45 318.582 47.45C317.913 47.2827 317.245 47.45 316.576 47.6172C315.405 48.2861 314.234 49.2895 312.562 50.2929Z" fill="#2E266F"/>
<path d="M264.563 59.8256C265.734 60.3273 266.737 60.9962 267.574 61.3306C268.577 61.6651 269.413 61.9996 270.249 61.9996C271.086 61.9996 271.922 61.8323 272.758 61.3306C273.594 60.8289 274.597 60.3273 275.601 59.6583C275.434 60.8289 274.765 61.9996 273.928 63.003C273.092 63.8391 271.587 64.6753 270.249 64.508C268.744 64.508 267.406 63.8391 266.57 63.003C265.567 62.1668 264.898 60.9962 264.563 59.8256Z" fill="#2E266F"/>
<path d="M267.75 33.0682C268.085 34.0716 267.917 35.2423 267.583 36.2456C267.248 37.249 266.914 38.2524 266.245 39.2558C265.074 41.0954 263.736 42.7677 262.064 44.2728L261.897 42.9349C263.736 44.1055 265.409 45.4434 267.081 46.9485C264.907 46.2796 263.068 45.2762 261.061 44.2728L260.225 43.7711L260.894 42.9349C261.562 42.0988 262.231 41.4298 262.733 40.5937C263.402 39.7575 263.904 39.0886 264.573 38.2524C265.91 36.7473 267.081 35.075 267.75 33.0682Z" fill="#2E266F"/>
<path d="M277.783 35.9106C277.783 37.5829 277.783 39.088 277.951 40.5931C278.118 42.0982 278.787 43.4361 279.623 43.6033C280.292 43.9378 281.63 43.1016 282.633 42.0982C283.637 41.0948 284.64 39.757 285.643 38.4191C285.978 38.0846 286.312 37.9174 286.814 38.2519C287.148 38.4191 287.316 38.9208 287.148 39.2553C286.479 40.9276 285.643 42.4327 284.473 43.7705C283.804 44.4394 283.135 45.1084 282.299 45.6101C281.463 46.1118 280.125 46.4462 278.954 45.9445C277.783 45.6101 276.947 44.4394 276.613 43.6033C276.278 42.5999 276.111 41.7637 275.944 40.7603C275.777 38.9208 276.111 37.2485 276.613 35.5762C276.78 35.2417 277.115 35.0745 277.449 35.0745C277.616 35.2417 277.783 35.5762 277.783 35.9106Z" fill="#2E266F"/>
<path d="M252.362 32.9011C252.362 34.4062 252.362 35.9113 252.362 37.4164C252.362 38.0853 252.53 38.7542 252.697 39.4231C252.864 40.0921 253.199 40.2593 253.366 40.2593C253.533 40.2593 253.868 40.2593 254.369 39.7576C254.871 39.4231 255.373 38.7542 255.707 38.2525C256.543 37.0819 257.379 35.744 258.216 34.5734C258.383 34.239 258.885 34.0717 259.386 34.239C259.721 34.4062 259.888 34.7407 259.721 35.2423C259.219 36.7474 258.55 38.2525 257.714 39.7576C257.212 40.4265 256.711 41.0955 256.042 41.7644C255.707 42.0989 255.205 42.4333 254.704 42.6005C254.202 42.7678 253.366 42.935 252.697 42.7678C252.028 42.6005 251.526 42.0989 251.192 41.5972C250.857 41.0955 250.69 40.5938 250.523 40.0921C250.356 39.0887 250.188 38.2525 250.188 37.4164C250.188 35.744 250.523 34.239 251.025 32.5666C251.192 32.2322 251.526 32.0649 251.861 32.0649C252.195 32.3994 252.362 32.5666 252.362 32.9011Z" fill="#2E266F"/>
<path d="M288.648 29.2219C288.481 30.3925 286.641 31.0614 284.467 30.727C282.293 30.3925 280.788 29.2219 280.956 28.0513C281.123 26.8806 282.962 26.2117 285.136 26.5462C287.143 26.8806 288.815 28.0513 288.648 29.2219Z" fill="#2E266F"/>
<path d="M259.383 24.8739C259.718 26.0445 258.547 27.5496 256.54 28.2185C254.534 28.8874 252.527 28.553 252.192 27.3823C251.858 26.2117 253.029 24.7066 255.035 24.0377C257.042 23.3688 259.049 23.7032 259.383 24.8739Z" fill="#2E266F"/>
<path d="M254.037 19.6894C254.037 19.6894 272.265 23.703 296.848 9.48828C296.848 9.48828 287.985 57.3166 311.899 40.0917C311.899 40.0917 315.244 37.5832 318.756 38.5866L319.759 38.9211C319.759 38.9211 319.258 10.9934 299.19 3.96963C278.955 -2.71965 264.907 0.457756 254.037 19.6894Z" fill="#2E266F"/>
<path d="M132.121 158.325L141.318 130.063L162.39 137.254L161.386 161.669L132.121 158.325Z" fill="#FEBF9F"/>
<path d="M462.074 52.1323C462.074 52.1323 436.655 103.64 414.748 113.841C393.008 124.042 336.483 108.657 321.098 109.326L311.231 109.158C307.552 115.012 294.341 118.858 284.641 118.022C270.928 116.684 266.246 110.998 264.908 106.148L248.018 104.81C239.656 104.141 225.776 105.647 212.899 119.192C208.049 124.376 184.971 150.966 158.214 185.751L164.903 162.004L128.447 157.488C99.5156 212.842 112.225 255.653 129.45 255.653C159.217 255.653 205.875 211.337 231.462 184.413L237.816 253.814L336.483 257.159L327.787 174.044C341.835 175.884 413.577 184.078 438.662 168.693C466.422 151.468 491.34 77.2171 491.34 77.2171L462.074 52.1323Z" fill="#FFA037"/>
<path d="M150.353 211.17C149.684 211.002 152.025 199.965 156.039 186.921C160.052 173.71 164.233 163.341 164.902 163.509C165.571 163.676 162.393 174.379 158.38 187.59C154.366 200.634 151.022 211.337 150.353 211.17Z" fill="#FF8C32"/>
<path d="M158.05 107.319C159.722 105.479 164.906 99.9607 164.906 97.4522C164.906 93.1042 157.548 100.964 154.371 104.476C155.708 105.479 157.046 106.483 158.05 107.319Z" fill="#F69B77"/>
<path d="M126.943 71.5316C127.947 69.1903 130.957 68.6886 132.796 70.5282C140.824 79.057 158.55 100.295 167.581 114.845C180.29 135.414 188.819 148.793 188.819 148.793L226.112 180.901C226.112 180.901 210.392 189.597 196.345 177.055C185.809 167.523 180.792 150.799 180.792 150.799C180.792 150.799 148.349 92.6028 127.947 75.7123C126.609 74.709 126.274 72.8694 126.943 71.5316Z" fill="#5F462E"/>
<path d="M141.662 144.779C139.321 135.581 139.154 120.697 139.154 115.179C138.987 110.329 142.164 108.155 144.338 106.984C152.867 102.135 170.092 98.6228 170.761 100.964C171.262 102.971 156.379 107.821 156.379 107.821C156.379 107.821 174.941 104.81 171.262 108.991C169.256 111.165 158.887 112.169 158.887 112.169C158.887 112.169 170.259 113.339 169.256 115.012C167.75 118.022 158.385 117.52 158.385 117.52C158.385 117.52 162.901 121.366 164.239 130.731C165.242 137.588 151.027 151.468 151.027 151.468L141.662 144.779Z" fill="#FEBF9F"/>
<path d="M149.524 119.36C149.357 119.026 151.364 118.022 154.04 117.855C155.377 117.688 156.548 117.855 157.217 117.688C157.886 117.688 158.22 117.353 158.388 117.521C158.555 117.521 158.555 117.688 158.388 118.022C158.22 118.357 157.886 118.691 157.384 118.858C156.548 119.193 155.377 119.36 154.04 119.527C151.698 119.695 149.692 119.862 149.524 119.36Z" fill="#2E266F"/>
<path d="M241.185 167.265L236.3 224.661L207.145 277.935H345.291L326.974 228.935L320.257 163.907L241.185 167.265Z" fill="#FCFAF1"/>
<path d="M241.185 167.265L236.3 224.661L207.145 277.935H345.291L326.974 228.935L320.257 163.907L241.185 167.265Z" fill="white"/>
<path d="M264.298 194.237C264.277 194.26 264.256 194.284 264.234 194.313C263.47 194.333 262.705 194.347 261.941 194.389C261.687 194.404 261.634 194.32 261.632 194.08C261.59 192.49 261.531 190.895 261.478 189.305C261.466 188.941 261.466 188.941 261.826 188.929C266.34 188.778 270.854 188.628 275.369 188.477C275.562 188.47 275.756 188.458 275.95 188.458C276.083 188.459 276.137 188.411 276.121 188.275C276.114 187.87 276.111 187.46 276.097 187.055C276.042 185.403 275.993 183.756 275.927 182.104C275.92 181.893 275.967 181.829 276.178 181.822C279.02 181.733 281.856 181.644 284.697 181.538C284.93 181.53 284.965 181.609 284.972 181.819C285.032 183.774 285.097 185.722 285.162 187.677C285.166 187.774 285.18 187.864 285.188 187.961C285.165 188.247 285.377 188.137 285.494 188.133C290.108 187.985 294.722 187.831 299.336 187.677C299.491 187.672 299.646 187.661 299.806 187.65C299.829 187.672 299.846 187.689 299.869 187.711C299.929 189.494 299.983 191.278 300.042 193.061C300.032 193.079 300.021 193.096 300.011 193.119C299.23 193.145 298.443 193.16 297.662 193.198C297.441 193.211 297.383 193.138 297.376 192.916C297.363 192.215 297.323 191.515 297.317 190.813C297.313 190.54 297.239 190.474 296.967 190.483C286.21 190.836 275.454 191.195 264.697 191.554C264.597 191.557 264.492 191.566 264.392 191.564C264.253 191.557 264.194 191.605 264.199 191.759C264.238 192.584 264.265 193.411 264.298 194.237ZM280.486 183.15C279.567 183.18 278.642 183.217 277.722 183.236C277.523 183.243 277.43 183.28 277.438 183.525C277.5 185.063 277.552 186.596 277.592 188.135C277.599 188.351 277.662 188.406 277.867 188.394C279.728 188.326 281.589 188.264 283.45 188.207C283.66 188.2 283.708 188.13 283.701 187.925C283.644 186.387 283.593 184.854 283.547 183.316C283.54 183.105 283.483 183.044 283.272 183.051C282.348 183.093 281.417 183.119 280.486 183.15Z" fill="#7D5EE9"/>
<path d="M265.213 223.781C265.236 223.803 265.265 223.825 265.288 223.847C265.308 224.634 265.346 225.42 265.35 226.207C265.353 226.458 265.421 226.518 265.665 226.51C272.467 226.277 279.274 226.05 286.076 225.823C290.103 225.689 294.135 225.549 298.162 225.426C298.412 225.417 298.47 225.347 298.456 225.096C298.416 224.379 298.408 223.655 298.373 222.937C298.367 222.766 298.387 222.674 298.586 222.673C299.323 222.66 300.06 222.63 300.796 222.6C300.968 222.594 301.02 222.649 301.025 222.82C301.032 223.351 301.055 223.88 301.079 224.416C301.124 225.612 301.164 226.803 301.209 227.999C301.204 228.016 301.199 228.028 301.194 228.045C301.083 228.049 300.973 228.058 300.862 228.062C288.394 228.478 275.931 228.894 263.463 229.31C263.258 229.317 263.058 229.329 262.854 229.336C262.831 229.32 262.813 229.297 262.791 229.281C262.793 229.178 262.795 229.075 262.791 228.967C262.738 227.383 262.697 225.805 262.622 224.221C262.606 223.92 262.699 223.86 262.965 223.862C263.724 223.854 264.466 223.812 265.213 223.781Z" fill="#7D5EE9"/>
<path d="M293.001 193.759C293.136 193.161 293.272 192.569 293.407 191.971C294.183 191.945 294.953 191.92 295.728 191.894C295.88 196.452 296.038 201.016 296.19 205.574C296.206 206.047 296.205 206.52 296.243 206.998C296.262 207.237 296.18 207.28 295.97 207.287C295.388 207.295 294.806 207.308 294.231 207.345C293.993 207.358 293.913 207.298 293.91 207.042C293.867 205.429 293.808 203.817 293.754 202.204C293.752 202.136 293.75 202.073 293.742 202.005C293.734 201.92 293.682 201.876 293.604 201.844C293.497 201.802 293.483 201.9 293.435 201.947C293.371 202.012 293.374 202.103 293.354 202.183C292.96 203.828 292.56 205.473 292.177 207.122C292.129 207.335 292.043 207.418 291.826 207.414C291.494 207.408 291.161 207.424 290.829 207.447C290.658 207.458 290.578 207.398 290.534 207.234C290.483 207.036 290.404 206.839 290.337 206.642L290.337 206.636C290.325 206.619 290.313 206.603 290.301 206.58C290.161 206.02 289.96 205.479 289.764 204.944C289.758 204.921 289.746 204.899 289.74 204.882C289.709 204.786 289.678 204.69 289.642 204.595C289.647 204.577 289.641 204.56 289.629 204.549C289.453 203.928 289.255 203.313 289.024 202.704C289.018 202.682 289.006 202.654 289 202.631C288.938 202.433 288.881 202.236 288.808 202.038C288.789 201.976 288.737 201.921 288.66 201.924C288.582 201.926 288.563 202.001 288.537 202.059C288.486 202.186 288.507 202.322 288.511 202.453C288.564 204.049 288.612 205.638 288.676 207.228C288.684 207.45 288.631 207.526 288.409 207.528C287.854 207.529 287.301 207.559 286.752 207.577C286.298 207.592 286.36 207.619 286.345 207.174C286.185 202.377 286.025 197.579 285.865 192.782C285.846 192.218 285.846 192.206 286.389 192.2C286.999 192.191 287.601 192.114 288.213 192.173C288.436 193.05 288.731 193.907 288.998 194.771C289.19 195.38 289.339 196.003 289.586 196.594C289.628 196.86 289.703 197.114 289.816 197.356C289.823 197.39 289.824 197.424 289.831 197.464L289.831 197.458C290.185 198.61 290.545 199.767 290.9 200.919C290.962 201.128 291.067 201.261 291.3 201.105C291.482 201.065 291.459 200.889 291.488 200.768C291.6 200.308 291.696 199.849 291.792 199.389C291.979 198.51 292.16 197.637 292.347 196.758C292.352 196.735 292.362 196.706 292.367 196.683C292.454 196.298 292.541 195.913 292.628 195.528C292.637 195.482 292.641 195.431 292.651 195.385C292.76 194.845 292.88 194.299 293.001 193.759Z" fill="#7D5EE9"/>
<path d="M277.019 218.881C277.153 219.59 277.232 220.3 277.207 221.026C277.167 221.991 276.964 222.899 276.313 223.645C275.794 224.239 275.117 224.541 274.38 224.719C274.292 224.739 274.204 224.771 274.116 224.796C274.083 224.798 274.044 224.805 274.011 224.806C273.922 224.803 273.834 224.8 273.758 224.86C272.063 224.916 270.368 224.967 268.679 225.035C268.402 225.044 268.328 224.978 268.318 224.693C268.191 220.545 268.047 216.397 267.908 212.249C267.904 212.118 267.899 211.982 267.879 211.851C267.85 211.664 267.767 211.513 267.582 211.439L267.588 211.444C267.512 211.35 267.407 211.359 267.308 211.362C266.892 211.376 266.483 211.396 266.067 211.41C266.034 211.399 266 211.383 265.966 211.373C265.941 210.627 265.916 209.88 265.891 209.134C265.98 209.119 266.073 209.105 266.162 209.102C268.228 209.033 270.294 208.97 272.355 208.901C273.385 208.867 274.401 208.913 275.359 209.371C275.86 209.754 276.258 210.22 276.468 210.846C276.677 211.478 276.771 212.13 276.837 212.784C276.85 213.155 276.857 213.525 276.869 213.89C276.871 214.129 276.834 214.359 276.787 214.594C276.569 215.697 276.059 216.552 274.951 216.897C274.901 216.91 274.829 216.907 274.832 216.987C274.835 217.083 274.912 217.075 274.973 217.079C275.595 217.104 276.103 217.378 276.529 217.837C276.729 218.167 276.89 218.515 277.019 218.881ZM273.902 218.541C273.704 218.41 273.485 218.349 273.252 218.334C273.229 218.329 273.207 218.33 273.185 218.325C273.162 218.314 273.134 218.292 273.112 218.293C272.328 218.234 271.548 218.288 270.767 218.326C270.568 218.338 270.512 218.471 270.518 218.659C270.563 219.861 270.598 221.064 270.638 222.266C270.646 222.499 270.754 222.581 270.97 222.568C271.28 222.547 271.596 222.553 271.911 222.531C272.36 222.505 272.816 222.541 273.255 222.429C273.371 222.414 273.493 222.41 273.609 222.383C274.274 222.224 274.553 221.93 274.629 221.231C274.684 220.699 274.666 220.158 274.581 219.624C274.546 219.386 274.472 219.166 274.343 218.965C274.237 218.775 274.104 218.625 273.908 218.54L273.902 218.541ZM272.487 215.85C272.842 215.861 273.183 215.775 273.512 215.662C273.956 215.504 274.234 215.187 274.34 214.716C274.505 213.997 274.502 213.267 274.39 212.546C274.263 211.735 273.97 211.431 273.178 211.298C272.302 211.144 271.412 211.231 270.532 211.266C270.46 211.269 270.389 211.3 270.341 211.37C270.254 211.43 270.28 211.526 270.282 211.605C270.328 212.967 270.374 214.335 270.413 215.697C270.42 215.896 270.506 215.967 270.683 215.961C271.292 215.924 271.891 215.95 272.487 215.85Z" fill="#7D5EE9"/>
<path d="M266.486 208.242C266.476 208.117 266.467 207.997 266.462 207.872C266.3 203 266.137 198.129 265.969 193.258C265.96 192.967 266.029 192.879 266.312 192.881C266.872 192.885 267.437 192.861 267.996 192.831C268.211 192.818 268.325 192.888 268.415 193.09C269.702 195.939 270.994 198.777 272.287 201.626C272.293 201.637 272.293 201.643 272.299 201.654C272.347 201.749 272.369 201.908 272.506 201.881C272.661 201.853 272.589 201.695 272.586 201.593C272.555 200.504 272.518 199.411 272.482 198.322C272.422 196.533 272.362 194.738 272.303 192.949C272.3 192.858 272.28 192.762 272.327 192.669C273.074 192.644 273.828 192.619 274.581 192.588C274.634 192.695 274.633 192.809 274.636 192.923C274.8 197.84 274.964 202.751 275.123 207.669C275.126 207.765 275.118 207.857 275.116 207.954C274.423 207.977 273.731 208 273.038 208.018C272.933 208.021 272.812 208.059 272.742 207.931C272.065 206.447 271.389 204.964 270.713 203.481C270.073 202.082 269.428 200.689 268.782 199.29C268.74 199.194 268.718 199.024 268.586 199.051C268.448 199.079 268.509 199.242 268.512 199.345C268.605 202.285 268.703 205.219 268.801 208.159C268.026 208.191 267.256 208.216 266.486 208.242Z" fill="#7D5EE9"/>
<path d="M278.155 219.78C278.139 219.461 278.156 219.141 278.073 218.83C278.037 217.405 277.951 215.982 277.959 214.556C277.987 213.739 278.004 212.928 278.121 212.12C278.238 211.312 278.406 210.519 278.837 209.809C279.31 209.029 280.022 208.6 280.87 208.418C282.026 208.168 283.19 208.147 284.357 208.376C285.361 208.576 286.009 209.205 286.368 210.168C286.424 210.326 286.566 210.447 286.545 210.63C286.686 211.218 286.784 211.82 286.882 212.421C287.032 214.11 287.128 215.807 287.151 217.5C287.174 219.034 287.203 220.573 286.927 222.088C286.81 222.736 286.614 223.353 286.188 223.869C285.687 224.479 285.002 224.713 284.273 224.823C283.241 224.977 282.2 225.018 281.159 224.881C279.711 224.69 278.953 223.752 278.591 222.383C278.522 222.129 278.469 221.868 278.405 221.614C278.323 221.006 278.242 220.393 278.155 219.78ZM280.561 218.764C280.597 219.664 280.704 220.556 280.999 221.413C281.201 222 281.58 222.375 282.203 222.428C282.531 222.451 282.863 222.44 283.194 222.406C283.858 222.344 284.256 221.977 284.434 221.338C284.628 220.653 284.671 219.95 284.68 219.242C284.747 218.419 284.703 217.599 284.681 216.778C284.65 215.673 284.63 214.567 284.493 213.471C284.465 212.793 284.366 212.134 284.117 211.504C283.941 211.053 283.617 210.796 283.133 210.749C282.716 210.712 282.306 210.731 281.891 210.768C281.283 210.817 280.884 211.155 280.704 211.749C280.429 212.654 280.399 213.59 280.42 214.53C280.376 214.868 280.393 215.21 280.404 215.546C280.445 216.617 280.42 217.696 280.561 218.764Z" fill="#7D5EE9"/>
<path d="M284.947 203.091C284.9 203.674 284.859 204.257 284.806 204.841C284.757 205.373 284.619 205.88 284.453 206.387C284.209 206.891 283.908 207.341 283.413 207.62C283.124 207.783 282.806 207.874 282.499 207.992C282.483 208.004 282.461 208.022 282.445 208.034C281.984 208.009 281.539 208.127 281.079 208.142C280.148 208.168 279.223 208.199 278.33 207.858C277.75 207.603 277.364 207.143 277.052 206.6C277.051 206.588 277.045 206.577 277.034 206.572C276.757 205.919 276.596 205.235 276.478 204.537C276.367 203.868 276.344 203.184 276.244 202.514C276.243 202.486 276.242 202.457 276.241 202.429C276.241 202.406 276.24 202.383 276.239 202.36C276.202 201.078 276.143 199.802 276.128 198.519C276.117 197.362 276.156 196.203 276.412 195.07C276.59 194.266 276.881 193.515 277.517 192.957C277.905 192.619 278.358 192.41 278.848 192.302C279.949 192.055 281.063 192.035 282.173 192.231C283.255 192.418 283.905 193.115 284.25 194.153C284.527 194.988 284.623 195.852 284.723 196.715C284.811 198.007 284.893 199.299 284.914 200.593C284.93 201.426 284.942 202.258 284.947 203.091ZM282.434 197.744C282.404 196.998 282.313 196.26 282.122 195.542C281.931 194.806 281.55 194.505 280.807 194.502C280.513 194.5 280.219 194.51 279.926 194.537C279.202 194.601 278.783 195.014 278.675 195.771C278.559 196.111 278.543 196.471 278.511 196.826C278.508 196.917 278.506 197.008 278.503 197.1C278.439 197.649 278.452 198.208 278.465 198.761C278.459 199.765 278.498 200.768 278.565 201.775C278.599 202.281 278.61 202.794 278.71 203.293C278.718 203.356 278.725 203.418 278.733 203.481C278.801 204.037 278.908 204.581 279.18 205.08C279.345 205.382 279.59 205.58 279.921 205.671C280.279 205.768 280.632 205.727 280.992 205.71C281.635 205.682 282.09 205.388 282.29 204.725C282.385 204.414 282.452 204.104 282.475 203.784C282.577 203.198 282.563 202.606 282.571 202.012C282.575 201.807 282.585 201.595 282.578 201.39C282.543 200.176 282.541 198.961 282.434 197.744Z" fill="#7D5EE9"/>
<path d="M288.169 224.39C288.178 224.002 288.384 223.682 288.511 223.335C288.998 221.99 289.503 220.655 290.001 219.315C290.243 218.731 290.467 218.142 290.663 217.542L290.663 217.537C290.674 217.536 290.685 217.53 290.685 217.519C290.695 217.484 290.699 217.455 290.709 217.421C290.832 217.109 290.96 216.791 291.082 216.479C291.133 216.34 291.134 216.197 291.074 216.063C290.811 215.478 290.542 214.894 290.278 214.315C289.894 213.432 289.51 212.555 289.114 211.673C288.659 210.644 288.203 209.622 287.731 208.599C287.659 208.442 287.652 208.391 287.84 208.384C288.533 208.367 289.225 208.344 289.912 208.315C290.089 208.309 290.147 208.399 290.213 208.539C290.603 209.41 291.003 210.275 291.398 211.141C291.53 211.45 291.657 211.765 291.8 212.068C291.938 212.36 292.009 212.683 292.239 212.926C292.446 212.971 292.44 212.783 292.48 212.673C292.929 211.494 293.372 210.305 293.815 209.121C293.84 209.051 293.882 208.981 293.896 208.907C293.991 208.248 294.385 208.086 294.98 208.135C295.447 208.171 295.922 208.126 296.387 208.094C296.636 208.074 296.638 208.159 296.562 208.362C296.119 209.534 295.687 210.712 295.249 211.891C294.771 213.173 294.298 214.455 293.808 215.732C293.696 216.026 293.699 216.277 293.836 216.569C294.415 217.816 294.973 219.075 295.542 220.334C295.578 220.407 295.624 220.48 295.665 220.547C295.961 221.267 296.262 221.987 296.624 222.677C296.822 223.143 297.015 223.61 297.214 224.077C296.477 224.102 295.74 224.126 295.009 224.151C294.893 224.155 294.766 224.182 294.695 224.047C294.288 223.148 293.881 222.243 293.468 221.344C293.217 220.788 292.96 220.232 292.697 219.676C292.65 219.581 292.628 219.422 292.506 219.42C292.356 219.414 292.356 219.591 292.315 219.695C291.786 221.098 291.261 222.502 290.742 223.905C290.722 223.963 290.713 224.032 290.699 224.095C290.632 224.263 290.506 224.312 290.335 224.312C289.614 224.331 288.889 224.366 288.169 224.39Z" fill="#7D5EE9"/>
<path d="M264.295 194.237C264.262 193.411 264.234 192.591 264.201 191.765C264.196 191.611 264.256 191.563 264.394 191.57C264.494 191.573 264.599 191.563 264.699 191.56C275.456 191.201 286.213 190.842 296.969 190.478C297.235 190.469 297.315 190.535 297.318 190.808C297.325 191.51 297.365 192.21 297.378 192.911C297.379 193.128 297.437 193.206 297.664 193.192C298.445 193.155 299.232 193.14 300.013 193.114C299.95 193.224 299.837 193.177 299.749 193.18C299.029 193.21 298.308 193.222 297.594 193.263C297.373 193.276 297.326 193.187 297.319 192.993C297.302 192.303 297.279 191.608 297.25 190.919C297.239 190.588 297.193 190.55 296.872 190.549C296.761 190.553 296.65 190.557 296.539 190.56C285.943 190.914 275.342 191.268 264.745 191.621C264.646 191.625 264.541 191.628 264.441 191.649C264.359 191.663 264.305 191.704 264.303 191.819C264.282 192.527 264.328 193.232 264.351 193.939C264.349 194.036 264.358 194.144 264.295 194.237Z" fill="#7D5EE9"/>
<path d="M262.857 229.337C263.062 229.324 263.261 229.317 263.466 229.311C275.935 228.895 288.398 228.479 300.866 228.063C300.977 228.059 301.087 228.055 301.198 228.046C301.125 228.174 301.001 228.115 300.901 228.119C288.593 228.529 276.291 228.94 263.983 229.35C263.706 229.36 263.43 229.369 263.153 229.378C263.053 229.381 262.948 229.402 262.857 229.337Z" fill="#7D5EE9"/>
<path d="M276.115 188.27C276.131 188.406 276.077 188.454 275.944 188.452C275.75 188.447 275.556 188.465 275.362 188.472C270.848 188.622 266.334 188.773 261.82 188.924C261.46 188.936 261.46 188.936 261.472 189.3C261.525 190.89 261.584 192.485 261.626 194.075C261.634 194.32 261.686 194.398 261.935 194.384C262.699 194.342 263.464 194.333 264.228 194.308C264.169 194.367 264.092 194.364 264.02 194.366C263.311 194.39 262.601 194.408 261.893 194.443C261.649 194.457 261.574 194.362 261.566 194.117C261.517 192.487 261.468 190.858 261.403 189.228C261.393 188.932 261.501 188.86 261.767 188.851C264.57 188.763 267.373 188.67 270.17 188.577C271.937 188.518 273.71 188.458 275.477 188.4C275.698 188.392 275.921 188.413 276.115 188.27Z" fill="#7D5EE9"/>
<path d="M299.798 187.645C299.643 187.656 299.488 187.667 299.328 187.672C294.714 187.826 290.1 187.98 285.485 188.129C285.369 188.132 285.156 188.242 285.18 187.956C285.334 188.065 285.505 188.065 285.683 188.059C290.263 187.906 294.844 187.754 299.419 187.601C299.547 187.602 299.684 187.564 299.798 187.645Z" fill="#7D5EE9"/>
<path d="M265.21 223.782C264.463 223.813 263.721 223.849 262.973 223.862C262.701 223.866 262.614 223.926 262.63 224.222C262.699 225.805 262.746 227.383 262.799 228.967C262.803 229.07 262.801 229.173 262.799 229.281C262.729 229.192 262.742 229.083 262.739 228.981C262.685 227.38 262.637 225.779 262.573 224.172C262.564 223.904 262.632 223.799 262.904 223.796C263.586 223.79 264.267 223.756 264.948 223.734C265.037 223.731 265.13 223.71 265.21 223.782Z" fill="#7D5EE9"/>
<path d="M300.039 193.056C299.979 191.272 299.925 189.489 299.866 187.705C299.941 187.806 299.923 187.92 299.927 188.034C299.979 189.601 300.031 191.162 300.083 192.729C300.087 192.837 300.113 192.956 300.039 193.056Z" fill="#7D5EE9"/>
<path d="M288.172 224.391C288.898 224.366 289.617 224.331 290.343 224.312C290.52 224.306 290.641 224.262 290.707 224.095C290.724 224.248 290.683 224.358 290.511 224.364C289.763 224.389 289.016 224.408 288.268 224.427C288.24 224.434 288.206 224.406 288.172 224.391Z" fill="#7D5EE9"/>
<path d="M294.711 224.047C294.782 224.187 294.909 224.154 295.025 224.15C295.762 224.126 296.498 224.101 297.23 224.077C297.176 224.141 297.104 224.149 297.032 224.152C296.34 224.175 295.642 224.204 294.95 224.221C294.839 224.219 294.685 224.253 294.711 224.047Z" fill="#7D5EE9"/>
<path d="M266.483 208.242C267.253 208.216 268.023 208.191 268.793 208.165C268.74 208.229 268.668 208.232 268.59 208.234C267.953 208.256 267.322 208.277 266.685 208.298C266.613 208.3 266.541 208.308 266.483 208.242Z" fill="#7D5EE9"/>
<path d="M290.686 217.513C290.687 217.524 290.676 217.531 290.665 217.531C290.676 217.525 290.681 217.519 290.686 217.513Z" fill="#7D5EE9"/>
<path d="M280.486 183.149C281.416 183.118 282.347 183.093 283.277 183.051C283.488 183.044 283.545 183.104 283.552 183.315C283.598 184.854 283.649 186.386 283.706 187.925C283.713 188.135 283.665 188.2 283.455 188.207C281.594 188.263 279.732 188.325 277.872 188.393C277.667 188.4 277.604 188.345 277.597 188.134C277.551 186.596 277.505 185.063 277.443 183.525C277.435 183.285 277.522 183.243 277.727 183.236C278.641 183.211 279.561 183.18 280.486 183.149ZM280.516 183.217C279.624 183.247 278.727 183.282 277.835 183.301C277.591 183.309 277.493 183.375 277.508 183.648C277.567 185.078 277.615 186.514 277.657 187.944C277.666 188.223 277.742 188.329 278.03 188.319C279.763 188.25 281.497 188.198 283.231 188.14C283.585 188.128 283.649 188.058 283.637 187.693C283.59 186.28 283.537 184.867 283.501 183.454C283.492 183.186 283.396 183.115 283.152 183.123C282.266 183.164 281.391 183.188 280.516 183.217Z" fill="#7D5EE9"/>
<path d="M273.188 218.325C272.479 218.349 271.77 218.373 271.061 218.396C270.645 218.41 270.581 218.481 270.595 218.908C270.629 219.922 270.663 220.937 270.702 221.951C270.716 222.361 270.865 222.493 271.275 222.479C271.934 222.463 272.599 222.446 273.258 222.436C272.813 222.547 272.363 222.511 271.914 222.538C271.604 222.554 271.288 222.553 270.973 222.575C270.757 222.588 270.643 222.506 270.641 222.272C270.607 221.07 270.566 219.867 270.521 218.665C270.514 218.477 270.571 218.339 270.77 218.332C271.551 218.294 272.331 218.24 273.115 218.299C273.142 218.298 273.165 218.315 273.188 218.325Z" fill="#7D5EE9"/>
<path d="M270.35 211.364C270.395 212.714 270.434 214.071 270.485 215.421C270.5 215.865 270.546 215.915 270.972 215.901C271.477 215.89 271.986 215.867 272.49 215.85C271.895 215.95 271.295 215.924 270.697 215.95C270.52 215.962 270.434 215.89 270.427 215.685C270.387 214.323 270.336 212.956 270.296 211.594C270.288 211.52 270.268 211.424 270.35 211.364Z" fill="#7D5EE9"/>
<path d="M276.838 212.79C276.917 213.158 276.946 213.528 276.869 213.896C276.857 213.525 276.85 213.155 276.838 212.79Z" fill="#7D5EE9"/>
<path d="M274.013 224.806C273.937 224.86 273.848 224.868 273.759 224.86C273.835 224.8 273.924 224.809 274.013 224.806Z" fill="#7D5EE9"/>
<path d="M284.677 219.236C284.613 217.311 284.549 215.39 284.485 213.465C284.621 214.561 284.647 215.667 284.673 216.772C284.7 217.593 284.75 218.418 284.677 219.236Z" fill="#7D5EE9"/>
<path d="M280.416 214.524C280.463 215.937 280.511 217.35 280.558 218.763C280.422 217.695 280.442 216.617 280.4 215.546C280.389 215.204 280.372 214.862 280.416 214.524Z" fill="#7D5EE9"/>
<path d="M276.251 202.514C276.222 202.486 276.221 202.458 276.248 202.429C276.249 202.457 276.25 202.485 276.251 202.514Z" fill="#7D5EE9"/>
<path d="M243.776 170.165C243.318 170.012 243.776 166.654 244.692 161.311C245.608 155.969 246.829 148.489 249.271 140.246C251.561 132.155 255.072 124.981 258.583 120.554C261.941 116.127 265.147 114.296 265.299 114.601C265.605 115.059 263.162 117.349 260.262 121.775C257.362 126.202 254.309 133.071 252.172 141.009C249.882 149.099 248.355 156.427 246.829 161.769C245.302 166.959 244.234 170.318 243.776 170.165Z" fill="white"/>
<path d="M317.207 168.486C316.749 168.181 318.276 165.433 318.734 160.701C319.039 158.259 318.886 155.359 318.581 152.153C318.276 148.947 317.665 145.284 316.902 141.62C315.528 134.14 313.696 127.576 311.712 123.15C309.728 118.57 307.896 116.128 308.354 115.823C308.659 115.517 311.101 117.654 313.696 122.234C316.291 126.661 318.581 133.53 319.955 141.162C320.718 144.978 321.176 148.642 321.481 152C321.634 155.359 321.481 158.564 321.024 161.159C320.566 163.754 319.65 165.739 318.886 166.96C317.971 168.028 317.36 168.486 317.207 168.486Z" fill="white"/>
<path d="M406.22 138.257C405.551 138.257 405.05 133.073 402.374 127.22C399.698 121.534 396.019 117.688 396.521 117.186C396.688 117.019 398.026 117.52 399.531 119.193C401.203 120.698 403.043 123.206 404.548 126.216C406.053 129.394 406.555 132.404 406.722 134.578C406.889 136.919 406.555 138.257 406.22 138.257Z" fill="#FF8C32"/>
<path d="M417.924 127.219C417.422 127.721 414.077 124.711 409.395 122.035C404.712 119.192 400.531 117.687 400.699 117.018C400.866 116.349 405.548 116.851 410.565 119.861C415.582 122.871 418.425 126.718 417.924 127.219Z" fill="#FF8C32"/>
<path d="M339.65 259.333C339.817 259.166 341.155 260.337 343.496 262.344C345.837 264.35 349.516 267.026 354.533 269.535C357.042 270.705 359.885 271.876 362.728 271.207C364.065 270.872 365.236 270.036 366.072 268.866C366.741 267.695 366.741 266.357 366.072 265.354C365.236 264.35 363.731 263.514 361.891 263.012C360.219 262.511 358.045 262.344 356.038 262.009C352.025 261.675 347.677 261.507 343.329 261.842V258.497C346.506 258.664 349.851 258.664 353.195 258.664C355.704 258.664 358.212 258.497 360.554 258.163C362.895 257.996 365.403 257.661 367.577 257.159C369.751 256.658 371.758 255.989 373.096 254.651C374.434 253.48 375.103 251.641 374.935 249.968C374.768 248.296 373.932 247.293 372.26 246.791C371.424 246.624 370.587 246.457 369.584 246.457C368.581 246.457 367.745 246.289 366.741 246.457C363.062 246.457 359.55 247.125 356.373 248.129C350.185 250.136 345.837 253.146 342.994 255.32C340.151 257.661 338.813 259.166 338.646 258.999C338.479 258.832 339.482 256.992 342.158 254.316C344.834 251.641 349.182 248.129 355.704 245.788C358.881 244.617 362.56 243.781 366.741 243.614C367.745 243.614 368.748 243.614 369.919 243.614C370.922 243.614 372.093 243.781 373.263 243.948C374.434 244.283 375.772 244.784 376.775 245.955C377.778 246.958 378.28 248.463 378.447 249.801C378.615 252.477 377.611 255.32 375.604 257.159C373.598 258.999 371.089 260.002 368.581 260.504C366.072 261.006 363.731 261.34 361.222 261.507C358.714 261.675 356.206 262.009 353.697 262.009C350.185 262.176 346.841 262.009 343.496 261.842V258.497C348.011 258.163 352.526 258.163 356.874 258.664C359.048 258.999 361.055 259.166 363.229 259.835C365.236 260.504 367.41 261.34 368.915 263.514C369.584 264.518 370.086 265.855 369.919 267.026C369.919 268.364 369.417 269.367 368.748 270.371C367.577 272.21 365.57 273.381 363.564 273.883C361.557 274.217 359.717 274.05 358.212 273.548C356.54 273.046 355.202 272.377 353.864 271.709C348.847 268.866 345.335 265.688 342.994 263.514C340.318 261.006 339.482 259.501 339.65 259.333Z" fill="#2E266F"/>
<path d="M237.639 249.299L230.114 312.011H377.111L336.306 252.644L237.639 249.299Z" fill="#2E266F"/>
<path d="M237.638 249.299L336.639 252.477L340.485 259.668L301.52 260.337L320.919 312.011H230.112L237.638 249.299Z" fill="#2E266F"/>
<path d="M438.658 312.178H10.7119V322.714H438.658V312.178Z" fill="#FFC850"/>
<path d="M317.75 301.476H142.324V312.68H317.75V301.476Z" fill="#FF922C"/>
<path d="M218.915 91.2332C218.915 91.2332 218.748 91.7349 218.079 92.7383C217.744 93.24 217.41 93.7417 217.075 94.4106C216.741 95.0796 216.239 95.9157 215.737 96.7519C213.898 100.264 211.389 105.615 210.386 112.806C209.383 119.83 209.717 128.693 213.229 137.389C214.901 141.737 217.577 145.918 220.922 149.932C224.266 153.778 228.28 157.792 230.788 163.143C233.297 168.327 234.467 174.013 233.798 179.532C233.464 182.207 232.628 184.883 231.123 187.224C229.618 189.566 227.444 191.238 225.27 192.408C223.096 193.579 220.754 194.415 218.748 195.419C216.741 196.255 214.734 197.258 212.894 198.429C209.215 200.603 206.205 203.111 203.697 205.62C201.188 208.128 199.349 210.804 198.68 213.48C198.011 216.155 198.512 218.497 199.516 220.169C200.519 221.841 201.857 222.677 202.693 223.179C203.697 223.514 204.198 223.681 204.198 223.681C204.198 223.681 203.529 223.848 202.526 223.514C201.523 223.179 199.85 222.343 198.68 220.503C197.509 218.831 196.673 215.988 197.342 212.978C198.011 209.968 200.018 206.958 202.526 204.282C205.035 201.606 208.212 198.931 211.891 196.589C213.731 195.419 215.737 194.415 217.911 193.412C220.085 192.408 222.259 191.572 224.266 190.402C226.273 189.231 228.113 187.893 229.283 185.886C230.454 183.88 231.29 181.538 231.457 179.03C231.959 174.013 230.955 168.829 228.614 163.979C226.273 159.129 222.427 155.283 219.082 151.269C215.57 147.256 212.894 142.573 211.222 138.058C207.71 128.86 207.543 119.663 208.714 112.304C210.051 104.946 212.727 99.4276 214.901 96.0829C215.403 95.2468 215.905 94.4106 216.406 93.7417C216.908 93.0728 217.242 92.5711 217.744 92.2366C218.413 91.5677 218.748 91.066 218.915 91.2332Z" fill="#2E266F"/>
<path d="M159.054 242.778C159.388 242.443 161.061 246.457 163.569 253.313L164.071 254.818L162.399 254.484C157.382 253.648 151.361 251.975 145.006 249.132C143.167 248.296 140.993 247.126 139.822 245.119C139.321 244.115 138.986 242.778 139.153 241.607C139.321 240.436 140.157 239.266 140.993 238.764C141.996 238.095 143 237.928 144.003 237.928H144.672H145.341C145.675 237.928 146.177 237.928 146.512 238.095C148.184 238.262 149.689 238.597 151.027 239.098C153.535 240.102 155.542 240.938 156.88 241.607C158.385 242.276 159.054 242.778 159.054 242.778C158.887 242.945 158.051 242.778 156.713 242.443C155.208 241.941 153.201 241.44 150.692 240.771C149.355 240.436 148.184 240.102 146.679 240.102C146.344 240.102 145.843 240.102 145.508 240.102H144.839H144.338C143.669 240.102 143 240.269 142.498 240.771C141.495 241.44 141.16 242.945 141.996 244.115C142.665 245.453 144.338 246.289 146.01 247.126C152.197 249.801 158.051 251.641 162.733 252.811L161.73 253.982C159.723 247.46 158.719 243.112 159.054 242.778Z" fill="#2E266F"/>
<path d="M274.276 242.777C274.61 243.112 273.44 247.46 271.6 253.815L270.597 252.644C275.279 251.474 281.133 249.634 287.32 246.958C287.822 246.791 288.156 246.624 288.658 246.289C288.992 246.122 289.494 245.788 289.829 245.62C290.497 245.119 291.166 244.617 291.501 243.948C292.337 242.61 292.003 241.272 290.999 240.603C289.996 239.767 288.491 239.935 286.986 240.102C285.481 240.269 284.143 240.603 282.805 240.938C277.621 242.109 274.443 243.112 274.276 242.777C274.109 242.443 277.119 240.938 282.136 239.266C283.474 238.931 284.812 238.429 286.484 238.095C287.32 237.928 287.989 237.76 289.16 237.76C290.163 237.76 291.166 238.095 292.17 238.764C293.173 239.433 293.842 240.436 294.009 241.607C294.177 242.777 294.009 244.115 293.34 245.119C292.17 247.125 289.996 248.296 288.156 249.132C281.801 251.808 275.781 253.648 270.764 254.484L269.092 254.818L269.593 253.313C272.269 246.457 274.109 242.61 274.276 242.777Z" fill="#2E266F"/>
<path d="M255.378 301.476H179.789C168.417 301.476 159.387 292.278 159.387 281.074V231.908H275.947V281.074C275.78 292.445 266.75 301.476 255.378 301.476Z" fill="#7E5CEB"/>
<path d="M276.282 230.904H158.384V233.412H276.282V230.904Z" fill="#2E266F"/>
<path d="M105.03 203.812H56.8672V297.128H105.03V203.812Z" fill="#FFB23C"/>
<path opacity="0.6" d="M101.849 233.245H60.041V294.619H101.849V233.245Z" fill="#FFC850"/>
<path opacity="0.6" d="M62.5537 264.517L98.843 217.023" stroke="#FFC850" stroke-width="1.3009" stroke-miterlimit="10" stroke-linecap="round"/>
<path opacity="0.6" d="M62.7227 254.651L94.4967 212.006" stroke="#FFC850" stroke-width="1.3009" stroke-miterlimit="10" stroke-linecap="round"/>
<path d="M53.6945 226.222C53.6945 226.222 47.3397 213.512 44.9985 202.809C43.4934 196.622 37.1386 168.861 34.7973 172.206C32.4561 175.55 37.3058 191.437 39.4798 198.628C41.3194 204.481 47.5069 221.874 47.5069 221.874C47.5069 221.874 29.6131 186.755 24.2617 185.919C18.7431 185.25 28.108 198.628 29.9476 201.304C36.1352 210.502 40.1487 216.355 45.6674 223.379C45.6674 223.379 7.70576 186.42 3.69219 191.939C-0.321373 197.458 18.0741 205.15 26.7702 211.505C33.2922 216.355 47.5069 228.228 47.5069 228.228C47.5069 228.228 45.5002 224.884 38.1419 220.034C27.1046 212.843 7.87299 203.98 6.70236 207.659C5.19728 212.676 15.9001 214.515 25.0979 218.027C45.6674 225.887 48.0086 233.078 48.0086 233.078L53.6945 226.222Z" fill="#35CD8C"/>
<path d="M61.3911 226.556C61.3911 226.556 56.2069 219.198 47.5108 225.219C38.8148 231.406 44.3334 242.276 47.0091 245.286C49.6848 248.297 73.9335 273.381 77.1109 279.402C80.2883 285.589 91.1583 301.811 94.6702 300.473C98.1821 299.135 95.5064 294.954 94.0013 284.251C92.4962 273.549 87.6465 262.01 81.2917 254.15C74.9369 246.457 61.3911 226.556 61.3911 226.556Z" fill="#F97F23"/>
<path d="M64.9032 232.743C63.7326 232.911 62.562 233.58 61.5586 234.249C60.5552 234.917 59.5518 235.586 58.5484 236.255C56.7088 237.593 54.7021 238.764 52.528 239.098C51.8591 239.098 51.3574 239.6 51.3574 240.269C51.3574 240.771 51.8591 241.607 52.528 241.44C55.0365 241.105 57.3778 239.934 59.3846 238.597C60.3879 237.928 61.3913 237.259 62.3947 236.59C62.8964 236.255 63.3981 235.921 64.067 235.586C64.5687 235.252 65.2377 235.085 65.9066 234.583C66.5755 233.914 65.9066 232.576 64.9032 232.743Z" fill="#D55D1E"/>
<path d="M72.7609 243.447C72.2592 243.447 71.5903 243.781 71.0886 243.948C70.5869 244.116 70.2524 244.45 69.7507 244.784C68.9146 245.286 68.0784 245.788 67.2423 246.29C65.5699 247.293 63.7304 248.464 62.0581 249.467C60.7202 250.303 61.8908 252.31 63.2287 251.474C64.901 250.303 66.7406 249.3 68.4129 248.129C69.249 247.627 70.0852 247.126 70.9214 246.624C71.7575 246.122 73.0954 245.453 73.4298 244.45C73.7643 243.781 73.2626 243.447 72.7609 243.447Z" fill="#D55D1E"/>
<path d="M81.6257 256.156C79.9534 257.159 78.4483 258.33 76.776 259.333C75.9399 259.835 75.1037 260.336 74.4348 261.005C73.5986 261.507 72.7625 262.009 72.0935 262.845C71.0901 263.848 72.2608 265.186 73.4314 264.684C74.2675 264.35 74.9365 263.681 75.7726 263.179C76.6088 262.678 77.4449 262.009 78.2811 261.507C79.9534 260.336 81.4585 259.333 82.9636 257.995C83.7998 256.992 82.6291 255.487 81.6257 256.156Z" fill="#D55D1E"/>
<path d="M89.9893 272.043C89.1531 272.21 88.4842 272.712 87.8153 273.213C87.1463 273.548 86.6446 274.049 85.9757 274.384C85.474 274.718 84.8051 275.22 84.3034 275.555C83.6345 276.056 82.7983 276.391 82.1294 276.892C81.6277 277.227 81.7949 278.063 81.9622 278.397C82.2966 278.899 82.9655 278.899 83.4672 278.732C84.1362 278.397 84.8051 277.896 85.474 277.561C86.1429 277.227 86.6446 276.725 87.3136 276.391C87.8153 276.056 88.4842 275.555 88.9859 275.22C89.6548 274.718 90.491 274.217 90.9927 273.548C91.1599 273.213 91.1599 272.712 90.9927 272.544C90.6582 272.043 90.3237 271.875 89.9893 272.043Z" fill="#D55D1E"/>
<path d="M109.723 301.142C109.723 301.142 141.832 269.033 120.426 266.357C99.0203 263.682 88.3175 283.415 88.3175 283.415C88.3175 283.415 111.563 252.143 90.9932 248.631C70.4237 245.119 73.9356 304.988 73.9356 304.988L109.723 301.142Z" fill="#2FB97E"/>
<path d="M74.599 298.466C74.599 298.466 84.4657 240.436 60.3843 242.109C36.3029 243.948 43.3267 269.869 43.3267 269.869C43.3267 269.869 35.2995 235.085 20.0814 243.948C4.86333 252.811 27.2724 280.572 27.2724 280.572C27.2724 280.572 -3.1638 266.357 1.35146 278.732C5.86672 291.275 31.7877 304.653 31.7877 304.653L74.599 298.466Z" fill="#35CD8C"/>
<path d="M33.125 313.349H102.192C112.058 313.349 120.253 305.322 120.253 295.288H15.064C15.064 305.155 23.0911 313.349 33.125 313.349Z" fill="#7E5CEB"/>
<path d="M39.8164 298.966C39.8164 291.943 45.5023 278.23 52.3588 278.23C59.3825 278.23 64.9012 291.943 64.9012 298.966C64.9012 305.99 59.2153 311.509 52.3588 311.509C45.3351 311.509 39.8164 305.823 39.8164 298.966Z" fill="white"/>
<path d="M69.584 298.966C69.584 291.942 75.2699 278.229 82.1264 278.229C89.1501 278.229 94.6688 291.942 94.6688 298.966C94.6688 305.99 88.9829 311.508 82.1264 311.508C75.2699 311.508 69.584 305.823 69.584 298.966Z" fill="white"/>
<path d="M125.611 294.785H38.8178C36.6438 294.785 34.8042 296.625 34.8042 298.799C34.8042 300.137 34.8042 301.474 34.8042 302.812C34.8042 303.481 34.8042 304.15 34.8042 304.819C34.8042 306.157 36.4765 305.655 37.3127 305.655C38.4833 305.655 39.3195 306.491 39.6539 307.495C40.4901 310.839 43.333 313.181 46.8449 313.181H57.715C61.0596 313.181 64.0698 310.839 64.9059 307.495C65.2404 306.491 66.0766 305.655 67.2472 305.655H67.4144C68.585 305.655 69.4212 306.491 69.7557 307.495C70.5918 310.839 73.4348 313.181 76.9466 313.181H87.6495C90.9941 313.181 94.0043 310.839 94.8404 307.495C95.1749 306.491 96.0111 305.655 97.1817 305.655H97.3489C98.5195 305.655 99.3557 306.491 99.6902 307.495C100.526 310.839 103.369 313.181 106.881 313.181H117.584C120.929 313.181 123.939 310.839 124.775 307.495C125.109 306.491 125.946 305.655 127.116 305.655C127.785 305.655 128.621 305.655 129.123 305.655C129.457 305.655 129.625 305.655 129.625 305.321C129.625 304.652 129.625 303.147 129.625 302.311C129.625 301.14 129.625 299.802 129.625 298.631C129.457 296.625 127.785 294.785 125.611 294.785Z" fill="#AEAEAE"/>
<path d="M39.1491 303.481C67.913 302.812 96.8441 303.314 125.608 302.645C126.444 302.645 126.444 301.307 125.608 301.307C96.8441 301.976 67.913 301.475 39.1491 302.144C38.3129 302.144 38.3129 303.481 39.1491 303.481Z" fill="white"/>
</svg>
