<svg width="17" height="17" viewBox="0 0 17 17" fill="none" xmlns="http://www.w3.org/2000/svg">
<g id="Group">
<g id="Group_2">
<g id="Group_3">
<path id="Vector" d="M13.875 13.5H2.62795C2.42106 13.5 2.25333 13.6677 2.25294 13.8746L2.25147 14.9681C2.25111 15.3772 2.41002 15.7617 2.69897 16.051C2.98827 16.3407 3.37242 16.5 3.7815 16.5H12.72C13.5637 16.5 14.25 15.8137 14.25 14.97V13.875C14.25 13.6677 14.0823 13.5 13.875 13.5Z" fill="#2E266F"/>
<path id="Vector_2" d="M12.375 1.50001C12.1454 1.50001 11.9095 1.52308 11.6598 1.56959C10.8018 0.569075 9.57203 0 8.25002 0C5.76858 0 3.75001 2.01857 3.75001 4.5C3.75001 4.7069 3.58193 4.87502 3.375 4.87502C3.16811 4.87502 2.99999 4.70693 2.99999 4.5C2.99999 3.6881 3.18678 2.90257 3.55518 2.16542C3.62074 2.03432 3.60387 1.8772 3.51232 1.76295C3.42078 1.64943 3.27098 1.59887 3.12891 1.63368C1.28651 2.09327 0 3.73462 0 5.625C0 7.18359 0.878907 8.60046 2.25879 9.30101L2.25475 12.3746C2.25475 12.4739 2.29395 12.5695 2.36426 12.6401C2.43492 12.7104 2.53016 12.75 2.62976 12.75H13.875C14.0823 12.75 14.25 12.5823 14.25 12.375V9.29549C15.6248 8.59311 16.5 7.17842 16.5 5.62497C16.5 3.35046 14.6495 1.50001 12.375 1.50001ZM5.48804 10.415C5.41807 10.4722 5.33387 10.5 5.25038 10.5C5.14199 10.5 5.03431 10.4532 4.95999 10.363C4.8362 10.2118 3.75001 8.85977 3.75001 7.875C3.75001 7.66772 3.91775 7.49999 4.12503 7.49999C4.33231 7.49999 4.50004 7.66772 4.50004 7.875C4.50004 8.41775 5.13798 9.39699 5.54007 9.88696C5.67113 10.0474 5.64807 10.2836 5.48804 10.415ZM8.62499 10.125C8.62499 10.3323 8.45726 10.5 8.24998 10.5C8.0427 10.5 7.87501 10.3323 7.87501 10.125V7.875C7.87501 7.66772 8.04274 7.49999 8.25002 7.49999C8.4573 7.49999 8.62503 7.66772 8.62503 7.875V10.125H8.62499ZM11.54 10.363C11.4657 10.4532 11.3584 10.5 11.25 10.5C11.1662 10.5 11.0819 10.4722 11.0124 10.415C10.8523 10.2836 10.8289 10.0474 10.96 9.88735C11.3621 9.39625 12 8.41592 12 7.875C12 7.66772 12.1677 7.49999 12.375 7.49999C12.5823 7.49999 12.75 7.66772 12.75 7.875C12.75 8.85973 11.6638 10.2118 11.54 10.363Z" fill="#2E266F"/>
</g>
</g>
</g>
</svg>
