<svg width="121" height="120" viewBox="0 0 121 120" fill="none" xmlns="http://www.w3.org/2000/svg">
<g id="clipboard" clip-path="url(#clip0_292_3046)">
<g id="Vector" filter="url(#filter0_dd_292_3046)">
<path d="M92.4394 106.11C69.2919 106.11 53.3963 118.054 42.2425 118.054C31.0888 118.054 7.66357 111.667 7.66357 60.5569C7.66357 9.44694 39.1772 1.9436 51.4453 1.9436C108.894 1.9436 133.433 106.11 92.4394 106.11Z" fill="white"/>
</g>
<path id="Vector_2" d="M92.4458 10.8336H95.7923V17.5003H92.4458V10.8336Z" fill="#7E5CEB"/>
<path id="Vector_3" d="M99.9751 20.8333H106.668V24.1666H99.9751V20.8333Z" fill="#7E5CEB"/>
<path id="Vector_4" d="M29.2813 97.4996C25.6002 97.4996 22.5884 94.4996 22.5884 90.833V39.1663C22.5884 35.4996 25.6002 32.4996 29.2813 32.4996H71.112C74.7931 32.4996 77.8049 35.4996 77.8049 39.1663V90.833C77.8049 94.5163 74.8098 97.4996 71.112 97.4996H29.2813Z" fill="#ECE7FC"/>
<path id="Vector_5" d="M64.419 29.1667V35.8333C64.419 37.6733 62.9198 39.1667 61.0725 39.1667H39.3206C37.4733 39.1667 35.9741 37.6733 35.9741 35.8333V29.1667H43.5036C43.5036 25.5 46.5155 22.5 50.1966 22.5C53.8777 22.5 56.8895 25.5 56.8895 29.1667H64.419Z" fill="#7E5CEB"/>
<path id="Vector_6" d="M32.6274 49.1664H44.34V60.833H32.6274V49.1664Z" fill="#7E5CEB"/>
<path id="Vector_7" d="M32.6274 75.8339H44.34V87.5005H32.6274V75.8339Z" fill="#7E5CEB"/>
<path id="Vector_8" d="M78.6406 97.4995C89.2677 97.4995 97.8827 88.9183 97.8827 78.3328C97.8827 67.7473 89.2677 59.1661 78.6406 59.1661C68.0134 59.1661 59.3984 67.7473 59.3984 78.3328C59.3984 88.9183 68.0134 97.4995 78.6406 97.4995Z" fill="#7E5CEB"/>
<g id="Group">
<path id="Vector_9" d="M53.9616 23.6667C52.8874 22.9333 51.5923 22.5 50.1968 22.5C46.5157 22.5 43.5039 25.5 43.5039 29.1667H51.0334C51.0334 26.89 52.198 24.87 53.9616 23.6667Z" fill="#7E5CEB"/>
<path id="Vector_10" d="M43.5036 35.8328V29.1661H35.9741V35.8328C35.9741 37.6728 37.4733 39.1661 39.3206 39.1661H46.8501C45.0029 39.1661 43.5036 37.6728 43.5036 35.8328Z" fill="#7E5CEB"/>
<path id="Vector_11" d="M32.6274 49.1664H40.157V60.833H32.6274V49.1664Z" fill="#7E5CEB"/>
<path id="Vector_12" d="M32.6274 75.8339H40.157V87.5005H32.6274V75.8339Z" fill="#7E5CEB"/>
<path id="Vector_13" d="M66.928 78.3328C66.928 69.0328 73.5807 61.2828 82.4053 59.5395C81.1872 59.2995 79.929 59.1661 78.6406 59.1661C68.0122 59.1661 59.3984 67.7461 59.3984 78.3328C59.3984 88.9195 68.0122 97.4995 78.6406 97.4995C79.929 97.4995 81.1872 97.3695 82.4053 97.1261C73.5807 95.3828 66.928 87.6328 66.928 78.3328Z" fill="#7E5CEB"/>
</g>
<path id="Vector_14" d="M30.1179 90.833V39.1663C30.1179 35.4996 33.1297 32.4996 36.8108 32.4996H29.2813C25.6002 32.4996 22.5884 35.4996 22.5884 39.1663V90.833C22.5884 94.4996 25.6002 97.4996 29.2813 97.4996H36.8108C33.1297 97.4996 30.1179 94.4996 30.1179 90.833Z" fill="#D5DBE1"/>
<path id="Vector_15" d="M44.3406 63.3334H32.628C31.2426 63.3334 30.1182 62.2134 30.1182 60.8334V49.1667C30.1182 47.7867 31.2426 46.6667 32.628 46.6667H44.3406C45.726 46.6667 46.8504 47.7867 46.8504 49.1667V60.8334C46.8504 62.2134 45.726 63.3334 44.3406 63.3334ZM35.1378 58.3334H41.8308V51.6668H35.1378V58.3334Z" fill="#2E266F"/>
<path id="Vector_16" d="M44.3406 89.9999H32.628C31.2426 89.9999 30.1182 88.8799 30.1182 87.4999V75.8333C30.1182 74.4533 31.2426 73.3333 32.628 73.3333H44.3406C45.726 73.3333 46.8504 74.4533 46.8504 75.8333V87.4999C46.8504 88.8799 45.726 89.9999 44.3406 89.9999ZM35.1378 84.9999H41.8308V78.3333H35.1378V84.9999Z" fill="#2E266F"/>
<path id="Vector_17" d="M52.7065 48.3336H71.1121V53.3336H52.7065V48.3336Z" fill="#2E266F"/>
<path id="Vector_18" d="M78.6411 99.9997C66.6474 99.9997 56.8892 90.2797 56.8892 78.333C56.8892 66.3864 66.6474 56.6664 78.6411 56.6664C90.6348 56.6664 100.393 66.3864 100.393 78.333C100.393 90.2797 90.6348 99.9997 78.6411 99.9997ZM78.6411 61.6664C69.4149 61.6664 61.9088 69.143 61.9088 78.333C61.9088 87.523 69.4149 94.9997 78.6411 94.9997C87.8673 94.9997 95.3734 87.523 95.3734 78.333C95.3734 69.143 87.8673 61.6664 78.6411 61.6664Z" fill="#2E266F"/>
<path id="Vector_19" d="M75.2952 87.5C74.6326 87.5 73.99 87.2367 73.5215 86.7667L66.8286 80.1L70.3792 76.5633L75.178 81.34L85.1237 70.02L88.9019 73.31L77.1893 86.6433C76.7308 87.1633 76.0782 87.4733 75.3855 87.4967C75.352 87.5 75.3219 87.5 75.2952 87.5Z" fill="white"/>
<path id="Vector_20" d="M80.3154 49.2H75.2957V39.1667C75.2957 36.87 73.4183 35 71.1126 35H64.8213V30H71.1126C76.1892 30 80.3154 34.1133 80.3154 39.1667V49.2Z" fill="#2E266F"/>
<path id="Vector_21" d="M56.5894 100H29.2823C24.2058 100 20.0796 95.89 20.0796 90.8333V39.1667C20.0796 34.11 24.2058 30 29.2823 30H35.5737V35H29.2823C26.9766 35 25.0993 36.87 25.0993 39.1667V90.8333C25.0993 93.13 26.9766 95 29.2823 95H56.5894V100Z" fill="#2E266F"/>
<path id="Vector_22" d="M61.0731 41.667H39.3211C36.0918 41.667 33.4648 39.0504 33.4648 35.8337V29.167C33.4648 27.787 34.5893 26.667 35.9747 26.667H41.3424C42.44 22.8237 45.994 20.0004 50.1971 20.0004C54.4003 20.0004 57.9542 22.8237 59.0519 26.667H64.4196C65.805 26.667 66.9294 27.787 66.9294 29.167V35.8337C66.9294 39.0504 64.3025 41.667 61.0731 41.667ZM38.4845 31.667V35.8337C38.4845 36.2937 38.8593 36.667 39.3211 36.667H61.0731C61.5349 36.667 61.9097 36.2937 61.9097 35.8337V31.667H56.89C55.5046 31.667 54.3802 30.547 54.3802 29.167C54.3802 26.8704 52.5028 25.0004 50.1971 25.0004C47.8914 25.0004 46.0141 26.8704 46.0141 29.167C46.0141 30.547 44.8897 31.667 43.5042 31.667H38.4845Z" fill="#2E266F"/>
</g>
<defs>
<filter id="filter0_dd_292_3046" x="0.663574" y="-2.0564" width="119.146" height="130.11" filterUnits="userSpaceOnUse" color-interpolation-filters="sRGB">
<feFlood flood-opacity="0" result="BackgroundImageFix"/>
<feColorMatrix in="SourceAlpha" type="matrix" values="0 0 0 0 0 0 0 0 0 0 0 0 0 0 0 0 0 0 127 0" result="hardAlpha"/>
<feMorphology radius="1" operator="erode" in="SourceAlpha" result="effect1_dropShadow_292_3046"/>
<feOffset dy="3"/>
<feGaussianBlur stdDeviation="4"/>
<feColorMatrix type="matrix" values="0 0 0 0 0.196078 0 0 0 0 0.196078 0 0 0 0 0.278431 0 0 0 0.05 0"/>
<feBlend mode="normal" in2="BackgroundImageFix" result="effect1_dropShadow_292_3046"/>
<feColorMatrix in="SourceAlpha" type="matrix" values="0 0 0 0 0 0 0 0 0 0 0 0 0 0 0 0 0 0 127 0" result="hardAlpha"/>
<feOffset/>
<feGaussianBlur stdDeviation="0.5"/>
<feColorMatrix type="matrix" values="0 0 0 0 0.0470588 0 0 0 0 0.101961 0 0 0 0 0.294118 0 0 0 0.24 0"/>
<feBlend mode="normal" in2="effect1_dropShadow_292_3046" result="effect2_dropShadow_292_3046"/>
<feBlend mode="normal" in="SourceGraphic" in2="effect2_dropShadow_292_3046" result="shape"/>
</filter>
<clipPath id="clip0_292_3046">
<rect width="120.472" height="120" fill="white"/>
</clipPath>
</defs>
</svg>
