<svg width="120" height="120" viewBox="0 0 120 120" fill="none" xmlns="http://www.w3.org/2000/svg">
<g id="employees" clip-path="url(#clip0_292_3091)">
<g id="Vector" filter="url(#filter0_dd_292_3091)">
<path d="M116.347 67.8497C103.74 48.5463 105.08 28.7597 99.0035 19.4563C92.9268 10.153 74.8168 -5.88699 32.0268 22.063C-10.7632 50.013 0.120179 80.3963 6.80685 90.6263C38.1002 138.533 138.677 102.036 116.347 67.8497Z" fill="white"/>
</g>
<g id="Group">
<path id="Vector_2" d="M91.9878 102.923L96.7018 98.2086L99.0589 100.566L94.3448 105.28L91.9878 102.923Z" fill="#7E5CEB"/>
<path id="Vector_3" d="M105.541 89.3721L110.255 84.658L112.612 87.015L107.898 91.7291L105.541 89.3721Z" fill="#7E5CEB"/>
<path id="Vector_4" d="M105.538 101.102L107.895 98.745L112.609 103.459L110.252 105.816L105.538 101.102Z" fill="#7E5CEB"/>
<path id="Vector_5" d="M47.0894 17.7072C44.3327 17.7072 42.0894 15.4638 42.0894 12.7072C42.0894 9.95049 44.3327 7.70715 47.0894 7.70715C49.846 7.70715 52.0894 9.95049 52.0894 12.7072C52.0894 15.4638 49.846 17.7072 47.0894 17.7072ZM47.0894 11.0405C46.1694 11.0405 45.4227 11.7905 45.4227 12.7072C45.4227 13.6238 46.1694 14.3738 47.0894 14.3738C48.0094 14.3738 48.756 13.6238 48.756 12.7072C48.756 11.7905 48.0094 11.0405 47.0894 11.0405Z" fill="#7E5CEB"/>
</g>
<path id="Vector_6" d="M86.6667 74.1666C88.9679 74.1666 90.8333 72.3011 90.8333 69.9999C90.8333 67.6987 88.9679 65.8333 86.6667 65.8333C84.3655 65.8333 82.5 67.6987 82.5 69.9999C82.5 72.3011 84.3655 74.1666 86.6667 74.1666Z" fill="#ECE7FC"/>
<path id="Vector_7" d="M33.3337 74.1666C35.6348 74.1666 37.5003 72.3011 37.5003 69.9999C37.5003 67.6987 35.6348 65.8333 33.3337 65.8333C31.0325 65.8333 29.167 67.6987 29.167 69.9999C29.167 72.3011 31.0325 74.1666 33.3337 74.1666Z" fill="#ECE7FC"/>
<path id="Vector_8" d="M60 75.8339C64.1421 75.8339 67.5 72.476 67.5 68.3339C67.5 64.1917 64.1421 60.8339 60 60.8339C55.8579 60.8339 52.5 64.1917 52.5 68.3339C52.5 72.476 55.8579 75.8339 60 75.8339Z" fill="white"/>
<path id="Vector_9" d="M44.167 97.5003V92.5003C44.167 88.817 47.1503 85.8336 50.8337 85.8336H69.167C72.8503 85.8336 75.8337 88.817 75.8337 92.5003V97.5003H44.167Z" fill="#7E5CEB"/>
<path id="Vector_10" d="M60.043 45.97L51.303 50.8333L52.9397 40.5867L45.833 33.36L55.6163 31.8333L59.963 22.5L64.373 31.8033L74.1663 33.2633L67.1063 40.54L68.8163 50.7733L60.043 45.97Z" fill="#7E5CEB"/>
<path id="Vector_11" d="M83.4772 32.9703L86.8006 25.8336L90.1706 32.947L97.6606 34.0636L92.2639 39.6269L93.5706 47.4536L86.8606 43.7803L80.1772 47.5003L81.4306 39.6636L83.4772 32.9703Z" fill="#ECE7FC"/>
<path id="Vector_12" d="M36.5246 32.9703L33.2013 25.8336L29.8313 32.947L22.3413 34.0636L27.738 39.6269L26.4313 47.4536L33.1413 43.7803L39.8246 47.5003L38.5713 39.6636L36.5246 32.9703Z" fill="#ECE7FC"/>
<path id="Vector_13" d="M57.5003 85.8336H50.8337C47.1503 85.8336 44.167 88.817 44.167 92.5003V97.5003H50.8337V92.5003C50.8337 88.817 53.817 85.8336 57.5003 85.8336Z" fill="#7E5CEB"/>
<path id="Vector_14" d="M59.1667 68.3339C59.1667 65.3939 60.8733 62.8772 63.3333 61.6472C62.3267 61.1439 61.2033 60.8339 60 60.8339C55.8567 60.8339 52.5 64.1905 52.5 68.3339C52.5 72.4772 55.8567 75.8339 60 75.8339C61.2033 75.8339 62.3267 75.5239 63.3333 75.0205C60.8733 73.7905 59.1667 71.2705 59.1667 68.3339Z" fill="#ECE7FC"/>
<path id="Vector_15" d="M33.1413 43.7803L33.6646 44.0703L34.4046 39.6269L29.008 34.0636L36.498 32.947L36.5046 32.927L33.2013 25.8336L29.8313 32.947L22.3413 34.0636L27.738 39.6269L26.4313 47.4536L33.1413 43.7803Z" fill="#D5DBE1"/>
<path id="Vector_16" d="M36.4482 45.6206L39.8249 47.5006L39.2749 44.0706L36.4482 45.6206Z" fill="#D5DBE1"/>
<path id="Vector_17" d="M80.7272 44.0706L80.1772 47.5006L83.5539 45.6206L80.7272 44.0706Z" fill="#D5DBE1"/>
<path id="Vector_18" d="M97.6594 34.0636L90.1694 32.947L86.7994 25.8336L83.4961 32.927L83.5028 32.947L90.9928 34.0636L85.5961 39.6269L86.3361 44.0703L86.8594 43.7803L93.5694 47.4536L92.2628 39.6269L97.6594 34.0636Z" fill="#D5DBE1"/>
<path id="Vector_19" d="M58.6197 46.76L59.6063 40.5867L52.4997 33.36L62.283 31.8333L63.3263 29.5933L59.963 22.5L55.6163 31.8333L45.833 33.36L52.9397 40.5867L51.303 50.8333L58.6197 46.76Z" fill="#7E5CEB"/>
<path id="Vector_20" d="M66.711 45.9702L63.4043 47.8102L68.8176 50.7735L68.1443 46.7535L66.711 45.9702Z" fill="#7E5CEB"/>
<path id="Vector_21" d="M86.6662 76.667C82.9895 76.667 79.9995 73.677 79.9995 70.0003C79.9995 66.3236 82.9895 63.3336 86.6662 63.3336C90.3428 63.3336 93.3328 66.3236 93.3328 70.0003C93.3328 73.677 90.3428 76.667 86.6662 76.667ZM86.6662 68.3336C85.7462 68.3336 84.9995 69.0836 84.9995 70.0003C84.9995 70.917 85.7462 71.667 86.6662 71.667C87.5862 71.667 88.3328 70.917 88.3328 70.0003C88.3328 69.0836 87.5862 68.3336 86.6662 68.3336Z" fill="#2E266F"/>
<path id="Vector_22" d="M100 90.8337H95V89.167C95 86.8704 93.13 85.0004 90.8333 85.0004H82.5V80.0004H90.8333C95.89 80.0004 100 84.1104 100 89.167V90.8337Z" fill="#2E266F"/>
<path id="Vector_23" d="M33.3332 76.667C29.6565 76.667 26.6665 73.677 26.6665 70.0003C26.6665 66.3236 29.6565 63.3336 33.3332 63.3336C37.0098 63.3336 39.9998 66.3236 39.9998 70.0003C39.9998 73.677 37.0098 76.667 33.3332 76.667ZM33.3332 68.3336C32.4132 68.3336 31.6665 69.0836 31.6665 70.0003C31.6665 70.917 32.4132 71.667 33.3332 71.667C34.2532 71.667 34.9998 70.917 34.9998 70.0003C34.9998 69.0836 34.2532 68.3336 33.3332 68.3336Z" fill="#2E266F"/>
<path id="Vector_24" d="M24.9995 90.8337H19.9995V89.167C19.9995 84.1104 24.1095 80.0004 29.1662 80.0004H37.4995V85.0004H29.1662C26.8695 85.0004 24.9995 86.8704 24.9995 89.167V90.8337Z" fill="#2E266F"/>
<path id="Vector_25" d="M59.9995 78.3332C54.4862 78.3332 49.9995 73.8466 49.9995 68.3332C49.9995 62.8199 54.4862 58.3333 59.9995 58.3333C65.5129 58.3333 69.9995 62.8199 69.9995 68.3332C69.9995 73.8466 65.5129 78.3332 59.9995 78.3332ZM59.9995 63.3333C57.2428 63.3333 54.9995 65.5766 54.9995 68.3332C54.9995 71.0899 57.2428 73.3332 59.9995 73.3332C62.7562 73.3332 64.9995 71.0899 64.9995 68.3332C64.9995 65.5766 62.7562 63.3333 59.9995 63.3333Z" fill="#2E266F"/>
<path id="Vector_26" d="M78.3332 97.5005H73.3332V92.5005C73.3332 90.2039 71.4632 88.3339 69.1665 88.3339H50.8332C48.5365 88.3339 46.6665 90.2039 46.6665 92.5005V97.5005H41.6665V92.5005C41.6665 87.4439 45.7765 83.3339 50.8332 83.3339H69.1665C74.2232 83.3339 78.3332 87.4439 78.3332 92.5005V97.5005Z" fill="#2E266F"/>
<path id="Vector_27" d="M51.303 53.3337C50.7997 53.3337 50.2997 53.1804 49.8697 52.8804C49.0864 52.3337 48.683 51.3837 48.833 50.4404L50.273 41.4404L44.0497 35.117C43.393 34.447 43.163 33.467 43.4597 32.577C43.753 31.6837 44.5197 31.037 45.4464 30.8904L53.913 29.5704L57.6964 21.447C58.1064 20.567 58.983 20.0037 59.953 20.0004H59.9597C60.9264 20.0004 61.8064 20.557 62.2197 21.4304L66.0597 29.5304L74.533 30.7904C75.4597 30.9304 76.233 31.5737 76.533 32.4637C76.833 33.3504 76.613 34.3337 75.9597 35.007L69.7797 41.377L71.2797 50.367C71.4364 51.3104 71.043 52.2604 70.2597 52.8137C69.4797 53.3637 68.453 53.427 67.613 52.9704L60.0497 48.827L52.5164 53.0204C52.1397 53.2304 51.723 53.3337 51.303 53.3337ZM51.0297 35.077L54.723 38.8304C55.2797 39.397 55.5364 40.1937 55.4097 40.9804L54.583 46.147L58.823 43.787C59.5764 43.3704 60.4897 43.367 61.2397 43.777L65.4997 46.1104L64.6397 40.9504C64.5097 40.1704 64.7597 39.367 65.3097 38.797L68.9797 35.0137L64.003 34.2737C63.1764 34.1504 62.4697 33.6237 62.113 32.8704L59.983 28.3737L57.883 32.8837C57.533 33.6404 56.8264 34.1704 56.003 34.3004L51.0297 35.077Z" fill="#2E266F"/>
<path id="Vector_28" d="M80.1757 50.0005C79.6724 50.0005 79.1724 49.8472 78.7424 49.5472C77.9591 49.0005 77.5557 48.0505 77.7057 47.1072L78.9557 39.2705L83.8924 40.0572L83.4524 42.8105L85.6391 41.5939C86.3924 41.1772 87.3057 41.1739 88.0557 41.5839L90.2491 42.7872L89.7891 40.0372C89.6591 39.2572 89.9091 38.4539 90.4591 37.8839L92.4691 35.8139L89.7957 35.4172C88.9691 35.2939 88.2624 34.7672 87.9058 34.0139L86.8124 31.7105L85.7358 34.0205L81.2057 31.9105L84.5291 24.7739C84.9424 23.9005 85.8224 23.3372 86.7924 23.3339H86.7991C87.7658 23.3339 88.6458 23.8905 89.0591 24.7639L91.8591 30.6705L98.0291 31.5872C98.9558 31.7272 99.7291 32.3705 100.029 33.2605C100.329 34.1505 100.109 35.1305 99.4558 35.8039L94.9358 40.4605L96.0324 47.0439C96.1891 47.9872 95.7958 48.9372 95.0124 49.4905C94.2324 50.0405 93.2057 50.1039 92.3657 49.6472L86.8691 46.6339L81.3924 49.6839C81.0124 49.8972 80.5957 50.0005 80.1757 50.0005Z" fill="#2E266F"/>
<path id="Vector_29" d="M39.8232 50.0005C39.4065 50.0005 38.9865 49.8972 38.6065 49.6839L33.1299 46.6339L27.6332 49.6505C26.7899 50.1072 25.7632 50.0439 24.9865 49.4939C24.2065 48.9405 23.8099 47.9905 23.9665 47.0472L25.0632 40.4639L20.5432 35.8072C19.8899 35.1339 19.6699 34.1539 19.9699 33.2639C20.2699 32.3739 21.0432 31.7305 21.9699 31.5905L28.1399 30.6739L30.9399 24.7672C31.3532 23.8905 32.2332 23.3339 33.1999 23.3339H33.2065C34.1765 23.3372 35.0565 23.9005 35.4632 24.7805L38.7865 31.9172L34.2565 34.0272L33.1799 31.7139L32.0865 34.0172C31.7299 34.7705 31.0199 35.2972 30.1965 35.4205L27.5232 35.8172L29.5332 37.8872C30.0865 38.4572 30.3332 39.2572 30.2032 40.0405L29.7432 42.7905L31.9365 41.5872C32.6932 41.1739 33.6032 41.1772 34.3532 41.5972L36.5399 42.8139L36.0999 40.0605L41.0365 39.2739L42.2865 47.1105C42.4365 48.0539 42.0365 49.0039 41.2499 49.5505C40.8265 49.8472 40.3265 50.0005 39.8232 50.0005Z" fill="#2E266F"/>
</g>
<defs>
<filter id="filter0_dd_292_3091" x="-6.55176" y="2.36719" width="133.104" height="121.265" filterUnits="userSpaceOnUse" color-interpolation-filters="sRGB">
<feFlood flood-opacity="0" result="BackgroundImageFix"/>
<feColorMatrix in="SourceAlpha" type="matrix" values="0 0 0 0 0 0 0 0 0 0 0 0 0 0 0 0 0 0 127 0" result="hardAlpha"/>
<feMorphology radius="1" operator="erode" in="SourceAlpha" result="effect1_dropShadow_292_3091"/>
<feOffset dy="3"/>
<feGaussianBlur stdDeviation="4"/>
<feColorMatrix type="matrix" values="0 0 0 0 0.196078 0 0 0 0 0.196078 0 0 0 0 0.278431 0 0 0 0.05 0"/>
<feBlend mode="normal" in2="BackgroundImageFix" result="effect1_dropShadow_292_3091"/>
<feColorMatrix in="SourceAlpha" type="matrix" values="0 0 0 0 0 0 0 0 0 0 0 0 0 0 0 0 0 0 127 0" result="hardAlpha"/>
<feOffset/>
<feGaussianBlur stdDeviation="0.5"/>
<feColorMatrix type="matrix" values="0 0 0 0 0.0470588 0 0 0 0 0.101961 0 0 0 0 0.294118 0 0 0 0.24 0"/>
<feBlend mode="normal" in2="effect1_dropShadow_292_3091" result="effect2_dropShadow_292_3091"/>
<feBlend mode="normal" in="SourceGraphic" in2="effect2_dropShadow_292_3091" result="shape"/>
</filter>
<clipPath id="clip0_292_3091">
<rect width="120" height="120" fill="white"/>
</clipPath>
</defs>
</svg>
