<svg width="121" height="120" viewBox="0 0 121 120" fill="none" xmlns="http://www.w3.org/2000/svg">
<g id="tick-mark" clip-path="url(#clip0_292_3071)">
<g id="Vector" filter="url(#filter0_dd_292_3071)">
<path d="M28.0343 13.8902C51.1817 13.8902 67.0774 1.9469 78.2312 1.9469C89.3849 1.9469 112.81 8.33357 112.81 59.4436C112.81 110.554 81.2965 118.054 69.0284 118.054C11.5798 118.057 -12.9598 13.8902 28.0343 13.8902Z" fill="white"/>
</g>
<g id="Group">
<path id="Vector_2" d="M28.8623 97.9175H35.5552V101.251H28.8623V97.9175Z" fill="#7E5CEB"/>
<path id="Vector_3" d="M48.104 97.9175H54.7969V101.251H48.104V97.9175Z" fill="#7E5CEB"/>
<path id="Vector_4" d="M39.7388 106.25H43.0852V112.917H39.7388V106.25Z" fill="#7E5CEB"/>
<path id="Vector_5" d="M39.7388 87.0839H43.0852V93.7505H39.7388V87.0839Z" fill="#7E5CEB"/>
</g>
<path id="Vector_6" d="M84.4978 35.8328V42.4995H22.5884V35.8328C22.5884 32.1661 25.6002 29.1661 29.2813 29.1661H77.8049C81.486 29.1661 84.4978 32.1661 84.4978 35.8328Z" fill="#7E5CEB"/>
<path id="Vector_7" d="M84.4978 42.5004L84.4945 74.167C84.4945 77.847 81.4961 80.8337 77.8016 80.8337H29.2813C25.6002 80.8337 22.5884 77.8337 22.5884 74.167V42.5004H84.4978Z" fill="#ECE7FC"/>
<path id="Vector_8" d="M36.8108 29.1661H29.2813C25.6002 29.1661 22.5884 32.1661 22.5884 35.8328V42.4995H30.1179V35.8328C30.1179 32.1661 33.1297 29.1661 36.8108 29.1661Z" fill="#7E5CEB"/>
<path id="Vector_9" d="M30.1179 74.167V42.5004H22.5884V74.167C22.5884 77.8337 25.6002 80.8337 29.2813 80.8337H36.8108C33.1297 80.8337 30.1179 77.8337 30.1179 74.167Z" fill="#D5DBE1"/>
<path id="Vector_10" d="M78.6406 97.4995C89.2677 97.4995 97.8827 88.9183 97.8827 78.3328C97.8827 67.7473 89.2677 59.1661 78.6406 59.1661C68.0134 59.1661 59.3984 67.7473 59.3984 78.3328C59.3984 88.9183 68.0134 97.4995 78.6406 97.4995Z" fill="#7E5CEB"/>
<path id="Vector_11" d="M66.928 78.3328C66.928 69.0328 73.5807 61.2828 82.4053 59.5395C81.1872 59.2995 79.929 59.1661 78.6406 59.1661C68.0122 59.1661 59.3984 67.7461 59.3984 78.3328C59.3984 88.9195 68.0122 97.4995 78.6406 97.4995C79.929 97.4995 81.1872 97.3695 82.4053 97.1261C73.5807 95.3828 66.928 87.6328 66.928 78.3328Z" fill="#7E5CEB"/>
<path id="Vector_12" d="M75.2959 87.5004C74.6333 87.5004 73.9908 87.237 73.5223 86.767L67.666 80.9337L71.2166 77.397L75.1688 81.3304L84.2812 70.8604L88.0727 74.1337L77.1967 86.6337C76.7416 87.157 76.0857 87.4703 75.3896 87.4937C75.3528 87.5003 75.3227 87.5004 75.2959 87.5004Z" fill="white"/>
<path id="Vector_13" d="M48.5245 83.3331H29.2823C24.2058 83.3331 20.0796 79.2231 20.0796 74.1664V35.8331C20.0796 30.7764 24.2058 26.6664 29.2823 26.6664H77.806C82.8792 26.6664 87.0087 30.7764 87.0087 35.8331V49.1664H81.989V35.8331C81.989 33.5364 80.1117 31.6664 77.806 31.6664H29.2823C26.9766 31.6664 25.0993 33.5364 25.0993 35.8331V74.1664C25.0993 76.4631 26.9766 78.3331 29.2823 78.3331H48.5245V83.3331Z" fill="#2E266F"/>
<path id="Vector_14" d="M22.5884 39.9996H84.4978V44.9996H22.5884V39.9996Z" fill="#2E266F"/>
<path id="Vector_15" d="M33.4648 22.5H38.4845V35.8333H33.4648V22.5Z" fill="#2E266F"/>
<path id="Vector_16" d="M68.6035 22.5H73.6232V35.8333H68.6035V22.5Z" fill="#2E266F"/>
<path id="Vector_17" d="M78.6411 99.9997C66.6474 99.9997 56.8892 90.2797 56.8892 78.333C56.8892 66.3864 66.6474 56.6664 78.6411 56.6664C90.6348 56.6664 100.393 66.3864 100.393 78.333C100.393 90.2797 90.6348 99.9997 78.6411 99.9997ZM78.6411 61.6664C69.4149 61.6664 61.9088 69.143 61.9088 78.333C61.9088 87.523 69.4149 94.9997 78.6411 94.9997C87.8673 94.9997 95.3734 87.523 95.3734 78.333C95.3734 69.143 87.8673 61.6664 78.6411 61.6664Z" fill="#2E266F"/>
</g>
<defs>
<filter id="filter0_dd_292_3071" x="0.664551" y="-2.0531" width="119.146" height="130.107" filterUnits="userSpaceOnUse" color-interpolation-filters="sRGB">
<feFlood flood-opacity="0" result="BackgroundImageFix"/>
<feColorMatrix in="SourceAlpha" type="matrix" values="0 0 0 0 0 0 0 0 0 0 0 0 0 0 0 0 0 0 127 0" result="hardAlpha"/>
<feMorphology radius="1" operator="erode" in="SourceAlpha" result="effect1_dropShadow_292_3071"/>
<feOffset dy="3"/>
<feGaussianBlur stdDeviation="4"/>
<feColorMatrix type="matrix" values="0 0 0 0 0.196078 0 0 0 0 0.196078 0 0 0 0 0.278431 0 0 0 0.05 0"/>
<feBlend mode="normal" in2="BackgroundImageFix" result="effect1_dropShadow_292_3071"/>
<feColorMatrix in="SourceAlpha" type="matrix" values="0 0 0 0 0 0 0 0 0 0 0 0 0 0 0 0 0 0 127 0" result="hardAlpha"/>
<feOffset/>
<feGaussianBlur stdDeviation="0.5"/>
<feColorMatrix type="matrix" values="0 0 0 0 0.0470588 0 0 0 0 0.101961 0 0 0 0 0.294118 0 0 0 0.24 0"/>
<feBlend mode="normal" in2="effect1_dropShadow_292_3071" result="effect2_dropShadow_292_3071"/>
<feBlend mode="normal" in="SourceGraphic" in2="effect2_dropShadow_292_3071" result="shape"/>
</filter>
<clipPath id="clip0_292_3071">
<rect width="120.472" height="120" fill="white"/>
</clipPath>
</defs>
</svg>
