<svg width="14" height="12" viewBox="0 0 14 12" fill="none" xmlns="http://www.w3.org/2000/svg">
<g id="Group">
<g id="Group_2">
<g id="Group_3">
<path id="Vector" d="M0.402667 7.99998C0.922934 9.24158 1.9168 10.2605 3.2 10.7954V11.6C3.2 11.8208 3.3792 12 3.6 12H10.0533C10.2741 12 10.4533 11.8208 10.4533 11.6V10.7954C11.7365 10.2605 12.7304 9.24158 13.2507 7.99998H0.402667ZM13.2533 5.59998H0.4C0.1792 5.59998 0 5.77918 0 5.99998C0 6.41011 0.0485334 6.81224 0.141333 7.19998H13.512C13.6048 6.81224 13.6533 6.41011 13.6533 5.99998C13.6533 5.77918 13.4741 5.59998 13.2533 5.59998Z" fill="white"/>
</g>
</g>
<g id="Group_4">
<g id="Group_5">
<path id="Vector_2" d="M4.14362 3.88284C3.98741 3.72663 3.98741 3.47338 4.14362 3.31716C4.42943 3.03132 4.42946 2.56871 4.14362 2.28284C3.54653 1.68575 3.54653 0.714254 4.14362 0.11716C4.29981 -0.0390534 4.55309 -0.0390534 4.7093 0.11716C4.86552 0.273374 4.86552 0.526627 4.7093 0.682841C4.42349 0.968681 4.42346 1.43129 4.7093 1.71716C5.3064 2.31426 5.3064 3.28575 4.7093 3.88284C4.55312 4.03903 4.29981 4.03906 4.14362 3.88284Z" fill="white"/>
</g>
</g>
<g id="Group_6">
<g id="Group_7">
<path id="Vector_3" d="M6.54206 3.88284C6.38585 3.72663 6.38585 3.47338 6.54206 3.31716C6.82787 3.03132 6.8279 2.56871 6.54206 2.28284C5.94496 1.68575 5.94496 0.714254 6.54206 0.11716C6.69825 -0.0390534 6.95153 -0.0390534 7.10774 0.11716C7.26395 0.273374 7.26395 0.526627 7.10774 0.682841C6.82193 0.968681 6.8219 1.43129 7.10774 1.71716C7.70483 2.31426 7.70483 3.28575 7.10774 3.88284C6.95155 4.03903 6.69825 4.03906 6.54206 3.88284Z" fill="white"/>
</g>
</g>
<g id="Group_8">
<g id="Group_9">
<path id="Vector_4" d="M8.94733 3.88284C8.79112 3.72663 8.79112 3.47338 8.94733 3.31716C9.23312 3.03135 9.23317 2.56871 8.94733 2.28284C8.35024 1.68575 8.35024 0.714254 8.94733 0.11716C9.10352 -0.0390534 9.3568 -0.0390534 9.51301 0.11716C9.66923 0.273374 9.66923 0.526627 9.51301 0.682841C9.22723 0.968654 9.22717 1.43129 9.51301 1.71716C10.1101 2.31426 10.1101 3.28575 9.51301 3.88284C9.35683 4.03903 9.10352 4.03906 8.94733 3.88284Z" fill="white"/>
</g>
</g>
</g>
</svg>
