<svg width="14" height="12" viewBox="0 0 14 12" fill="none" xmlns="http://www.w3.org/2000/svg">
<path d="M0.402667 7.99961C0.922934 9.24121 1.9168 10.2601 3.2 10.7951V11.5996C3.2 11.8204 3.3792 11.9996 3.6 11.9996H10.0533C10.2741 11.9996 10.4533 11.8204 10.4533 11.5996V10.7951C11.7365 10.2601 12.7304 9.24121 13.2507 7.99961H0.402667ZM13.2533 5.59961H0.4C0.1792 5.59961 0 5.77881 0 5.99961C0 6.40974 0.0485334 6.81188 0.141333 7.19961H13.512C13.6048 6.81188 13.6533 6.40974 13.6533 5.99961C13.6533 5.77881 13.4741 5.59961 13.2533 5.59961Z" fill="white"/>
<path d="M4.14387 3.88284C3.98765 3.72663 3.98765 3.47338 4.14387 3.31716C4.42968 3.03132 4.42971 2.56871 4.14387 2.28284C3.54677 1.68575 3.54677 0.714254 4.14387 0.11716C4.30005 -0.0390534 4.55333 -0.0390534 4.70955 0.11716C4.86576 0.273374 4.86576 0.526627 4.70955 0.682841C4.42373 0.968681 4.42371 1.43129 4.70955 1.71716C5.30664 2.31426 5.30664 3.28575 4.70955 3.88284C4.55336 4.03903 4.30005 4.03906 4.14387 3.88284Z" fill="white"/>
<path d="M6.5423 3.88284C6.38609 3.72663 6.38609 3.47338 6.5423 3.31716C6.82812 3.03132 6.82814 2.56871 6.5423 2.28284C5.94521 1.68575 5.94521 0.714254 6.5423 0.11716C6.69849 -0.0390534 6.95177 -0.0390534 7.10798 0.11716C7.2642 0.273374 7.2642 0.526627 7.10798 0.682841C6.82217 0.968681 6.82214 1.43129 7.10798 1.71716C7.70508 2.31426 7.70508 3.28575 7.10798 3.88284C6.9518 4.03903 6.69849 4.03906 6.5423 3.88284Z" fill="white"/>
<path d="M8.94709 3.88284C8.79087 3.72663 8.79087 3.47338 8.94709 3.31716C9.23288 3.03135 9.23293 2.56871 8.94709 2.28284C8.34999 1.68575 8.34999 0.714254 8.94709 0.11716C9.10327 -0.0390534 9.35655 -0.0390534 9.51277 0.11716C9.66898 0.273374 9.66898 0.526627 9.51277 0.682841C9.22698 0.968654 9.22693 1.43129 9.51277 1.71716C10.1099 2.31426 10.1099 3.28575 9.51277 3.88284C9.35658 4.03903 9.10327 4.03906 8.94709 3.88284Z" fill="white"/>
</svg>
