<svg width="18" height="18" viewBox="0 0 18 18" fill="none" xmlns="http://www.w3.org/2000/svg">
<g id="Iconly/Bold/Calendar">
<g id="Calendar">
<path id="Calendar_2" fill-rule="evenodd" clip-rule="evenodd" d="M12.3082 2.07646L12.3089 2.63868C14.3749 2.8006 15.7396 4.2084 15.7418 6.36731L15.75 12.6866C15.7529 15.0405 14.2742 16.4887 11.9039 16.4925L6.11391 16.5C3.7584 16.503 2.26111 15.0202 2.25815 12.6597L2.25 6.41454C2.24704 4.24138 3.56364 2.83733 5.62963 2.64768L5.62889 2.08546C5.62815 1.75562 5.87251 1.5075 6.19833 1.5075C6.52415 1.50675 6.76851 1.75412 6.76925 2.08396L6.76999 2.6087L11.1685 2.6027L11.1678 2.07796C11.1671 1.74813 11.4114 1.50075 11.7372 1.5C12.0557 1.49925 12.3074 1.74663 12.3082 2.07646ZM3.39155 6.64627L14.6027 6.63128V6.36891C14.5708 4.75722 13.7622 3.91164 12.3108 3.7857L12.3116 4.36291C12.3116 4.68525 12.0605 4.94087 11.7421 4.94087C11.4163 4.94162 11.1712 4.68675 11.1712 4.36441L11.1705 3.75722L6.77191 3.76321L6.77265 4.36966C6.77265 4.69275 6.52903 4.94762 6.20321 4.94762C5.87739 4.94837 5.63229 4.69425 5.63229 4.37116L5.63155 3.79395C4.18758 3.93863 3.38859 4.7872 3.39081 6.41314L3.39155 6.64627ZM11.4307 10.0533V10.0616C11.4381 10.4064 11.7195 10.668 12.0609 10.6605C12.3941 10.6523 12.6599 10.3667 12.6525 10.0219C12.637 9.69202 12.3697 9.4229 12.0372 9.42365C11.6966 9.43115 11.43 9.70851 11.4307 10.0533ZM12.0413 13.4191C11.7007 13.4116 11.426 13.1275 11.4253 12.7826C11.4179 12.4378 11.6911 12.1522 12.0317 12.144H12.0391C12.3872 12.144 12.6693 12.4281 12.6693 12.7804C12.67 13.1327 12.3886 13.4183 12.0413 13.4191ZM8.37942 10.0653C8.39423 10.4101 8.67636 10.6792 9.01698 10.6642C9.35021 10.6485 9.61605 10.3636 9.60124 10.0188C9.59309 9.68149 9.31911 9.41912 8.98588 9.41987C8.64525 9.43486 8.37868 9.72047 8.37942 10.0653ZM9.01971 13.3854C8.67908 13.4004 8.3977 13.1313 8.38215 12.7865C8.38215 12.4417 8.64798 12.1568 8.98861 12.1411C9.32184 12.1403 9.59656 12.4027 9.60396 12.7393C9.61952 13.0848 9.35294 13.3697 9.01971 13.3854ZM5.32934 10.0916C5.34415 10.4364 5.62628 10.7063 5.9669 10.6906C6.30013 10.6756 6.56597 10.39 6.55041 10.0451C6.54301 9.70781 6.26903 9.44544 5.93506 9.44619C5.59443 9.46119 5.3286 9.74679 5.32934 10.0916ZM5.96841 13.3891C5.62778 13.4048 5.3464 13.1349 5.33084 12.7901C5.3301 12.4453 5.59668 12.1597 5.93731 12.1447C6.27053 12.1439 6.54526 12.4063 6.55266 12.7436C6.56821 13.0885 6.30238 13.3741 5.96841 13.3891Z" fill="#2E266F"/>
</g>
</g>
</svg>
