<svg width="46" height="46" viewBox="0 0 46 46" fill="none" xmlns="http://www.w3.org/2000/svg">
<circle opacity="0.1" cx="23.247" cy="22.9999" r="22.7528" fill="white"/>
<path d="M23.2483 19.2664C21.1822 19.2664 19.5157 20.9333 19.5157 22.9999C19.5157 25.0665 21.1822 26.7334 23.2483 26.7334C25.3144 26.7334 26.981 25.0665 26.981 22.9999C26.981 20.9333 25.3144 19.2664 23.2483 19.2664ZM23.2483 25.4271C21.9132 25.4271 20.8216 24.3386 20.8216 22.9999C20.8216 21.6612 21.9099 20.5727 23.2483 20.5727C24.5868 20.5727 25.675 21.6612 25.675 22.9999C25.675 24.3386 24.5835 25.4271 23.2483 25.4271ZM28.0043 19.1137C28.0043 19.5979 27.6144 19.9845 27.1337 19.9845C26.6496 19.9845 26.263 19.5946 26.263 19.1137C26.263 18.6328 26.6529 18.2429 27.1337 18.2429C27.6144 18.2429 28.0043 18.6328 28.0043 19.1137ZM30.4765 19.9975C30.4212 18.831 30.1548 17.7977 29.3005 16.9464C28.4493 16.0951 27.4163 15.8287 26.25 15.7702C25.0481 15.7019 21.4454 15.7019 20.2434 15.7702C19.0804 15.8254 18.0474 16.0919 17.193 16.9432C16.3386 17.7945 16.0755 18.8278 16.017 19.9943C15.9488 21.1965 15.9488 24.8 16.017 26.0023C16.0722 27.1688 16.3386 28.202 17.193 29.0534C18.0474 29.9047 19.0772 30.1711 20.2434 30.2296C21.4454 30.2978 25.0481 30.2978 26.25 30.2296C27.4163 30.1744 28.4493 29.9079 29.3005 29.0534C30.1516 28.202 30.418 27.1688 30.4765 26.0023C30.5447 24.8 30.5447 21.1998 30.4765 19.9975ZM28.9236 27.2922C28.6702 27.9291 28.1797 28.4197 27.5397 28.6764C26.5814 29.0566 24.3074 28.9689 23.2483 28.9689C22.1893 28.9689 19.912 29.0534 18.957 28.6764C18.3202 28.423 17.8297 27.9324 17.5731 27.2922C17.193 26.3337 17.2807 24.0592 17.2807 22.9999C17.2807 21.9406 17.1962 19.6628 17.5731 18.7076C17.8264 18.0707 18.317 17.58 18.957 17.3233C19.9153 16.9432 22.1893 17.0309 23.2483 17.0309C24.3074 17.0309 26.5846 16.9464 27.5397 17.3233C28.1765 17.5768 28.667 18.0674 28.9236 18.7076C29.3037 19.6661 29.216 21.9406 29.216 22.9999C29.216 24.0592 29.3037 26.3369 28.9236 27.2922Z" fill="white"/>
</svg>
