<svg width="46" height="46" viewBox="0 0 46 46" fill="none" xmlns="http://www.w3.org/2000/svg">
<circle opacity="0.1" cx="22.7528" cy="22.7528" r="22.7528" fill="white"/>
<path d="M18.5633 29.9998H15.1992V19.8789H18.5633V29.9998Z" fill="white"/>
<path d="M16.8809 18.4971H16.859C15.7301 18.4971 15 17.72 15 16.7487C15 15.7556 15.7524 15 16.9032 15C18.054 15 18.7622 15.7556 18.7841 16.7487C18.7841 17.72 18.054 18.4971 16.8809 18.4971Z" fill="white"/>
<path d="M30.6932 29.9997H27.3296V24.5853C27.3296 23.2246 26.8425 22.2966 25.6253 22.2966C24.696 22.2966 24.1425 22.9226 23.8993 23.5269C23.8104 23.7431 23.7887 24.0453 23.7887 24.3478V29.9997H20.4248C20.4248 29.9997 20.4689 20.8284 20.4248 19.8789H23.7887V21.3119C24.2357 20.6223 25.0356 19.6414 26.8203 19.6414C29.0336 19.6414 30.6932 21.0879 30.6932 24.1965V29.9997Z" fill="white"/>
</svg>
