<svg width="19" height="17" viewBox="0 0 19 17" fill="none" xmlns="http://www.w3.org/2000/svg">
<g id="Group">
<g id="Group_2">
<g id="Group_3">
<path id="Vector" d="M0.553667 10.9999C1.26903 12.7071 2.6356 14.1082 4.4 14.8437V15.9499C4.4 16.2535 4.64641 16.4999 4.95001 16.4999H13.8233C14.1269 16.4999 14.3733 16.2535 14.3733 15.9499V14.8437C16.1378 14.1082 17.5043 12.7071 18.2197 10.9999H0.553667ZM18.2234 7.69991H0.550001C0.2464 7.69991 0 7.94631 0 8.24991C0 8.81385 0.0667334 9.36678 0.194334 9.89992H18.579C18.7066 9.36678 18.7734 8.81385 18.7734 8.24991C18.7734 7.94631 18.527 7.69991 18.2234 7.69991Z" fill="#2E266F"/>
</g>
</g>
<g id="Group_4">
<g id="Group_5">
<path id="Vector_2" d="M5.69778 5.33891C5.48299 5.12412 5.48299 4.77589 5.69778 4.5611C6.09078 4.16807 6.09081 3.53198 5.69778 3.13891C4.87678 2.3179 4.87678 0.9821 5.69778 0.161095C5.91254 -0.0536984 6.2608 -0.0536984 6.4756 0.161095C6.69039 0.375889 6.69039 0.724112 6.4756 0.938906C6.0826 1.33194 6.08256 1.96803 6.4756 2.3611C7.2966 3.1821 7.2966 4.51791 6.4756 5.33891C6.26084 5.55367 5.91254 5.5537 5.69778 5.33891Z" fill="#2E266F"/>
</g>
</g>
<g id="Group_6">
<g id="Group_7">
<path id="Vector_3" d="M8.99832 5.33891C8.78353 5.12412 8.78353 4.77589 8.99832 4.5611C9.39132 4.16807 9.39135 3.53198 8.99832 3.13891C8.17732 2.3179 8.17732 0.9821 8.99832 0.161095C9.21308 -0.0536984 9.56134 -0.0536984 9.77613 0.161095C9.99093 0.375889 9.99093 0.724112 9.77613 0.938906C9.38314 1.33194 9.3831 1.96803 9.77613 2.3611C10.5971 3.1821 10.5971 4.51791 9.77613 5.33891C9.56138 5.55367 9.21308 5.5537 8.99832 5.33891Z" fill="#2E266F"/>
</g>
</g>
<g id="Group_8">
<g id="Group_9">
<path id="Vector_4" d="M12.2996 5.33891C12.0848 5.12412 12.0848 4.77589 12.2996 4.5611C12.6925 4.16811 12.6926 3.53198 12.2996 3.13891C11.4786 2.3179 11.4786 0.9821 12.2996 0.161095C12.5143 -0.0536984 12.8626 -0.0536984 13.0774 0.161095C13.2922 0.375889 13.2922 0.724112 13.0774 0.938906C12.6844 1.3319 12.6844 1.96803 13.0774 2.3611C13.8984 3.1821 13.8984 4.51791 13.0774 5.33891C12.8626 5.55367 12.5143 5.5537 12.2996 5.33891Z" fill="#2E266F"/>
</g>
</g>
</g>
</svg>
