<svg width="10" height="13" viewBox="0 0 10 13" fill="none" xmlns="http://www.w3.org/2000/svg">
<path fill-rule="evenodd" clipRule="evenodd" d="M0.0415039 5.26371C0.0415039 2.58045 2.28377 0.411682 4.99601 0.411682C7.71591 0.411682 9.95817 2.58045 9.95817 5.26371C9.95817 6.61584 9.46643 7.87113 8.65705 8.9351C7.76414 10.1087 6.6636 11.1313 5.42482 11.9339C5.1413 12.1194 4.88543 12.1334 4.57427 11.9339C3.32843 11.1313 2.22789 10.1087 1.34263 8.9351C0.532661 7.87113 0.0415039 6.61584 0.0415039 5.26371ZM3.36309 5.41478C3.36309 6.31367 4.09659 7.02065 4.99597 7.02065C5.89593 7.02065 6.63649 6.31367 6.63649 5.41478C6.63649 4.52289 5.89593 3.78149 4.99597 3.78149C4.09659 3.78149 3.36309 4.52289 3.36309 5.41478Z" fill="white"/>
</svg>
