<svg width="48" height="58" viewBox="0 0 48 58" fill="none" xmlns="http://www.w3.org/2000/svg">
<g id="Frame" clip-path="url(#clip0_471_9272)">
<g id="Group">
<path id="Vector" d="M3.39624 14.7928C3.36864 14.8209 3.34104 14.8489 3.31343 14.884C2.36116 14.877 1.40889 14.863 0.45662 14.884C0.139197 14.891 0.0770919 14.7858 0.0839924 14.491C0.0977935 12.5332 0.0908929 10.5682 0.0908929 8.61034C0.0908929 8.16122 0.090893 8.16122 0.539427 8.16122C6.16335 8.16122 11.7873 8.16122 17.4112 8.16122C17.6527 8.16122 17.8942 8.1542 18.1357 8.16122C18.3014 8.16824 18.3704 8.1121 18.3566 7.94368C18.3635 7.44543 18.3773 6.94017 18.3773 6.44192C18.3773 4.40684 18.3842 2.37877 18.3704 0.343678C18.3704 0.0840289 18.4325 0.00683594 18.6947 0.00683594C22.2347 0.0138535 25.7677 0.020871 29.3077 0.00683594C29.5975 0.00683594 29.6389 0.105082 29.6389 0.364731C29.632 2.77175 29.632 5.17175 29.632 7.57877C29.632 7.69806 29.6458 7.81034 29.6527 7.92964C29.6113 8.28052 29.8804 8.1542 30.0253 8.1542C35.7735 8.16122 41.5216 8.16122 47.2697 8.16122C47.4629 8.16122 47.6562 8.1542 47.8563 8.14719C47.8839 8.17526 47.9046 8.19631 47.9322 8.22438C47.9322 10.4209 47.9253 12.6174 47.9253 14.8139C47.9115 14.8349 47.8977 14.856 47.8839 14.884C46.9109 14.884 45.931 14.87 44.9581 14.884C44.682 14.891 44.613 14.7998 44.613 14.5261C44.6268 13.663 44.6061 12.7998 44.6268 11.9367C44.6337 11.5998 44.544 11.5156 44.2059 11.5156C30.8051 11.5086 17.4043 11.5086 4.00349 11.5086C3.87928 11.5086 3.74817 11.5156 3.62396 11.5086C3.45145 11.4946 3.37554 11.5507 3.37554 11.7402C3.38934 12.7577 3.38934 13.7753 3.39624 14.7928ZM24.0012 1.81736C22.8557 1.81736 21.7033 1.82438 20.5578 1.81034C20.3094 1.81034 20.1921 1.85245 20.1921 2.1542C20.2059 4.04894 20.2059 5.93666 20.1921 7.8314C20.1921 8.09806 20.268 8.16824 20.5233 8.16122C22.8419 8.1542 25.1605 8.1542 27.479 8.16122C27.7413 8.16122 27.8034 8.07701 27.8034 7.82438C27.7965 5.92964 27.7965 4.04192 27.8034 2.14719C27.8034 1.88754 27.7344 1.81034 27.4721 1.81034C26.3198 1.82438 25.1605 1.81736 24.0012 1.81736Z" fill="white"/>
<path id="Vector_2" d="M3.30652 51.1787C3.33412 51.2068 3.36862 51.2349 3.39622 51.2629C3.38932 52.2313 3.40312 53.1998 3.37552 54.1682C3.36862 54.477 3.45143 54.5542 3.75505 54.5542C12.2289 54.5471 20.7096 54.5471 29.1835 54.5471C34.2001 54.5471 39.2237 54.5401 44.2404 54.5542C44.5509 54.5542 44.6268 54.4699 44.6199 54.1612C44.5992 53.277 44.6199 52.3857 44.6061 51.5015C44.6061 51.291 44.6337 51.1787 44.8821 51.1857C45.7999 51.1998 46.7177 51.1927 47.6354 51.1857C47.8494 51.1857 47.9115 51.2559 47.9115 51.4664C47.8977 52.1191 47.9046 52.7717 47.9115 53.4313C47.9184 54.905 47.9184 56.3717 47.9253 57.8454C47.9184 57.8664 47.9115 57.8805 47.9046 57.9015C47.7666 57.9015 47.6285 57.9085 47.4905 57.9085C31.9575 57.9085 16.4313 57.9085 0.898237 57.9085C0.642917 57.9085 0.394499 57.9156 0.13918 57.9156C0.111578 57.8945 0.090876 57.8664 0.0632739 57.8454C0.0701744 57.7191 0.0770749 57.5927 0.0770749 57.4594C0.0770749 55.5085 0.090876 53.5647 0.0632739 51.6138C0.0563734 51.2419 0.173682 51.1717 0.504907 51.1857C1.45028 51.2068 2.37495 51.1857 3.30652 51.1787Z" fill="white"/>
<path id="Vector_3" d="M39.1345 15.3822C39.3277 14.6523 39.5209 13.9295 39.7141 13.1997C40.6802 13.1997 41.6394 13.1997 42.6054 13.1997C42.6054 18.8138 42.6123 24.4348 42.6123 30.0489C42.6123 30.6313 42.5916 31.2138 42.6192 31.8032C42.633 32.098 42.5295 32.1471 42.2673 32.1471C41.5428 32.1331 40.8182 32.1261 40.1005 32.1471C39.8038 32.1541 39.7072 32.0769 39.7141 31.7611C39.7279 29.7752 39.721 27.7892 39.721 25.8032C39.721 25.719 39.721 25.6418 39.7141 25.5576C39.7072 25.4524 39.6451 25.3962 39.5485 25.3541C39.4174 25.298 39.3967 25.4173 39.3346 25.4734C39.2518 25.5506 39.2518 25.6629 39.2242 25.7611C38.6652 27.7682 38.0994 29.7752 37.5543 31.7892C37.4852 32.0489 37.3748 32.1471 37.1057 32.1331C36.6917 32.112 36.2777 32.119 35.8636 32.1331C35.6497 32.1401 35.5531 32.0629 35.5048 31.8594C35.4496 31.6138 35.3599 31.3682 35.284 31.1225V31.1155C35.2702 31.0945 35.2564 31.0734 35.2426 31.0453C35.0908 30.3506 34.863 29.6769 34.6422 29.0103C34.6353 28.9822 34.6215 28.9541 34.6146 28.9331C34.5801 28.8138 34.5456 28.6945 34.5042 28.5752C34.5111 28.5541 34.5042 28.5331 34.4904 28.519C34.2972 27.7471 34.0764 26.9822 33.8142 26.2243C33.8073 26.1962 33.7935 26.1611 33.7866 26.1331C33.7176 25.8874 33.6555 25.6418 33.5726 25.3962C33.5519 25.319 33.4898 25.2488 33.3932 25.2488C33.2966 25.2488 33.269 25.3401 33.2345 25.4103C33.1655 25.5646 33.1862 25.7331 33.1862 25.8945C33.1862 27.8594 33.1793 29.8173 33.1931 31.7752C33.1931 32.0489 33.1241 32.1401 32.8481 32.1331C32.158 32.112 31.468 32.126 30.7848 32.126C30.219 32.126 30.2949 32.1611 30.2949 31.6138C30.2949 25.705 30.2949 19.7962 30.2949 13.8874C30.2949 13.1927 30.2949 13.1787 30.9712 13.1927C31.7302 13.2067 32.4824 13.1366 33.2414 13.2348C33.4829 14.3225 33.8142 15.3892 34.1109 16.4629C34.3248 17.2208 34.4835 17.9927 34.7664 18.7295C34.8078 19.0594 34.8907 19.3752 35.0218 19.6769C35.0287 19.719 35.0287 19.7611 35.0356 19.8102V19.8032C35.4289 21.2348 35.8291 22.6734 36.2225 24.105C36.2915 24.3646 36.4157 24.5331 36.7124 24.3506C36.9401 24.3085 36.9194 24.091 36.9608 23.9436C37.1195 23.3822 37.2575 22.8208 37.3955 22.2594C37.6647 21.1857 37.9269 20.119 38.196 19.0453C38.2029 19.0173 38.2167 18.9822 38.2236 18.9541C38.3478 18.4839 38.472 18.0138 38.5962 17.5436C38.61 17.4874 38.6169 17.4243 38.6307 17.3681C38.7894 16.7085 38.962 16.0418 39.1345 15.3822Z" fill="white"/>
<path id="Vector_4" d="M18.2034 45.6349C18.3414 46.5121 18.4105 47.3893 18.3483 48.2805C18.2586 49.4665 17.9688 50.5752 17.127 51.4665C16.4576 52.1752 15.6019 52.5191 14.6773 52.7086C14.5669 52.7296 14.4565 52.7647 14.346 52.7928C14.3046 52.7928 14.2563 52.7998 14.2149 52.7998C14.1045 52.7928 13.9941 52.7858 13.8975 52.8559C11.786 52.8559 9.6744 52.8489 7.56974 52.8629C7.22471 52.8629 7.13501 52.7787 7.13501 52.4279C7.14881 47.3191 7.14191 42.2103 7.14191 37.1016C7.14191 36.9402 7.14191 36.7717 7.12121 36.6103C7.09361 36.3788 6.997 36.1893 6.76928 36.091L6.77618 36.0981C6.68647 35.9788 6.55536 35.9858 6.43116 35.9858C5.91362 35.9858 5.40298 35.9928 4.88544 35.9928C4.84404 35.9788 4.80263 35.9577 4.76123 35.9437C4.76123 35.0244 4.76123 34.1051 4.76123 33.1858C4.87164 33.1717 4.98895 33.1577 5.09936 33.1577C7.67325 33.1577 10.2471 33.1647 12.8141 33.1647C14.0976 33.1647 15.3604 33.263 16.5335 33.8665C17.1408 34.3577 17.6169 34.9472 17.8515 35.7261C18.0861 36.5121 18.1758 37.3191 18.231 38.1261C18.231 38.5823 18.2241 39.0384 18.2241 39.4875C18.2172 39.7823 18.162 40.063 18.093 40.3507C17.7756 41.6981 17.1063 42.7296 15.7124 43.1086C15.6502 43.1226 15.5605 43.1156 15.5605 43.2138C15.5605 43.3331 15.6571 43.3261 15.7331 43.3331C16.5059 43.3893 17.127 43.7472 17.6376 44.3296C17.8722 44.7437 18.0585 45.1788 18.2034 45.6349ZM14.3391 45.0875C14.0976 44.9191 13.8285 44.8349 13.5387 44.8068C13.5111 44.7998 13.4835 44.7998 13.4559 44.7928C13.4283 44.7788 13.3938 44.7507 13.3662 44.7507C12.3932 44.6454 11.4202 44.6805 10.4473 44.6945C10.1988 44.7016 10.1229 44.863 10.1229 45.0945C10.1298 46.5752 10.1229 48.0559 10.1229 49.5366C10.1229 49.8244 10.254 49.9296 10.5232 49.9226C10.9096 49.9086 11.3029 49.9296 11.6963 49.9156C12.2552 49.9016 12.821 49.9647 13.3731 49.8454C13.518 49.8314 13.6698 49.8314 13.8147 49.8033C14.6497 49.6349 15.0085 49.284 15.1327 48.4279C15.2224 47.7752 15.2224 47.1086 15.1396 46.4489C15.1051 46.1542 15.0223 45.8805 14.8705 45.6279C14.7463 45.3893 14.5876 45.1998 14.346 45.0875H14.3391ZM12.6899 41.7191C13.1316 41.7472 13.5594 41.6559 13.9734 41.5296C14.5324 41.3542 14.8912 40.9752 15.043 40.3998C15.2776 39.5226 15.3052 38.6244 15.1948 37.7331C15.0706 36.7296 14.7187 36.3437 13.7388 36.1472C12.6554 35.9226 11.5444 35.9928 10.4473 35.9998C10.3575 35.9998 10.2678 36.0349 10.2057 36.1191C10.0953 36.1893 10.1229 36.3086 10.1229 36.4068C10.1229 38.084 10.1229 39.7682 10.116 41.4454C10.116 41.691 10.2195 41.7823 10.4404 41.7823C11.1994 41.7612 11.9447 41.8174 12.6899 41.7191Z" fill="white"/>
<path id="Vector_5" d="M5.53584 32.1123C5.52894 31.958 5.52204 31.8106 5.52204 31.6562C5.52204 25.6562 5.52204 19.6562 5.51514 13.6562C5.51514 13.2983 5.60484 13.1931 5.95677 13.2071C6.65372 13.2352 7.35757 13.2281 8.05453 13.2141C8.32365 13.2071 8.46166 13.2983 8.56517 13.5509C10.0488 17.1088 11.5393 20.6527 13.0298 24.2106C13.0367 24.2246 13.0367 24.2316 13.0436 24.2457C13.0988 24.365 13.1195 24.5615 13.292 24.5334C13.4852 24.5053 13.4024 24.3088 13.4024 24.1825C13.4093 22.8422 13.4093 21.4948 13.4093 20.1545C13.4093 17.9509 13.4093 15.7404 13.4093 13.5369C13.4093 13.4246 13.3886 13.3053 13.4507 13.1931C14.3823 13.1931 15.3208 13.1931 16.2592 13.186C16.3213 13.3194 16.3144 13.4597 16.3144 13.6001C16.3144 19.6562 16.3144 25.7053 16.3075 31.7615C16.3075 31.8808 16.2937 31.993 16.2868 32.1123C15.4243 32.1123 14.5617 32.1123 13.6992 32.1053C13.568 32.1053 13.4162 32.1474 13.3334 31.986C12.5537 30.1334 11.7739 28.2808 10.9941 26.4281C10.2558 24.6808 9.51054 22.9404 8.76528 21.1931C8.71698 21.0738 8.69627 20.8632 8.53066 20.8913C8.35815 20.9194 8.42715 21.1229 8.42715 21.2492C8.42025 24.8702 8.42025 28.4843 8.42025 32.1053C7.45418 32.1123 6.49501 32.1123 5.53584 32.1123Z" fill="white"/>
<path id="Vector_6" d="M19.582 46.786C19.5751 46.3931 19.6096 46.0001 19.5199 45.6141C19.5337 43.8597 19.4854 42.1053 19.5544 40.351C19.6234 39.3475 19.6786 38.351 19.858 37.3615C20.0374 36.372 20.2789 35.4036 20.8448 34.5475C21.4658 33.6071 22.3698 33.1089 23.4325 32.9194C24.8816 32.6597 26.3307 32.6808 27.7729 33.0106C29.015 33.2983 29.7947 34.0983 30.2019 35.2983C30.264 35.4948 30.4365 35.6492 30.402 35.8738C30.5538 36.6036 30.6504 37.3475 30.747 38.0913C30.8643 40.1755 30.9126 42.2667 30.8712 44.351C30.8367 46.2387 30.8091 48.1334 30.402 49.986C30.2295 50.779 29.9604 51.5299 29.4083 52.1474C28.7597 52.8773 27.8971 53.1369 26.9862 53.2422C25.6958 53.3895 24.3985 53.3966 23.1081 53.186C21.314 52.8913 20.41 51.7053 20.0167 50.0071C19.9408 49.6913 19.8856 49.3685 19.8166 49.0527C19.7407 48.3018 19.6648 47.5439 19.582 46.786ZM22.6182 45.6352C22.6251 46.7439 22.7217 47.8457 23.0529 48.9123C23.2806 49.6422 23.7361 50.1194 24.5089 50.2106C24.9161 50.2527 25.3301 50.2527 25.7441 50.2246C26.5722 50.1755 27.0828 49.7404 27.3313 48.9615C27.6004 48.1264 27.6832 47.2632 27.7246 46.3931C27.8419 45.3825 27.8212 44.372 27.8281 43.3615C27.835 42.0001 27.8557 40.6387 27.7315 39.2843C27.7246 38.4492 27.628 37.6352 27.3451 36.8492C27.1449 36.2878 26.7516 35.958 26.1513 35.8808C25.6337 35.8176 25.1231 35.8246 24.6055 35.8527C23.8465 35.8878 23.3358 36.2878 23.0874 37.0106C22.7079 38.1124 22.632 39.2632 22.6182 40.4211C22.5492 40.8352 22.5561 41.2562 22.5561 41.6703C22.563 42.9896 22.4871 44.3159 22.6182 45.6352Z" fill="white"/>
<path id="Vector_7" d="M28.7276 26.5332C28.6448 27.249 28.5689 27.9648 28.4792 28.6806C28.3964 29.3332 28.2032 29.9508 27.9755 30.5683C27.6511 31.1788 27.2578 31.7192 26.6299 32.042C26.2641 32.2315 25.8639 32.3297 25.4775 32.4631C25.4568 32.4771 25.4292 32.4981 25.4085 32.5122C24.8357 32.4631 24.2768 32.5894 23.704 32.5894C22.5447 32.5824 21.3924 32.5824 20.2952 32.1262C19.5844 31.7894 19.1221 31.2069 18.7563 30.5262C18.7563 30.5122 18.7494 30.4981 18.7356 30.4911C18.4182 29.6771 18.2457 28.828 18.1284 27.9648C18.018 27.1367 18.018 26.2946 17.9214 25.4666C17.9214 25.4315 17.9214 25.3964 17.9214 25.3613C17.9214 25.3332 17.9214 25.3052 17.9214 25.2771C17.9283 23.6981 17.9076 22.1262 17.9421 20.5473C17.9766 19.1227 18.0732 17.6981 18.4389 16.3157C18.6942 15.3332 19.0876 14.4209 19.9018 13.7613C20.3987 13.3613 20.9714 13.1227 21.5856 13.0104C22.9657 12.7508 24.3527 12.7718 25.7259 13.0595C27.0646 13.3332 27.8443 14.2174 28.2308 15.5087C28.5413 16.5472 28.6241 17.6139 28.7138 18.6806C28.769 20.2736 28.8173 21.8666 28.7897 23.4595C28.7759 24.4841 28.7552 25.5087 28.7276 26.5332ZM25.8225 19.8525C25.8156 18.9332 25.7328 18.0209 25.5258 17.1297C25.3188 16.2174 24.8564 15.8315 23.9317 15.7964C23.566 15.7823 23.2003 15.7823 22.8346 15.8034C21.9306 15.8525 21.3924 16.3437 21.2267 17.2701C21.068 17.6841 21.0335 18.1262 20.9783 18.5613C20.9714 18.6736 20.9645 18.7858 20.9576 18.8981C20.8541 19.5718 20.8472 20.2595 20.8403 20.9402C20.792 22.1753 20.7989 23.4104 20.8403 24.6525C20.861 25.2771 20.8541 25.9087 20.9576 26.5262C20.9645 26.6034 20.9714 26.6806 20.9783 26.7578C21.0404 27.4455 21.1508 28.1192 21.4683 28.7438C21.6615 29.1227 21.9582 29.3753 22.3653 29.5017C22.807 29.635 23.2486 29.5999 23.6971 29.5929C24.4976 29.5859 25.0772 29.242 25.3533 28.435C25.4844 28.056 25.581 27.6771 25.6224 27.2841C25.7742 26.5683 25.7811 25.8385 25.8156 25.1087C25.8294 24.856 25.8501 24.5964 25.8501 24.3438C25.857 22.849 25.9053 21.3543 25.8225 19.8525Z" fill="white"/>
<path id="Vector_8" d="M31.8516 52.8701C31.8792 52.3929 32.1483 52.007 32.3208 51.5859C32.9832 49.9508 33.6664 48.3298 34.3427 46.7017C34.667 45.9929 34.9706 45.2771 35.2397 44.5473V44.5403C35.2535 44.5403 35.2673 44.5333 35.2673 44.5192C35.2811 44.4771 35.288 44.442 35.3018 44.3999C35.4674 44.021 35.64 43.635 35.8056 43.2561C35.8746 43.0877 35.8815 42.9122 35.8125 42.7438C35.5088 42.014 35.1983 41.2841 34.8947 40.5613C34.4531 39.4596 34.0114 38.3648 33.556 37.2631C33.0316 35.9789 32.5071 34.7017 31.962 33.4245C31.8792 33.228 31.8723 33.1648 32.1069 33.1648C32.9694 33.1719 33.832 33.1719 34.6877 33.1648C34.9085 33.1648 34.9775 33.2771 35.0534 33.4526C35.5019 34.5403 35.9643 35.621 36.4197 36.7017C36.5715 37.0876 36.7164 37.4806 36.8821 37.8596C37.0408 38.2245 37.1167 38.6245 37.3927 38.9333C37.648 38.9964 37.648 38.7648 37.7032 38.6315C38.3105 37.1999 38.9108 35.7543 39.5112 34.3157C39.5457 34.2315 39.6009 34.1473 39.6216 34.0561C39.7665 33.249 40.2633 33.0666 41.0017 33.1508C41.5813 33.214 42.1748 33.1789 42.7544 33.1578C43.0649 33.1438 43.0649 33.249 42.9614 33.4947C42.3611 34.9192 41.7745 36.3508 41.1811 37.7824C40.5324 39.3403 39.8907 40.8982 39.2282 42.4491C39.0764 42.807 39.0695 43.1157 39.2282 43.4806C39.8976 45.0385 40.5393 46.6105 41.1949 48.1824C41.2363 48.2736 41.2915 48.3649 41.3398 48.4491C41.6779 49.3473 42.023 50.2456 42.4439 51.1087C42.6716 51.6912 42.8924 52.2736 43.1201 52.8561C42.2024 52.8561 41.2846 52.8561 40.3737 52.8561C40.2288 52.8561 40.0701 52.8842 39.9873 52.7157C39.5181 51.5929 39.0488 50.4631 38.5727 49.3403C38.2829 48.6456 37.9861 47.9508 37.6825 47.2561C37.6273 47.1368 37.6066 46.9403 37.4548 46.9333C37.2685 46.9192 37.2616 47.1368 37.2064 47.2631C36.4887 48.9684 35.778 50.6736 35.0741 52.3789C35.0465 52.4491 35.0327 52.5333 35.012 52.6105C34.9223 52.814 34.7636 52.8701 34.5497 52.8631C33.6526 52.8561 32.7486 52.8701 31.8516 52.8701Z" fill="white"/>
<path id="Vector_9" d="M3.39515 14.793C3.38825 13.7755 3.38825 12.7649 3.38135 11.7474C3.38135 11.5579 3.45725 11.5018 3.62977 11.5158C3.75398 11.5228 3.88509 11.5158 4.00929 11.5158C17.4101 11.5158 30.8109 11.5158 44.2117 11.5088C44.5429 11.5088 44.6395 11.593 44.6326 11.9298C44.6119 12.793 44.6326 13.6562 44.6188 14.5193C44.6119 14.786 44.681 14.8842 44.9639 14.8772C45.9368 14.8632 46.9167 14.8772 47.8897 14.8772C47.8069 15.0105 47.6689 14.9474 47.5585 14.9474C46.6614 14.9544 45.7643 14.9404 44.8742 14.9614C44.5981 14.9684 44.5429 14.8562 44.5429 14.6176C44.5498 13.7684 44.5498 12.9123 44.5429 12.0632C44.5429 11.6562 44.4877 11.607 44.0875 11.593C43.9495 11.593 43.8115 11.593 43.6735 11.593C30.4728 11.593 17.2652 11.593 4.0645 11.593C3.94029 11.593 3.80918 11.593 3.68497 11.6141C3.58146 11.6281 3.51246 11.6772 3.50556 11.8176C3.45035 12.6877 3.47796 13.5579 3.47796 14.4281C3.47105 14.5474 3.47795 14.6807 3.39515 14.793Z" fill="white"/>
<path id="Vector_10" d="M0.143555 57.9157C0.398874 57.9086 0.647292 57.9086 0.902612 57.9086C16.4357 57.9086 31.9618 57.9086 47.4949 57.9086C47.6329 57.9086 47.7709 57.9086 47.9089 57.9016C47.8123 58.056 47.6605 57.9788 47.5363 57.9788C32.2034 57.9788 16.8773 57.9788 1.54436 57.9788C1.19933 57.9788 0.854308 57.9788 0.509282 57.9788C0.385073 57.9788 0.253963 57.9999 0.143555 57.9157Z" fill="white"/>
<path id="Vector_11" d="M18.3485 7.93677C18.3623 8.10519 18.2933 8.16133 18.1277 8.15431C17.8861 8.14028 17.6446 8.15431 17.4031 8.15431C11.7792 8.15431 6.15526 8.15431 0.53134 8.15431C0.0828062 8.15431 0.0828062 8.15431 0.0828062 8.60344C0.0828062 10.5613 0.0897067 12.5262 0.0759057 14.4841C0.0759057 14.7859 0.13801 14.8841 0.448534 14.8771C1.40081 14.8561 2.35308 14.8771 3.30535 14.8771C3.22944 14.9473 3.13283 14.9403 3.04313 14.9403C2.15986 14.9403 1.2766 14.9333 0.39333 14.9473C0.0897067 14.9543 0 14.835 0 14.5333C0.00690052 12.5262 0.013801 10.5192 0 8.51221C0 8.14729 0.13801 8.06308 0.469235 8.06308C3.9609 8.0701 7.45256 8.0701 10.9373 8.0701C13.1386 8.0701 15.3468 8.0701 17.548 8.0701C17.824 8.0701 18.1001 8.10519 18.3485 7.93677Z" fill="white"/>
<path id="Vector_12" d="M47.847 8.1404C47.6538 8.14741 47.4606 8.15443 47.2605 8.15443C41.5123 8.15443 35.7642 8.15443 30.0161 8.14741C29.8712 8.14741 29.602 8.27373 29.6434 7.92285C29.8298 8.0632 30.0437 8.07022 30.2645 8.07022C35.9712 8.07022 41.6779 8.07022 47.3778 8.07022C47.5365 8.07724 47.709 8.03513 47.847 8.1404Z" fill="white"/>
<path id="Vector_13" d="M3.30382 51.1788C2.37225 51.1858 1.44758 51.1998 0.516009 51.1858C0.177884 51.1788 0.0674758 51.249 0.0743763 51.6139C0.0950778 53.5648 0.0881773 55.5086 0.0881773 57.4595C0.0881773 57.5858 0.0812768 57.7121 0.0743763 57.8455C-0.00842994 57.7332 0.0122716 57.5999 0.0122716 57.4735C0.0122716 55.5016 0.0191721 53.5297 0.00537109 51.5507C0.00537109 51.2209 0.0950778 51.0946 0.433203 51.1016C1.28197 51.1226 2.13073 51.1086 2.97949 51.1086C3.0899 51.1086 3.20721 51.0876 3.30382 51.1788Z" fill="white"/>
<path id="Vector_14" d="M47.9243 14.8068C47.9243 12.6103 47.9312 10.4138 47.9312 8.21729C48.0209 8.3436 47.9933 8.48395 47.9933 8.6243C47.9933 10.5541 47.9933 12.4769 47.9933 14.4068C47.9933 14.5401 48.0209 14.6875 47.9243 14.8068Z" fill="white"/>
<path id="Vector_15" d="M31.8516 52.87C32.7555 52.87 33.6526 52.856 34.5566 52.863C34.7774 52.863 34.9292 52.8139 35.0189 52.6104C35.0327 52.7998 34.9775 52.9332 34.7636 52.9332C33.832 52.9332 32.9004 52.9261 31.9689 52.9191C31.9344 52.9261 31.893 52.8911 31.8516 52.87Z" fill="white"/>
<path id="Vector_16" d="M40.0028 52.7156C40.0856 52.891 40.2443 52.8559 40.3892 52.8559C41.307 52.8559 42.2247 52.8559 43.1356 52.8559C43.0666 52.9331 42.9769 52.9401 42.8872 52.9401C42.0246 52.9401 41.1551 52.9472 40.2926 52.9401C40.1546 52.9331 39.9614 52.9682 40.0028 52.7156Z" fill="white"/>
<path id="Vector_17" d="M5.53516 32.1121C6.49433 32.1121 7.4535 32.1121 8.41267 32.1121C8.34367 32.1893 8.25396 32.1893 8.15735 32.1893C7.36379 32.1893 6.57714 32.1893 5.78358 32.1893C5.69387 32.1893 5.60416 32.1963 5.53516 32.1121Z" fill="white"/>
<path id="Vector_18" d="M35.2693 44.512C35.2693 44.526 35.2555 44.533 35.2417 44.533C35.2555 44.526 35.2624 44.519 35.2693 44.512Z" fill="white"/>
<path id="Vector_19" d="M24.0009 1.81708C25.1602 1.81708 26.3195 1.82409 27.4788 1.81006C27.741 1.81006 27.81 1.88725 27.81 2.1469C27.8031 4.04164 27.8031 5.92935 27.81 7.82409C27.81 8.08374 27.7479 8.16093 27.4857 8.16093C25.1671 8.15391 22.8485 8.15391 20.53 8.16093C20.2746 8.16093 20.1987 8.09075 20.1987 7.83111C20.2056 5.93637 20.2125 4.04865 20.1987 2.15392C20.1987 1.85918 20.3091 1.81006 20.5645 1.81006C21.703 1.81708 22.8485 1.81708 24.0009 1.81708ZM24.0354 1.90129C22.9244 1.90129 21.8066 1.9083 20.6956 1.89427C20.3919 1.89427 20.2677 1.97146 20.2746 2.3083C20.2884 4.06971 20.2884 5.83812 20.2815 7.59953C20.2815 7.94339 20.3712 8.07672 20.7301 8.07672C22.8899 8.06268 25.0498 8.0697 27.2097 8.0697C27.6513 8.0697 27.7341 7.98549 27.7341 7.53637C27.7341 5.79602 27.7272 4.05567 27.741 2.31532C27.741 1.9855 27.6237 1.89427 27.3201 1.89427C26.216 1.9083 25.1257 1.90129 24.0354 1.90129Z" fill="white"/>
<path id="Vector_20" d="M13.4572 44.7928C12.574 44.7928 11.6907 44.7928 10.8074 44.7928C10.2899 44.7928 10.2071 44.877 10.2071 45.4034C10.2071 46.6525 10.2071 47.9016 10.214 49.1507C10.214 49.656 10.3934 49.8244 10.904 49.8244C11.7252 49.8314 12.5533 49.8384 13.3744 49.8525C12.8155 49.9717 12.2565 49.9086 11.6976 49.9226C11.3112 49.9296 10.9178 49.9156 10.5245 49.9296C10.2554 49.9367 10.1174 49.8314 10.1243 49.5437C10.1312 48.063 10.1312 46.5823 10.1243 45.1016C10.1243 44.87 10.2002 44.7016 10.4486 44.7016C11.4216 44.6876 12.3945 44.6525 13.3675 44.7577C13.402 44.7577 13.4296 44.7788 13.4572 44.7928Z" fill="white"/>
<path id="Vector_21" d="M10.2122 36.1121C10.2122 37.7752 10.2053 39.4454 10.2122 41.1086C10.2122 41.6559 10.2674 41.7191 10.7987 41.7191C11.4267 41.7261 12.0615 41.7191 12.6895 41.7191C11.9442 41.8173 11.199 41.7612 10.4537 41.7682C10.2329 41.7752 10.1294 41.684 10.1294 41.4314C10.1363 39.7542 10.1294 38.07 10.1363 36.3928C10.1294 36.3015 10.1087 36.1822 10.2122 36.1121Z" fill="white"/>
<path id="Vector_22" d="M18.2296 38.1328C18.3123 38.589 18.333 39.0451 18.2227 39.4942C18.2227 39.0381 18.2296 38.5819 18.2296 38.1328Z" fill="white"/>
<path id="Vector_23" d="M14.2164 52.7997C14.1197 52.8629 14.0093 52.87 13.8989 52.8559C13.9955 52.7857 14.1059 52.7997 14.2164 52.7997Z" fill="white"/>
<path id="Vector_24" d="M27.7202 46.3856C27.7202 44.0137 27.7202 41.6488 27.7202 39.2769C27.8444 40.6312 27.8306 41.9926 27.8168 43.354C27.8168 44.3646 27.8444 45.3821 27.7202 46.3856Z" fill="white"/>
<path id="Vector_25" d="M22.6117 40.4136C22.6117 42.1539 22.6117 43.8943 22.6117 45.6346C22.4875 44.3153 22.5565 42.989 22.5496 41.6697C22.5496 41.2487 22.5427 40.8276 22.6117 40.4136Z" fill="white"/>
<path id="Vector_26" d="M17.9268 25.4666C17.8923 25.4315 17.8923 25.3964 17.9268 25.3613C17.9268 25.3964 17.9268 25.4315 17.9268 25.4666Z" fill="white"/>
</g>
</g>
<defs>
<clipPath id="clip0_471_9272">
<rect width="48" height="58" fill="white"/>
</clipPath>
</defs>
</svg>
