<svg width="58" height="38" viewBox="0 0 58 38" fill="none" xmlns="http://www.w3.org/2000/svg">
<g id="Logo / Payment / Small / Mastercard">
<path id="&#226;&#151;&#188;&#239;&#184;&#143; Background" d="M0.5 6C0.5 2.96243 2.96243 0.5 6 0.5H52C55.0376 0.5 57.5 2.96243 57.5 6V32C57.5 35.0376 55.0376 37.5 52 37.5H6C2.96243 37.5 0.5 35.0376 0.5 32V6Z" fill="white" stroke="#F2F2F2"/>
<g id="Logo">
<path id="Fill 1" fill-rule="evenodd" clip-rule="evenodd" d="M26.0423 19C26.0423 16.139 27.3641 13.5917 29.4223 11.9433C27.9046 10.7277 25.9875 10 23.9011 10C18.9852 10 15 14.0295 15 19C15 23.9705 18.9852 28 23.9011 28C25.9875 28 27.9046 27.2723 29.4223 26.0567C27.3641 24.4083 26.0423 21.861 26.0423 19Z" fill="#EB001B"/>
<path id="Fill 4" fill-rule="evenodd" clip-rule="evenodd" d="M26.042 19.0001C26.042 21.8611 27.3638 24.4083 29.422 26.0568C31.48 24.4083 32.8018 21.8611 32.8018 19.0001C32.8018 16.1391 31.48 13.5918 29.422 11.9434C27.3638 13.5918 26.042 16.1391 26.042 19.0001Z" fill="#FF5E00"/>
<path id="Fill 8" fill-rule="evenodd" clip-rule="evenodd" d="M34.9435 10C32.857 10 30.9399 10.7277 29.4224 11.9433C31.4804 13.5918 32.8022 16.139 32.8022 19C32.8022 21.861 31.4804 24.4083 29.4224 26.0567C30.9399 27.2723 32.857 28 34.9435 28C39.8593 28 43.8445 23.9705 43.8445 19C43.8445 14.0295 39.8593 10 34.9435 10Z" fill="#F79E1C"/>
</g>
</g>
</svg>
