<svg width="18" height="17" viewBox="0 0 18 17" fill="none" xmlns="http://www.w3.org/2000/svg">
<g id="Group 6996">
<g id="Group">
<g id="Group_2">
<path id="Vector" d="M17.1362 12.591C17.0297 12.4545 16.8662 12.375 16.693 12.375H1.31795C1.1447 12.375 0.9812 12.4545 0.8747 12.591C0.7682 12.7283 0.7307 12.906 0.7727 13.074L1.5227 16.074C1.58495 16.3245 1.80995 16.5 2.06795 16.5H15.943C16.201 16.5 16.426 16.3245 16.489 16.074L17.239 13.074C17.281 12.906 17.2427 12.7283 17.1362 12.591Z" fill="#7E5CEB"/>
</g>
</g>
<g id="Group_3">
<g id="Group_4">
<g id="Group_5">
<path id="Vector_2" d="M9 4.87495C8.586 4.87495 8.25 4.5397 8.25 4.12495V2.62495C8.25 2.2102 8.586 1.87495 9 1.87495C9.414 1.87495 9.75 2.2102 9.75 2.62495V4.12495C9.75 4.5397 9.414 4.87495 9 4.87495Z" fill="#7E5CEB"/>
</g>
</g>
</g>
<g id="Group_6">
<g id="Group_7">
<path id="Vector_3" d="M8.99805 3C9.82647 3 10.498 2.32843 10.498 1.5C10.498 0.671573 9.82647 0 8.99805 0C8.16962 0 7.49805 0.671573 7.49805 1.5C7.49805 2.32843 8.16962 3 8.99805 3Z" fill="#7E5CEB"/>
</g>
</g>
<g id="Group_8">
<g id="Group_9">
<path id="Vector_4" d="M9.05016 3.75022C4.92516 3.70522 1.34766 6.96022 0.785156 11.0627H17.1202C16.5652 7.03522 13.1152 3.79522 9.05016 3.75022ZM14.0377 10.5527C13.7302 10.5527 13.4752 10.2977 13.4827 9.99022C13.4977 8.22772 12.0877 6.78022 10.3252 6.76522C10.0177 6.75772 9.77015 6.51022 9.77015 6.19522C9.77766 5.88772 10.0327 5.63272 10.3402 5.64022C12.7177 5.66272 14.6302 7.62022 14.6077 9.99772C14.6002 10.3127 14.3452 10.5602 14.0377 10.5527Z" fill="#7E5CEB"/>
</g>
</g>
<g id="Group_10">
<g id="Group_11">
<path id="Vector_5" d="M17.25 12.1875H0.75C0.336 12.1875 0 12.5227 0 12.9375C0 13.3522 0.336 13.6875 0.75 13.6875H17.25C17.664 13.6875 18 13.3522 18 12.9375C18 12.5227 17.664 12.1875 17.25 12.1875Z" fill="#7E5CEB"/>
</g>
</g>
</g>
</svg>
