<svg width="25" height="24" viewBox="0 0 25 24" fill="none" xmlns="http://www.w3.org/2000/svg">
<g id="Group">
<g id="Group_2">
<g id="Group_3">
<path id="Vector" d="M1.37411 15.2864C2.30163 17.9778 4.07348 20.1866 6.36114 21.3461V23.0901C6.36114 23.5687 6.68061 23.9572 7.07425 23.9572H18.5791C18.9727 23.9572 19.2922 23.5687 19.2922 23.0901V21.3461C21.5799 20.1866 23.3517 17.9778 24.2792 15.2864H1.37411ZM24.284 10.084H1.36936C0.975724 10.084 0.65625 10.4724 0.65625 10.9511C0.65625 11.8401 0.742774 12.7118 0.908216 13.5523H24.7451C24.9106 12.7118 24.9971 11.8401 24.9971 10.9511C24.9971 10.4724 24.6776 10.084 24.284 10.084Z" fill="#2E266F"/>
</g>
</g>
<g id="Group_4">
<g id="Group_5">
<path id="Vector_2" d="M8.04366 7.02282C7.76517 6.74433 7.76517 6.29284 8.04366 6.01434C8.55321 5.50475 8.55325 4.68002 8.04366 4.17038C6.97918 3.1059 6.97918 1.37394 8.04366 0.309456C8.32211 0.0309625 8.77365 0.0309625 9.05214 0.309456C9.33064 0.58795 9.33064 1.03944 9.05214 1.31794C8.5426 1.82753 8.54256 2.65226 9.05214 3.1619C10.1166 4.22638 10.1166 5.95834 9.05214 7.02282C8.7737 7.30127 8.32211 7.30132 8.04366 7.02282Z" fill="#2E266F"/>
</g>
</g>
<g id="Group_6">
<g id="Group_7">
<path id="Vector_3" d="M12.3169 7.0238C12.0384 6.74531 12.0384 6.29381 12.3169 6.01532C12.8264 5.50573 12.8264 4.68099 12.3169 4.17136C11.2524 3.10687 11.2524 1.37492 12.3169 0.310433C12.5953 0.0319391 13.0468 0.0319391 13.3253 0.310433C13.6038 0.588926 13.6038 1.04042 13.3253 1.31891C12.8158 1.8285 12.8157 2.65324 13.3253 3.16288C14.3898 4.22736 14.3898 5.95932 13.3253 7.0238C13.0469 7.30225 12.5953 7.30229 12.3169 7.0238Z" fill="#2E266F"/>
</g>
</g>
<g id="Group_8">
<g id="Group_9">
<path id="Vector_4" d="M16.6067 7.0238C16.3282 6.74531 16.3282 6.29381 16.6067 6.01532C17.1162 5.50578 17.1163 4.68099 16.6067 4.17136C15.5422 3.10687 15.5422 1.37492 16.6067 0.310433C16.8852 0.0319391 17.3367 0.0319391 17.6152 0.310433C17.8937 0.588926 17.8937 1.04042 17.6152 1.31891C17.1057 1.82846 17.1056 2.65324 17.6152 3.16288C18.6797 4.22736 18.6797 5.95932 17.6152 7.0238C17.3367 7.30225 16.8852 7.30229 16.6067 7.0238Z" fill="#2E266F"/>
</g>
</g>
</g>
</svg>
