<svg width="120" height="120" viewBox="0 0 120 120" fill="none" xmlns="http://www.w3.org/2000/svg">
<g id="valid">
<g id="Vector" filter="url(#filter0_dd_292_3280)">
<path d="M14.5138 72.5677C10.4253 82.7891 17.9209 95.5657 22.1798 100.676C34.9564 116.008 88.6184 113.453 101.395 85.3444C114.172 57.2357 109.061 31.6824 86.063 16.3505C63.065 1.01848 32.4011 16.3505 34.9564 31.6824C37.5117 47.0144 19.6245 59.7911 14.5138 72.5677Z" fill="white"/>
</g>
<g id="Group">
<path id="Vector_2" fillRule="evenodd" clipRule="evenodd" d="M13.334 49.9388C14.2544 49.9388 15.0006 49.1924 15.0006 48.2721C15.0006 47.3514 14.2544 46.6054 13.334 46.6054C12.4135 46.6054 11.6673 47.3514 11.6673 48.2721C11.6673 49.1924 12.4135 49.9388 13.334 49.9388ZM13.334 53.2721C16.0954 53.2721 18.334 51.0334 18.334 48.2721C18.334 45.5108 16.0954 43.2721 13.334 43.2721C10.5726 43.2721 8.33398 45.5108 8.33398 48.2721C8.33398 51.0334 10.5726 53.2721 13.334 53.2721Z" fill="#ECE7FC"/>
<path id="Vector_3" fillRule="evenodd" clipRule="evenodd" d="M20.835 39.5236C20.835 34.7743 24.618 30.8333 29.3956 30.8333H83.941C88.7186 30.8333 92.5016 34.7743 92.5016 39.5236V56.6666H87.5016V39.5236C87.5016 37.4353 85.8576 35.8333 83.941 35.8333H29.3956C27.4788 35.8333 25.835 37.4353 25.835 39.5236V70.4763C25.835 72.5646 27.4788 74.1666 29.3956 74.1666H53.335V79.1666H29.3956C24.618 79.1666 20.835 75.2256 20.835 70.4763V39.5236Z" fill="black"/>
<path id="Vector_4" fillRule="evenodd" clipRule="evenodd" d="M90.0007 45.833H23.334V40.833H90.0007V45.833Z" fill="black"/>
<path id="Vector_5" fillRule="evenodd" clipRule="evenodd" d="M36.6667 62.5002H30V57.5002H36.6667V62.5002Z" fill="black"/>
<path id="Vector_6" fillRule="evenodd" clipRule="evenodd" d="M43.3333 70.8335H30V65.8335H43.3333V70.8335Z" fill="black"/>
</g>
<path id="Vector_7" d="M96.6663 79.9997C96.6663 89.2043 89.2043 96.6663 79.9997 96.6663C70.795 96.6663 63.333 89.2043 63.333 79.9997C63.333 70.795 70.795 63.333 79.9997 63.333C89.2043 63.333 96.6663 70.795 96.6663 79.9997Z" fill="#7E5CEB"/>
<g id="Group 7160">
<g id="Group_2">
<path id="Vector_8" d="M71.6982 75.2339L75.2338 71.6984L88.1974 84.662L84.6619 88.1975L71.6982 75.2339Z" fill="white"/>
</g>
<g id="Group_3">
<path id="Vector_9" d="M71.6982 84.6616L84.6619 71.698L88.1974 75.2335L75.2338 88.1972L71.6982 84.6616Z" fill="white"/>
</g>
</g>
<path id="Vector_10" fillRule="evenodd" clipRule="evenodd" d="M82.4997 63.5193C74.481 64.7253 68.333 71.6447 68.333 79.9997C68.333 88.3547 74.481 95.274 82.4997 96.48C81.6843 96.6027 80.8493 96.6663 79.9997 96.6663C70.795 96.6663 63.333 89.2043 63.333 79.9997C63.333 70.795 70.795 63.333 79.9997 63.333C80.8493 63.333 81.6843 63.3967 82.4997 63.5193Z" fill="#ECE7FC"/>
<path id="Vector_11" fillRule="evenodd" clipRule="evenodd" d="M80.0007 65.8333C72.1767 65.8333 65.834 72.1759 65.834 79.9999C65.834 87.8239 72.1767 94.1666 80.0007 94.1666C87.8247 94.1666 94.1673 87.8239 94.1673 79.9999C94.1673 72.1759 87.8247 65.8333 80.0007 65.8333ZM60.834 79.9999C60.834 69.4146 69.4153 60.8333 80.0007 60.8333C90.586 60.8333 99.1673 69.4146 99.1673 79.9999C99.1673 90.5853 90.586 99.1666 80.0007 99.1666C69.4153 99.1666 60.834 90.5853 60.834 79.9999Z" fill="black"/>
</g>
<defs>
<filter id="filter0_dd_292_3280" x="6.33203" y="5.99976" width="108.908" height="114" filterUnits="userSpaceOnUse" color-interpolation-filters="sRGB">
<feFlood flood-opacity="0" result="BackgroundImageFix"/>
<feColorMatrix in="SourceAlpha" type="matrix" values="0 0 0 0 0 0 0 0 0 0 0 0 0 0 0 0 0 0 127 0" result="hardAlpha"/>
<feMorphology radius="1" operator="erode" in="SourceAlpha" result="effect1_dropShadow_292_3280"/>
<feOffset dy="3"/>
<feGaussianBlur stdDeviation="4"/>
<feColorMatrix type="matrix" values="0 0 0 0 0.196078 0 0 0 0 0.196078 0 0 0 0 0.278431 0 0 0 0.05 0"/>
<feBlend mode="normal" in2="BackgroundImageFix" result="effect1_dropShadow_292_3280"/>
<feColorMatrix in="SourceAlpha" type="matrix" values="0 0 0 0 0 0 0 0 0 0 0 0 0 0 0 0 0 0 127 0" result="hardAlpha"/>
<feOffset/>
<feGaussianBlur stdDeviation="0.5"/>
<feColorMatrix type="matrix" values="0 0 0 0 0.0470588 0 0 0 0 0.101961 0 0 0 0 0.294118 0 0 0 0.24 0"/>
<feBlend mode="normal" in2="effect1_dropShadow_292_3280" result="effect2_dropShadow_292_3280"/>
<feBlend mode="normal" in="SourceGraphic" in2="effect2_dropShadow_292_3280" result="shape"/>
</filter>
</defs>
</svg>
