<svg width="120" height="120" viewBox="0 0 120 120" fill="none" xmlns="http://www.w3.org/2000/svg">
<g id="protected" clip-path="url(#clip0_292_3368)">
<g id="Vector" filter="url(#filter0_dd_292_3368)">
<path d="M3.34484 47.703C14.1882 68.0497 11.0915 87.6397 16.3148 97.4464C21.5382 107.253 38.1515 124.84 83.2582 100.806C128.365 76.773 120.225 45.543 114.475 34.7564C87.5682 -15.747 -15.8585 11.6664 3.34484 47.703Z" fill="white"/>
</g>
<path id="Vector_2" d="M94.9993 65.0003H87.1327C84.4327 57.2337 76.9993 51.667 68.2993 51.667H49.9993C49.4327 46.1003 45.566 42.767 38.3327 41.667V54.367C36.7993 55.2337 35.4327 56.3003 34.1993 57.5337C32.966 58.767 31.8994 60.1337 31.0327 61.667H24.9993C23.166 61.667 21.666 63.167 21.666 65.0003V71.667C21.666 73.5003 23.166 75.0003 24.9993 75.0003H28.6327C29.6327 80.967 33.266 86.067 38.3327 88.967V95.0003C38.3327 96.8337 39.8327 98.3337 41.666 98.3337H44.9993C46.8327 98.3337 48.3327 96.8337 48.3327 95.0003V91.667H68.3327V95.0003C68.3327 96.8337 69.8327 98.3337 71.666 98.3337H74.9993C76.8327 98.3337 78.3327 96.8337 78.3327 95.0003V88.967C79.866 88.1003 81.2327 87.0337 82.466 85.8003C86.0327 82.267 88.2327 77.4003 88.2993 72.0003L87.7793 71.4703L88.2993 71.667H94.9993C96.8327 71.667 98.3327 70.167 98.3327 68.3337C98.3327 66.5003 96.8327 65.0003 94.9993 65.0003Z" fill="#ECE7FC"/>
<path id="Vector_3" d="M80.0013 65.0001C80.0013 65.0001 98.3346 57.2634 98.3346 41.7868C98.3346 35.5967 98.3346 27.8567 98.3346 27.8567L80.0013 21.6667L61.668 27.8567V41.7868C61.668 57.2634 80.0013 65.0001 80.0013 65.0001Z" fill="#7E5CEB"/>
<path id="Vector_4" d="M46.666 97.867C46.166 98.167 45.5994 98.3337 44.9994 98.3337H41.666C39.8327 98.3337 38.3327 96.8337 38.3327 95.0003V88.967C33.266 86.067 29.6327 80.967 28.6327 75.0003H24.9993C23.166 75.0003 21.666 73.5003 21.666 71.667V65.0003C21.666 63.167 23.166 61.667 24.9993 61.667H31.0327C31.8994 60.1337 32.966 58.767 34.1994 57.5337C35.4327 56.3003 36.7994 55.2337 38.3327 54.367V41.667C40.9994 42.067 43.2327 42.8003 44.9994 43.8337V54.367C43.466 55.2337 42.0994 56.3003 40.866 57.5337C39.6327 58.767 38.566 60.1337 37.6994 61.667H31.666C29.8327 61.667 28.3327 63.167 28.3327 65.0003V71.667C28.3327 73.5003 29.8327 75.0003 31.666 75.0003H35.2994C36.2994 80.967 39.9327 86.067 44.9994 88.967V95.0003C44.9994 96.2337 45.666 97.3003 46.666 97.867Z" fill="#ECE7FC"/>
<path id="Vector_5" d="M83.3346 63.2668C81.368 64.4334 80.0013 65.0001 80.0013 65.0001C80.0013 65.0001 61.668 57.2668 61.668 41.8001C61.668 32.5001 61.668 27.8667 61.668 27.8667L80.0013 21.6667L83.3346 22.8001L68.3346 27.8667V41.8001C68.3346 53.0667 78.068 60.2334 83.3346 63.2668Z" fill="#ECE7FC"/>
<path id="Vector_6" d="M75.0003 100.833H71.667C68.4503 100.833 65.8337 98.2163 65.8337 94.9997V94.1663H50.8337V94.9997C50.8337 98.2163 48.217 100.833 45.0003 100.833H41.667C38.4503 100.833 35.8337 98.2163 35.8337 94.9997V90.3597C31.2837 87.3397 28.0203 82.783 26.617 77.4997H25.0003C21.7837 77.4997 19.167 74.883 19.167 71.6664V64.9997C19.167 61.783 21.7837 59.1663 25.0003 59.1663H29.637C30.4403 57.963 31.3737 56.8197 32.4337 55.763C33.4937 54.703 34.6337 53.7663 35.837 52.9697V41.6664C35.837 40.9364 36.157 40.2464 36.707 39.7697C37.2603 39.293 38.0003 39.0964 38.7137 39.193C47.6103 40.5464 50.9703 44.9897 52.087 49.1664H55.0003V54.1663H50.0003C48.717 54.1663 47.6437 53.1964 47.5137 51.9197C47.2703 49.533 46.267 46.3597 40.8337 44.763V54.3697C40.8337 55.273 40.347 56.103 39.5637 56.5464C38.267 57.2764 37.0937 58.1797 35.967 59.3063C34.847 60.423 33.947 61.5997 33.207 62.903C32.7637 63.6863 31.9337 64.1697 31.0337 64.1697H25.0003C24.547 64.1697 24.167 64.5497 24.167 65.003V71.6697C24.167 72.123 24.547 72.503 25.0003 72.503H28.6337C29.8537 72.503 30.897 73.3864 31.097 74.5897C31.9637 79.7597 35.057 84.2097 39.577 86.7997C40.3537 87.2463 40.8337 88.073 40.8337 88.9697V95.003C40.8337 95.4563 41.2137 95.8363 41.667 95.8363H45.0003C45.4537 95.8363 45.8337 95.4563 45.8337 95.003V91.6697C45.8337 90.2897 46.9537 89.1697 48.3337 89.1697H68.3337C69.7137 89.1697 70.8337 90.2897 70.8337 91.6697V95.003C70.8337 95.4563 71.2137 95.8363 71.667 95.8363H75.0003C75.4537 95.8363 75.8337 95.4563 75.8337 95.003V88.9697C75.8337 88.0663 76.3203 87.2363 77.1037 86.793C78.4003 86.063 79.5737 85.1597 80.7003 84.033C83.937 80.8297 85.7437 76.5463 85.8003 71.9697L90.8003 72.033C90.727 77.9297 88.3903 83.4497 84.227 87.5797C83.1703 88.633 82.0303 89.5697 80.8303 90.3663V94.9997C80.8337 98.2163 78.217 100.833 75.0003 100.833Z" fill="black"/>
<path id="Vector_7" d="M94.9987 74.1664H88.332V69.1664H94.9987C95.4587 69.1664 95.832 68.7931 95.832 68.3331C95.832 67.8731 95.4587 67.4998 94.9987 67.4998V62.4998C98.2154 62.4998 100.832 65.1164 100.832 68.3331C100.832 71.5498 98.2154 74.1664 94.9987 74.1664Z" fill="black"/>
<path id="Vector_8" d="M79.9994 67.5001C79.666 67.5001 79.3394 67.4334 79.026 67.3034C78.216 66.9601 59.166 58.7268 59.166 41.7868V27.8568C59.166 26.7834 59.8493 25.8334 60.866 25.4901L79.1994 19.3001C79.7194 19.1234 80.2794 19.1234 80.7994 19.3001L99.1327 25.4901C100.149 25.8334 100.833 26.7868 100.833 27.8568V41.7868C100.833 58.7268 81.7827 66.9634 80.9727 67.3034C80.6594 67.4334 80.3327 67.5001 79.9994 67.5001ZM64.166 29.6534V41.7868C64.166 53.5068 76.4094 60.4568 79.996 62.2401C83.5794 60.4468 95.8327 53.4634 95.8327 41.7868V29.6534L79.9994 24.3068L64.166 29.6534Z" fill="black"/>
<path id="Vector_9" d="M78.3319 50.8337C78.2852 50.8337 78.2419 50.8337 78.1952 50.8304C77.4819 50.7904 76.8252 50.4504 76.3786 49.8971L69.7119 41.5637L73.6186 38.4371L78.5419 44.5904L88.2319 34.9004L91.7686 38.4371L80.1019 50.1037C79.6319 50.5704 78.9919 50.8337 78.3319 50.8337Z" fill="white"/>
<path id="Vector_10" d="M39.167 26.5801C36.4103 26.5801 34.167 24.3367 34.167 21.5801C34.167 18.8234 36.4103 16.5801 39.167 16.5801C41.9237 16.5801 44.167 18.8234 44.167 21.5801C44.167 24.3367 41.9237 26.5801 39.167 26.5801ZM39.167 19.9134C38.2503 19.9134 37.5003 20.6601 37.5003 21.5801C37.5003 22.5001 38.2503 23.2467 39.167 23.2467C40.0837 23.2467 40.8337 22.5001 40.8337 21.5801C40.8337 20.6601 40.0837 19.9134 39.167 19.9134Z" fill="#ECE7FC"/>
</g>
<defs>
<filter id="filter0_dd_292_3368" x="-6.0166" y="3.10938" width="132.038" height="119.783" filterUnits="userSpaceOnUse" color-interpolation-filters="sRGB">
<feFlood flood-opacity="0" result="BackgroundImageFix"/>
<feColorMatrix in="SourceAlpha" type="matrix" values="0 0 0 0 0 0 0 0 0 0 0 0 0 0 0 0 0 0 127 0" result="hardAlpha"/>
<feMorphology radius="1" operator="erode" in="SourceAlpha" result="effect1_dropShadow_292_3368"/>
<feOffset dy="3"/>
<feGaussianBlur stdDeviation="4"/>
<feColorMatrix type="matrix" values="0 0 0 0 0.196078 0 0 0 0 0.196078 0 0 0 0 0.278431 0 0 0 0.05 0"/>
<feBlend mode="normal" in2="BackgroundImageFix" result="effect1_dropShadow_292_3368"/>
<feColorMatrix in="SourceAlpha" type="matrix" values="0 0 0 0 0 0 0 0 0 0 0 0 0 0 0 0 0 0 127 0" result="hardAlpha"/>
<feOffset/>
<feGaussianBlur stdDeviation="0.5"/>
<feColorMatrix type="matrix" values="0 0 0 0 0.0470588 0 0 0 0 0.101961 0 0 0 0 0.294118 0 0 0 0.24 0"/>
<feBlend mode="normal" in2="effect1_dropShadow_292_3368" result="effect2_dropShadow_292_3368"/>
<feBlend mode="normal" in="SourceGraphic" in2="effect2_dropShadow_292_3368" result="shape"/>
</filter>
<clipPath id="clip0_292_3368">
<rect width="120" height="120" fill="white"/>
</clipPath>
</defs>
</svg>
