<svg width="120" height="120" viewBox="0 0 120 120" fill="none" xmlns="http://www.w3.org/2000/svg">
<g id="wallet" clip-path="url(#clip0_292_3297)">
<g id="Layer 2">
<g id="Group">
<g id="Vector" filter="url(#filter0_dd_292_3297)">
<path d="M13.8906 92.2367C13.8906 69.18 1.94727 53.3467 1.94727 42.2367C1.94727 31.1267 8.33393 7.79004 59.4439 7.79004C110.554 7.79004 118.054 39.18 118.054 51.4C118.057 108.623 13.8906 133.07 13.8906 92.2367Z" fill="white"/>
</g>
</g>
</g>
<g id="color">
<g id="Group_2">
<path id="Vector_2" d="M80.8333 34.1568V44.1568H29.1667C25.5 44.1568 22.5 41.1902 22.5 37.4902C22.5 35.6568 23.2333 33.9902 24.4667 32.7902C25.6667 31.5568 27.3333 30.8235 29.1667 30.8235H77.5C79.3667 30.8235 80.8333 32.3235 80.8333 34.1568Z" fill="#ECE7FC"/>
</g>
<g id="Group_3">
<path id="Vector_3" d="M30 37.4902C30 35.6568 30.7333 33.9902 31.9667 32.7902C33.1667 31.5568 34.8333 30.8235 36.6667 30.8235H29.1667C27.3333 30.8235 25.6667 31.5568 24.4667 32.7902C23.2333 33.9902 22.5 35.6568 22.5 37.4902C22.5 41.1902 25.5 44.1568 29.1667 44.1568H36.6667C33 44.1568 30 41.1902 30 37.4902Z" fill="#ECE7FC"/>
</g>
<g id="Group_4">
<path id="Vector_4" d="M90.8333 47.4902V89.1569C90.8333 90.9902 89.3333 92.4902 87.5 92.4902H29.1667C25.5 92.4902 22.5 89.4902 22.5 85.8236V37.4902C22.5 41.1902 25.5 44.1569 29.1667 44.1569H87.5C89.3333 44.1569 90.8333 45.6569 90.8333 47.4902Z" fill="#ECE7FC"/>
</g>
<g id="Group_5">
<path id="Vector_5" d="M30 85.8236V44.1569H29.1667C25.5 44.1569 22.5 41.1902 22.5 37.4902V85.8236C22.5 89.4902 25.5 92.4902 29.1667 92.4902H36.6667C33 92.4902 30 89.4902 30 85.8236Z" fill="#ECE7FC"/>
</g>
<g id="Group_6">
<path id="Vector_6" d="M97.499 75.8333H84.999C80.8557 75.8333 77.499 72.4766 77.499 68.3333C77.499 64.1899 80.8557 60.8333 84.999 60.8333H97.499V75.8333Z" fill="#7E5CEB"/>
</g>
<g id="Group_7">
<path id="Vector_7" d="M84.999 68.3333C84.999 64.1899 88.3557 60.8333 92.499 60.8333H84.999C80.8557 60.8333 77.499 64.1899 77.499 68.3333C77.499 72.4766 80.8557 75.8333 84.999 75.8333H92.499C88.3557 75.8333 84.999 72.4766 84.999 68.3333Z" fill="#ECE7FC"/>
</g>
<g id="Group_8">
<path id="Vector_8" d="M68.3313 25.833L59.998 30.833L37.7646 44.1663H79.0313L68.3313 25.833Z" fill="#7E5CEB"/>
</g>
<g id="Group_9">
<path id="Vector_9" d="M68.3313 25.833L59.998 30.833L37.7646 44.1663H49.4313L71.358 31.0163L68.3313 25.833Z" fill="#ECE7FC"/>
</g>
<g id="Group_10">
<path id="Vector_10" d="M22.499 21.5565C19.7424 21.5565 17.499 19.3132 17.499 16.5565C17.499 13.7999 19.7424 11.5565 22.499 11.5565C25.2557 11.5565 27.499 13.7999 27.499 16.5565C27.499 19.3132 25.2557 21.5565 22.499 21.5565ZM22.499 14.8899C21.5824 14.8899 20.8324 15.6365 20.8324 16.5565C20.8324 17.4765 21.5824 18.2232 22.499 18.2232C23.4157 18.2232 24.1657 17.4765 24.1657 16.5565C24.1657 15.6365 23.4157 14.8899 22.499 14.8899Z" fill="#ECE7FC"/>
</g>
<g id="Group_11">
<g id="Group_12">
<path id="Vector_11" d="M100.416 24.5835H107.083V27.9168H100.416V24.5835Z" fill="#ECE7FC"/>
</g>
<g id="Group_13">
<path id="Vector_12" d="M92.916 12.9165H96.2493V19.5832H92.916V12.9165Z" fill="#ECE7FC"/>
</g>
<g id="Group_14">
<path id="Vector_13" d="M92.916 32.0835H96.2493V38.7502H92.916V32.0835Z" fill="#ECE7FC"/>
</g>
</g>
</g>
<g id="line">
<g id="Group_15">
<path id="Vector_14" d="M25.001 37.5002H20.001C20.001 32.4468 24.111 28.3335 29.1676 28.3335H60.001V33.3335H29.1676C26.871 33.3335 25.001 35.2035 25.001 37.5002Z" fill="black"/>
</g>
<g id="Group_16">
<path id="Vector_15" d="M87.501 95H29.1676C24.111 95 20.001 90.89 20.001 85.8333V37.5H25.001V85.8333C25.001 88.1333 26.871 90 29.1676 90H87.501C87.9543 90 88.3343 89.62 88.3343 89.1667V75.8333H93.3343V89.1667C93.3343 92.3833 90.7176 95 87.501 95Z" fill="black"/>
</g>
<g id="Group_17">
<path id="Vector_16" d="M97.5 78.3335H85C79.4867 78.3335 75 73.8468 75 68.3335C75 62.8202 79.4867 58.3335 85 58.3335H97.5C98.88 58.3335 100 59.4535 100 60.8335V75.8335C100 77.2135 98.88 78.3335 97.5 78.3335ZM85 63.3335C82.2433 63.3335 80 65.5768 80 68.3335C80 71.0902 82.2433 73.3335 85 73.3335H95V63.3335H85Z" fill="black"/>
</g>
<g id="Group_18">
<path id="Vector_17" d="M83.3338 44.1668H78.3338V34.1668C78.3338 33.7135 77.9538 33.3335 77.5004 33.3335H71.2671V28.3335H77.5004C80.7171 28.3335 83.3338 30.9502 83.3338 34.1668V44.1668Z" fill="black"/>
</g>
<g id="Group_19">
<path id="Vector_18" d="M39.0549 46.3099L36.4849 42.0232L67.0515 23.6899C67.6249 23.3465 68.3149 23.2465 68.9582 23.4132C69.6049 23.5799 70.1582 23.9965 70.4949 24.5765L81.1949 42.9099L76.8782 45.4299L67.4549 29.2832L39.0549 46.3099Z" fill="black"/>
</g>
<g id="Group_20">
<path id="Vector_19" d="M93.3343 60.8333H88.3343V47.5C88.3343 47.0467 87.9543 46.6667 87.501 46.6667H29.1676C26.7376 46.6667 24.441 45.7067 22.701 43.9667C20.9576 42.2233 20.001 39.93 20.001 37.5H25.001C25.001 38.5933 25.441 39.6367 26.2343 40.4333C27.031 41.2267 28.0743 41.6667 29.1676 41.6667H87.501C90.7176 41.6667 93.3343 44.2833 93.3343 47.5V60.8333Z" fill="black"/>
</g>
</g>
</g>
<defs>
<filter id="filter0_dd_292_3297" x="-5.05273" y="3.79004" width="130.106" height="118.736" filterUnits="userSpaceOnUse" color-interpolation-filters="sRGB">
<feFlood flood-opacity="0" result="BackgroundImageFix"/>
<feColorMatrix in="SourceAlpha" type="matrix" values="0 0 0 0 0 0 0 0 0 0 0 0 0 0 0 0 0 0 127 0" result="hardAlpha"/>
<feMorphology radius="1" operator="erode" in="SourceAlpha" result="effect1_dropShadow_292_3297"/>
<feOffset dy="3"/>
<feGaussianBlur stdDeviation="4"/>
<feColorMatrix type="matrix" values="0 0 0 0 0.196078 0 0 0 0 0.196078 0 0 0 0 0.278431 0 0 0 0.05 0"/>
<feBlend mode="normal" in2="BackgroundImageFix" result="effect1_dropShadow_292_3297"/>
<feColorMatrix in="SourceAlpha" type="matrix" values="0 0 0 0 0 0 0 0 0 0 0 0 0 0 0 0 0 0 127 0" result="hardAlpha"/>
<feOffset/>
<feGaussianBlur stdDeviation="0.5"/>
<feColorMatrix type="matrix" values="0 0 0 0 0.0470588 0 0 0 0 0.101961 0 0 0 0 0.294118 0 0 0 0.24 0"/>
<feBlend mode="normal" in2="effect1_dropShadow_292_3297" result="effect2_dropShadow_292_3297"/>
<feBlend mode="normal" in="SourceGraphic" in2="effect2_dropShadow_292_3297" result="shape"/>
</filter>
<clipPath id="clip0_292_3297">
<rect width="120" height="120" fill="white"/>
</clipPath>
</defs>
</svg>
