<svg width="120" height="120" viewBox="0 0 120 120" fill="none" xmlns="http://www.w3.org/2000/svg">
<g id="line-chart" clip-path="url(#clip0_292_3341)">
<g id="Group">
<g id="Vector" filter="url(#filter0_dd_292_3341)">
<path d="M13.8906 27.9234C13.8906 50.9801 1.94727 66.8134 1.94727 77.9234C1.94727 89.0334 8.33393 112.367 59.4439 112.367C110.554 112.367 118.054 80.9767 118.054 68.7567C118.057 11.5334 13.8906 -12.9099 13.8906 27.9234Z" fill="white"/>
</g>
</g>
<g id="Group_2">
<path id="Vector_2" d="M95 26.6665C92.2433 26.6665 90 24.4232 90 21.6665C90 18.9098 92.2433 16.6665 95 16.6665C97.7567 16.6665 100 18.9098 100 21.6665C100 24.4232 97.7567 26.6665 95 26.6665ZM95 19.9998C94.08 19.9998 93.3333 20.7465 93.3333 21.6665C93.3333 22.5865 94.08 23.3332 95 23.3332C95.92 23.3332 96.6667 22.5865 96.6667 21.6665C96.6667 20.7465 95.92 19.9998 95 19.9998Z" fill="#ECE7FC"/>
</g>
<g id="Group_3">
<path id="Vector_3" d="M70.8333 81.0667V29.1667C70.8333 25.4833 67.85 22.5 64.1667 22.5H29.1667C25.4833 22.5 22.5 25.4833 22.5 29.1667V81.0667C22.5 84.75 25.4833 87.7333 29.1667 87.7333H64.1667C67.85 87.7333 70.8333 84.75 70.8333 81.0667Z" fill="#ECE7FC"/>
</g>
<g id="Group_4">
<path id="Vector_4" d="M78.3327 97.5001C88.9181 97.5001 97.4994 88.9189 97.4994 78.3334C97.4994 67.748 88.9181 59.1667 78.3327 59.1667C67.7472 59.1667 59.166 67.748 59.166 78.3334C59.166 88.9189 67.7472 97.5001 78.3327 97.5001Z" fill="#7E5CEB"/>
</g>
<g id="Group_5">
<path id="Vector_5" d="M30 81.0667V29.1667C30 25.4833 32.9833 22.5 36.6667 22.5H29.1667C25.4833 22.5 22.5 25.4833 22.5 29.1667V81.0667C22.5 84.75 25.4833 87.7333 29.1667 87.7333H36.6667C32.9833 87.7333 30 84.75 30 81.0667Z" fill="#ECE7FC"/>
</g>
<g id="Group_6">
<path id="Vector_6" d="M66.666 78.3334C66.666 69.0334 73.2927 61.2834 82.0827 59.5401C80.8694 59.3001 79.616 59.1667 78.3327 59.1667C67.746 59.1667 59.166 67.7467 59.166 78.3334C59.166 88.9201 67.746 97.5001 78.3327 97.5001C79.616 97.5001 80.8694 97.3701 82.0827 97.1268C73.2927 95.3834 66.666 87.6334 66.666 78.3334Z" fill="#ECE7FC"/>
</g>
<g id="Group_7">
<path id="Vector_7" d="M78.3337 100C66.387 100 56.667 90.2803 56.667 78.3337C56.667 66.387 66.387 56.667 78.3337 56.667C90.2803 56.667 100 66.387 100 78.3337C100 90.2803 90.2803 100 78.3337 100ZM78.3337 61.667C69.1437 61.667 61.667 69.1437 61.667 78.3337C61.667 87.5237 69.1437 95.0003 78.3337 95.0003C87.5237 95.0003 95.0003 87.5237 95.0003 78.3337C95.0003 69.1437 87.5237 61.667 78.3337 61.667Z" fill="black"/>
</g>
<g id="Group_8">
<path id="Vector_8" d="M75.834 84.1665H80.834V91.6665H75.834V84.1665Z" fill="white"/>
</g>
<g id="Group_9">
<path id="Vector_9" d="M75.834 65.0002H80.834V72.5002H75.834V65.0002Z" fill="white"/>
</g>
<g id="Group_10">
<path id="Vector_10" d="M78.7503 88.3332H71.667V83.3332H78.7503C79.4403 83.3332 80.0003 82.7732 80.0003 82.0832C80.0003 81.3932 79.4403 80.8332 78.7503 80.8332H77.917C74.4703 80.8332 71.667 78.0299 71.667 74.5832C71.667 71.1366 74.4703 68.3333 77.917 68.3333H85.0003V73.3333H77.917C77.227 73.3333 76.667 73.8932 76.667 74.5832C76.667 75.2732 77.227 75.8332 77.917 75.8332H78.7503C82.197 75.8332 85.0003 78.6366 85.0003 82.0832C85.0003 85.5299 82.197 88.3332 78.7503 88.3332Z" fill="white"/>
</g>
<g id="Group_11">
<path id="Vector_11" d="M47.501 90.0002H29.1676C24.111 90.0002 20.001 85.8902 20.001 80.8336V29.1669C20.001 24.1102 24.111 20.0002 29.1676 20.0002H64.1677C69.2243 20.0002 73.3343 24.1102 73.3343 29.1669V47.5002H68.3343V29.1669C68.3343 26.8702 66.4643 25.0002 64.1677 25.0002H29.1676C26.871 25.0002 25.001 26.8702 25.001 29.1669V80.8336C25.001 83.1302 26.871 85.0002 29.1676 85.0002H47.501V90.0002Z" fill="black"/>
</g>
<g id="Group_12">
<path id="Vector_12" d="M34.2667 62.6L30.7334 59.0667L39.0667 50.7333C39.8634 49.9333 41.0934 49.77 42.0734 50.33L46.3167 52.7567L55.8034 44L59.1967 47.6767L48.3634 57.6767C47.5634 58.4167 46.3734 58.5533 45.4267 58.01L41.2534 55.6233L34.2667 62.6Z" fill="black"/>
</g>
<g id="Group_13">
<path id="Vector_13" d="M60.0013 56.6668H55.0013V48.3335H46.668V43.3335H57.5013C58.8813 43.3335 60.0013 44.4535 60.0013 45.8335V56.6668Z" fill="black"/>
</g>
</g>
<defs>
<filter id="filter0_dd_292_3341" x="-5.05273" y="3.63354" width="130.106" height="118.733" filterUnits="userSpaceOnUse" color-interpolation-filters="sRGB">
<feFlood flood-opacity="0" result="BackgroundImageFix"/>
<feColorMatrix in="SourceAlpha" type="matrix" values="0 0 0 0 0 0 0 0 0 0 0 0 0 0 0 0 0 0 127 0" result="hardAlpha"/>
<feMorphology radius="1" operator="erode" in="SourceAlpha" result="effect1_dropShadow_292_3341"/>
<feOffset dy="3"/>
<feGaussianBlur stdDeviation="4"/>
<feColorMatrix type="matrix" values="0 0 0 0 0.196078 0 0 0 0 0.196078 0 0 0 0 0.278431 0 0 0 0.05 0"/>
<feBlend mode="normal" in2="BackgroundImageFix" result="effect1_dropShadow_292_3341"/>
<feColorMatrix in="SourceAlpha" type="matrix" values="0 0 0 0 0 0 0 0 0 0 0 0 0 0 0 0 0 0 127 0" result="hardAlpha"/>
<feOffset/>
<feGaussianBlur stdDeviation="0.5"/>
<feColorMatrix type="matrix" values="0 0 0 0 0.0470588 0 0 0 0 0.101961 0 0 0 0 0.294118 0 0 0 0.24 0"/>
<feBlend mode="normal" in2="effect1_dropShadow_292_3341" result="effect2_dropShadow_292_3341"/>
<feBlend mode="normal" in="SourceGraphic" in2="effect2_dropShadow_292_3341" result="shape"/>
</filter>
<clipPath id="clip0_292_3341">
<rect width="120" height="120" fill="white"/>
</clipPath>
</defs>
</svg>
