<svg width="21" height="22" viewBox="0 0 21 22" fill="none" xmlns="http://www.w3.org/2000/svg">
<g id="Icon/Fill/navigation-2" filter="url(#filter0_dd_291_895)">
<path id="Mask" fill-rule="evenodd" clip-rule="evenodd" d="M12.3893 18.3335C12.3718 18.3335 12.3552 18.3327 12.3385 18.3319C11.9618 18.3094 11.6477 18.036 11.5727 17.666L10.291 11.3602C10.2243 11.0319 9.96849 10.776 9.64016 10.7094L3.33433 9.42688C2.96433 9.35271 2.69099 9.03854 2.66849 8.66188C2.64599 8.28438 2.87849 7.93938 3.23683 7.82104L16.5702 3.37688C16.8693 3.27521 17.1993 3.35354 17.4227 3.57771C17.646 3.80104 17.7235 4.13104 17.6243 4.43021L13.1793 17.7635C13.066 18.106 12.746 18.3335 12.3893 18.3335Z" fill="#231F20"/>
<mask id="mask0_291_895" style="mask-type:luminance" maskUnits="userSpaceOnUse" x="2" y="3" width="16" height="16">
<path id="Mask_2" fill-rule="evenodd" clip-rule="evenodd" d="M12.3893 18.3335C12.3718 18.3335 12.3552 18.3327 12.3385 18.3319C11.9618 18.3094 11.6477 18.036 11.5727 17.666L10.291 11.3602C10.2243 11.0319 9.96849 10.776 9.64016 10.7094L3.33433 9.42688C2.96433 9.35271 2.69099 9.03854 2.66849 8.66188C2.64599 8.28438 2.87849 7.93938 3.23683 7.82104L16.5702 3.37688C16.8693 3.27521 17.1993 3.35354 17.4227 3.57771C17.646 3.80104 17.7235 4.13104 17.6243 4.43021L13.1793 17.7635C13.066 18.106 12.746 18.3335 12.3893 18.3335Z" fill="white"/>
</mask>
<g mask="url(#mask0_291_895)">
<g id="&#240;&#159;&#142;&#168; Color">
<rect id="Base" x="1" width="20" height="20" fill="white"/>
</g>
</g>
</g>
<defs>
<filter id="filter0_dd_291_895" x="-1" y="-1" width="24" height="24" filterUnits="userSpaceOnUse" color-interpolation-filters="sRGB">
<feFlood flood-opacity="0" result="BackgroundImageFix"/>
<feColorMatrix in="SourceAlpha" type="matrix" values="0 0 0 0 0 0 0 0 0 0 0 0 0 0 0 0 0 0 127 0" result="hardAlpha"/>
<feOffset dy="1"/>
<feGaussianBlur stdDeviation="0.5"/>
<feColorMatrix type="matrix" values="0 0 0 0 0 0 0 0 0 0 0 0 0 0 0 0 0 0 0.03 0"/>
<feBlend mode="normal" in2="BackgroundImageFix" result="effect1_dropShadow_291_895"/>
<feColorMatrix in="SourceAlpha" type="matrix" values="0 0 0 0 0 0 0 0 0 0 0 0 0 0 0 0 0 0 127 0" result="hardAlpha"/>
<feOffset dy="1"/>
<feGaussianBlur stdDeviation="1"/>
<feColorMatrix type="matrix" values="0 0 0 0 0 0 0 0 0 0 0 0 0 0 0 0 0 0 0.03 0"/>
<feBlend mode="normal" in2="effect1_dropShadow_291_895" result="effect2_dropShadow_291_895"/>
<feBlend mode="normal" in="SourceGraphic" in2="effect2_dropShadow_291_895" result="shape"/>
</filter>
</defs>
</svg>
