<svg width="16" height="17" viewBox="0 0 16 17" fill="none" xmlns="http://www.w3.org/2000/svg">
<g id="ant-design:star-filled">
<path id="Vector" d="M14.1892 6.16558L10.222 5.58902L8.44859 1.99371C8.40015 1.89527 8.32046 1.81558 8.22203 1.76714C7.97515 1.64527 7.67515 1.74683 7.55171 1.99371L5.77828 5.58902L1.81109 6.16558C1.70171 6.18121 1.60171 6.23277 1.52515 6.31089C1.43259 6.40603 1.38159 6.53402 1.38334 6.66674C1.3851 6.79946 1.43948 6.92606 1.53453 7.01871L4.40484 9.81714L3.72671 13.7687C3.71081 13.8606 3.72098 13.9552 3.75608 14.0416C3.79117 14.128 3.84978 14.2029 3.92526 14.2577C4.00074 14.3126 4.09007 14.3451 4.18312 14.3518C4.27617 14.3584 4.36922 14.3388 4.45171 14.2953L8.00015 12.4296L11.5486 14.2953C11.6455 14.3468 11.758 14.364 11.8658 14.3453C12.1377 14.2984 12.3205 14.0406 12.2736 13.7687L11.5955 9.81714L14.4658 7.01871C14.5439 6.94214 14.5955 6.84214 14.6111 6.73277C14.6533 6.45933 14.4627 6.20621 14.1892 6.16558Z" fill="#FFD65A"/>
</g>
</svg>
