<svg width="46" height="46" viewBox="0 0 46 46" fill="none" xmlns="http://www.w3.org/2000/svg">
<circle opacity="0.1" cx="22.9999" cy="22.9999" r="22.7528" fill="white"/>
<path fill-rule="evenodd" clipRule="evenodd" d="M22.9178 19.9594L22.8817 19.3663C22.7736 17.8293 23.7226 16.4253 25.2242 15.8807C25.7768 15.6871 26.7138 15.6629 27.3265 15.8323C27.5667 15.9049 28.0232 16.147 28.3475 16.3648L28.9362 16.7642L29.5849 16.5585C29.9453 16.4495 30.4258 16.268 30.642 16.147C30.8462 16.0381 31.0264 15.9775 31.0264 16.0138C31.0264 16.2196 30.5819 16.9216 30.2096 17.3088C29.705 17.8535 29.8492 17.9019 30.8702 17.5388C31.4829 17.333 31.4949 17.333 31.3748 17.563C31.3027 17.684 30.9303 18.1076 30.5339 18.4949C29.8611 19.1606 29.8251 19.2332 29.8251 19.7899C29.8251 20.6492 29.4167 22.4404 29.0082 23.4208C28.2514 25.2604 26.6297 27.1605 25.008 28.1166C22.7256 29.4601 19.6863 29.7989 17.1276 29.0123C16.2747 28.746 14.8091 28.0682 14.8091 27.9472C14.8091 27.9109 15.2535 27.8625 15.7942 27.8504C16.9233 27.8262 18.0525 27.5115 19.0136 26.9548L19.6623 26.5675L18.9175 26.3133C17.8603 25.9502 16.9113 25.1151 16.6711 24.3285C16.599 24.0743 16.623 24.0622 17.2957 24.0622L17.9925 24.0501L17.4039 23.7717C16.7071 23.4208 16.0704 22.8277 15.7581 22.2226C15.5298 21.7869 15.2416 20.6855 15.3257 20.6008C15.3496 20.5645 15.6019 20.6371 15.8903 20.7339C16.7191 21.0365 16.8272 20.9639 16.3467 20.4556C15.4457 19.5358 15.1694 18.1681 15.6019 16.8731L15.8062 16.2922L16.599 17.0789C18.2208 18.6643 20.1308 19.6084 22.3171 19.8868L22.9178 19.9594Z" fill="white"/>
</svg>
