<svg width="58" height="38" viewBox="0 0 58 38" fill="none" xmlns="http://www.w3.org/2000/svg">
<g id="Logo / Payment / Small / Mastercard">
<path id="&#226;&#151;&#188;&#239;&#184;&#143; Background" d="M0.5 6C0.5 2.96243 2.96243 0.5 6 0.5H52C55.0376 0.5 57.5 2.96243 57.5 6V32C57.5 35.0376 55.0376 37.5 52 37.5H6C2.96243 37.5 0.5 35.0376 0.5 32V6Z" fill="white" stroke="#F2F2F2"/>
<g id="Logo">
<path id="Shape" fill-rule="evenodd" clip-rule="evenodd" d="M36.4408 12.6683L35.9669 15.5128C34.5459 14.6996 31.3119 14.5072 31.3116 16.0049C31.3116 16.5999 32.0433 17.0091 32.9252 17.5023C34.2627 18.2502 35.9458 19.1914 35.9458 21.2668C35.9458 24.5832 32.5272 25.8016 30.2611 25.8016C27.9957 25.8016 26.5129 25.0537 26.5129 25.0537L27.0066 22.0796C28.3662 23.213 32.4859 23.5351 32.4859 21.7377C32.4859 20.9824 31.6749 20.537 30.7345 20.0205C29.4369 19.3078 27.893 18.4598 27.893 16.4758C27.893 12.8388 31.8063 12.0908 33.4541 12.0908C34.9785 12.0908 36.4408 12.6683 36.4408 12.6683ZM47.5183 25.573H44.4692L44.0803 23.6055H39.8589L39.1667 25.573H35.7051L40.6576 13.3142C40.6576 13.3142 40.9579 12.3271 42.1905 12.3271H44.8599L47.5183 25.573ZM18.3514 12.3273L15.1856 21.4377L14.811 19.4759L14.8114 19.4766L13.694 13.5199C13.694 13.5199 13.5589 12.3273 12.1188 12.3273H6.88514L6.82373 12.5516C6.82373 12.5516 8.42419 12.8974 10.2972 14.0655L13.1822 25.5732H16.6421L21.9252 12.3273H18.3514ZM24.4652 25.5729H21.1445L23.2199 12.3273H26.5409L24.4652 25.5729ZM40.8156 20.888L42.5604 15.9312L43.5419 20.888H40.8156Z" fill="#2566AF"/>
<path id="Path" d="M14.8114 19.4765L13.694 13.5198C13.694 13.5198 13.5589 12.3271 12.1188 12.3271H6.88514L6.82373 12.5514C6.82373 12.5514 9.33922 13.0928 11.752 15.1213C14.0591 17.0601 14.8114 19.4765 14.8114 19.4765Z" fill="#E6A540"/>
</g>
</g>
</svg>
