<svg width="185" height="220" viewBox="0 0 185 220" fill="none" xmlns="http://www.w3.org/2000/svg">
<g opacity="0.4">
<path opacity="0.4" d="M128.823 21.284H46C46 17.2354 49.3545 13.8809 53.4031 13.8809C55.0226 13.8809 56.4107 14.3436 57.6831 15.269C58.0301 6.70909 65.0862 0 73.5304 0C80.8179 0 86.9486 4.85831 88.9151 11.5674C90.8815 9.71661 93.6577 8.55987 96.5495 8.55987C101.292 8.55987 105.341 12.8398 106.96 17.0041C109.274 15.8473 111.934 15.269 114.826 15.269C121.304 15.1533 126.74 16.8884 128.823 21.284Z" fill="#7E5CEB"/>
<g opacity="0.4">
<g opacity="0.4">
<path opacity="0.4" d="M184.274 48.2327C184.158 48.117 182.654 44.6468 178.258 45.1095C177.796 43.9528 175.367 38.8631 167.732 43.143C167.154 41.6393 163.684 34.1205 156.049 39.3258C155.933 38.5161 155.586 37.0123 154.545 35.6242C153.157 33.7735 150.959 33.0794 148.183 33.6578C145.638 34.1205 143.903 35.5086 143.094 37.5907C142.284 39.7885 142.631 42.102 142.747 43.143C141.127 43.2587 134.302 43.7214 133.493 48.2327L133.377 48.6954H184.505L184.274 48.2327Z" fill="#7E5CEB"/>
</g>
</g>
<g opacity="0.4">
<g opacity="0.4">
<path opacity="0.4" d="M45.5756 80.043C45.5756 79.9273 44.1875 76.4571 40.1389 76.9198C39.7919 75.7631 37.594 70.6734 30.7693 74.9534C30.1909 73.4496 27.1834 65.9308 20.2429 71.1361C20.1273 70.3264 19.8959 68.8226 18.9705 67.4345C17.6981 65.5838 15.7317 64.8897 13.1868 65.4681C10.8734 65.9308 9.36959 67.3189 8.55987 69.401C7.86583 71.5988 8.09718 73.9123 8.32853 74.9534C6.94044 75.069 0.694044 75.6474 0.115674 80.043L0 80.5057H45.8069L45.5756 80.043Z" fill="#7E5CEB"/>
</g>
</g>
</g>
<path opacity="0.2" d="M17.9307 122.727C12.2627 122.727 7.63574 118.1 7.63574 112.432C7.63574 106.764 12.2627 102.137 17.9307 102.137C23.5988 102.137 28.2257 106.764 28.2257 112.432C28.2257 118.215 23.5988 122.727 17.9307 122.727ZM17.9307 105.376C13.9978 105.376 10.7589 108.614 10.7589 112.547C10.7589 116.48 13.9978 119.719 17.9307 119.719C21.8636 119.719 25.1025 116.48 25.1025 112.547C25.1025 108.614 21.8636 105.376 17.9307 105.376Z" fill="#7E5CEB"/>
<path d="M59.5699 209.367C59.5699 209.367 59.6856 200.344 68.5925 200.344C68.5925 200.344 59.5699 200.228 59.5699 191.321C59.5699 191.321 59.4543 200.344 50.5474 200.344C50.5474 200.46 59.5699 200.46 59.5699 209.367Z" fill="#F9CA24"/>
<path d="M25.0983 41.6393C25.0983 41.6393 25.2139 32.6167 34.1208 32.6167C34.1208 32.6167 25.0983 32.501 25.0983 23.5941C25.0983 23.5941 24.9826 32.6167 16.0757 32.6167C16.0757 32.6167 25.0983 32.7324 25.0983 41.6393Z" fill="#F9CA24"/>
<path d="M37.7087 219.893C37.7087 219.893 37.8244 214.572 43.0297 214.572C43.0297 214.572 37.7087 214.456 37.7087 209.251C37.7087 209.251 37.593 214.572 32.3877 214.572C32.3877 214.688 37.7087 214.688 37.7087 219.893Z" fill="#F9CA24"/>
<path d="M168.42 141.813C168.42 141.813 168.536 136.492 173.741 136.492C173.741 136.492 168.42 136.376 168.42 131.171C168.42 131.171 168.304 136.492 163.099 136.492C163.099 136.492 168.42 136.608 168.42 141.813Z" fill="#F9CA24"/>
<path d="M142.046 14.6872C142.046 14.6872 142.161 9.36617 147.367 9.36617C147.367 9.36617 142.046 9.2505 142.046 4.04517C142.046 4.04517 141.93 9.36617 136.725 9.36617C136.84 9.48184 142.046 9.48184 142.046 14.6872Z" fill="#F9CA24"/>
<path d="M42.9138 60.9567C42.9138 60.9567 43.0295 55.6357 48.2348 55.6357C48.2348 55.6357 42.9138 55.52 42.9138 50.3147C42.9138 50.3147 42.7981 55.6357 37.5928 55.6357C37.7084 55.7514 42.9138 55.7514 42.9138 60.9567Z" fill="#F9CA24"/>
<path d="M80.2787 158.701V150.604H72.9912V159.627L79.469 160.205L80.2787 158.701Z" fill="#FFABAB"/>
<path d="M82.2475 170.5H57.7246V169.228C57.7246 168.881 57.7246 168.649 57.8403 168.302C58.1873 166.22 59.6911 164.369 61.8889 163.791C65.9375 162.634 71.4898 160.436 71.3741 157.082C72.9936 156.735 74.4973 157.66 75.0757 159.164L80.7437 158.123C81.9005 161.825 82.2475 165.757 82.3632 168.302C82.2475 169.228 82.2475 169.922 82.2475 170.5Z" fill="#2E266F"/>
<path d="M82.2475 170.5H57.7246V169.228C57.7246 168.881 57.7246 168.649 57.8403 168.302H82.3632C82.2475 169.228 82.2475 169.922 82.2475 170.5Z" fill="#5663AF"/>
<path d="M127.242 113.01V117.29C127.242 121.686 123.656 125.271 119.261 125.271H81.5508V156.041H68.9424V122.611C68.9424 117.29 73.2223 112.894 78.659 112.894H127.242V113.01Z" fill="#FF922C"/>
<path d="M111.277 65.815C111.161 66.2777 111.046 66.7404 111.161 67.3188L112.202 72.6398L104.452 74.1435L103.411 68.0128C102.833 68.1285 102.139 68.2442 101.445 68.4755C100.751 68.5912 100.172 68.7069 99.5938 68.9382C98.8998 69.0539 98.3214 68.9382 97.8587 68.4755C97.7431 68.3598 97.6274 68.1285 97.5117 68.0128C93.8101 63.6172 94.1572 61.5351 94.8512 59.9156C95.3139 58.8746 96.0079 57.9492 96.0079 56.6768C95.4296 52.1655 98.6684 48.8109 102.717 47.7699C103.758 47.5385 104.799 47.4229 105.956 47.4229C107.113 47.4229 108.154 47.6542 109.079 48.1169C109.889 48.4639 110.699 48.8109 111.393 49.3893C113.706 51.1244 115.326 53.9006 115.441 56.9081C115.557 60.0313 114.284 62.8075 112.087 64.6583C111.624 64.8896 111.393 65.3523 111.277 65.815Z" fill="#FFABAB"/>
<path d="M115.327 56.7925C115.442 59.9157 114.17 62.6919 111.972 64.5427C111.625 64.8897 111.394 65.2367 111.162 65.6994L107.577 62.4605C107.577 62.4605 108.965 60.8411 107.23 58.5276C105.957 56.9082 104.916 58.1806 104.338 58.9903C104.222 59.2217 103.759 59.106 103.759 58.8746C103.181 55.1731 104.569 52.9753 104.569 52.9753L102.718 47.6543C103.759 47.4229 104.8 47.3073 105.957 47.3073C107.114 47.3073 108.155 47.5386 109.08 48.0013L111.394 49.2737C113.707 51.0088 115.211 53.785 115.327 56.7925Z" fill="#2E266F"/>
<path d="M97.3973 57.7178C97.3973 57.9492 97.2816 58.1805 97.1659 58.1805C97.0502 58.1805 96.9346 57.9492 96.9346 57.7178C96.9346 57.4865 97.0502 57.2551 97.1659 57.2551C97.2816 57.2551 97.3973 57.4865 97.3973 57.7178Z" fill="#2E266F"/>
<path d="M96.4705 55.9828C96.4705 55.9828 96.3548 54.8261 98.3213 55.8671" stroke="#2E266F" stroke-width="0.25" stroke-miterlimit="10" stroke-linecap="round"/>
<path d="M101.213 60.7253L106.303 57.8335L107.344 63.2702L101.213 67.2031" stroke="white" stroke-width="0.25" stroke-miterlimit="10" stroke-linecap="round"/>
<path d="M105.146 58.8746C105.146 58.8746 107.112 55.0573 109.079 57.3708C110.93 59.6843 109.195 65.121 105.724 63.1545" fill="#FFABAB"/>
<path d="M105.146 58.8746C105.146 58.8746 107.112 55.0573 109.079 57.3708C110.93 59.6843 109.195 65.121 105.724 63.1545" stroke="#2E266F" stroke-width="0.25" stroke-miterlimit="10" stroke-linecap="round"/>
<path d="M106.304 61.3038C106.304 61.3038 106.188 57.7179 108.386 58.4119" stroke="#2E266F" stroke-width="0.25" stroke-miterlimit="10" stroke-linecap="round"/>
<path d="M107.575 60.9567C107.575 60.9567 107.922 59.4529 106.881 58.9902" stroke="#2E266F" stroke-width="0.25" stroke-miterlimit="10" stroke-linecap="round"/>
<path d="M101.445 68.4756C100.751 68.5913 100.172 68.707 99.5938 68.9383C98.8998 69.054 98.3214 68.9383 97.8587 68.4756C97.7431 68.36 97.6274 68.1286 97.5117 68.0129C93.8101 63.6173 94.1572 61.5352 94.8512 59.9158C96.0079 60.0314 99.5938 60.4941 100.866 60.4941C103.064 60.2628 103.642 63.733 101.445 68.4756Z" fill="#F9CA24"/>
<path d="M116.023 72.0614C112.321 71.5987 108.041 72.8711 104.34 75.763C103.877 76.11 103.414 76.457 102.952 76.804C102.258 75.1846 100.522 71.2517 100.522 71.2517L113.015 67.5501C113.015 67.4345 114.403 69.5166 116.023 72.0614Z" fill="#FF922C"/>
<path d="M26.7186 194.097C36.5569 194.097 44.5324 186.122 44.5324 176.284C44.5324 166.445 36.5569 158.47 26.7186 158.47C16.8803 158.47 8.90479 166.445 8.90479 176.284C8.90479 186.122 16.8803 194.097 26.7186 194.097Z" fill="#2E266F"/>
<path d="M26.7203 186.463C32.3422 186.463 36.8996 181.905 36.8996 176.284C36.8996 170.662 32.3422 166.104 26.7203 166.104C21.0984 166.104 16.541 170.662 16.541 176.284C16.541 181.905 21.0984 186.463 26.7203 186.463Z" fill="#5663AF"/>
<path d="M30.0729 176.284C30.0729 178.134 28.5691 179.638 26.7183 179.638C24.8675 179.638 23.3638 178.134 23.3638 176.284C23.3638 174.433 24.8675 172.929 26.7183 172.929C28.5691 172.929 30.0729 174.433 30.0729 176.284Z" fill="white"/>
<path d="M32.2729 166.104H6.70898C6.70898 166.104 14.2278 145.977 38.982 145.977L32.2729 166.104Z" fill="#7E5CEB"/>
<path d="M114.747 65.2366C114.168 65.815 113.474 66.2777 112.549 66.2777H105.608C103.642 66.2777 102.022 64.6583 102.022 62.6918V52.6282H113.359L114.747 65.2366Z" fill="#BA7F17"/>
<path opacity="0.2" d="M91.6147 52.6281C91.6147 52.6281 89.0698 59.5686 94.2752 67.6658L105.38 63.2702L103.413 51.7028L91.6147 52.6281Z" fill="url(#paint0_linear_135_8659)"/>
<path d="M116.02 48.2326C113.591 45.3407 110.121 43.3743 106.072 43.3743C102.139 43.3743 98.5531 45.2251 96.124 48.2326C95.0829 49.505 94.2732 51.0088 93.6948 52.6282H102.717V62.6918C102.717 64.6583 104.337 66.2777 106.303 66.2777H113.244C114.053 66.2777 114.863 65.9307 115.442 65.2367C117.408 62.9232 119.143 60.0313 119.143 56.7925C119.143 53.5536 117.986 50.5461 116.02 48.2326Z" fill="#FF922C"/>
<path d="M102.836 48.2325V52.6282H90.9215C90.2274 52.6282 90.1118 51.7028 90.6901 51.4714L95.3171 49.505L95.4328 48.3482H102.836V48.2325Z" fill="#3C427F"/>
<path d="M102.836 48.2325V51.9341C99.5968 49.505 95.3169 49.505 95.3169 49.505L95.4326 48.3482H102.836V48.2325Z" fill="#2E266F"/>
<path d="M101.678 49.6207C101.678 49.852 101.447 50.0834 101.216 50.0834C100.984 50.0834 100.753 49.852 100.753 49.6207C100.753 49.3893 100.984 49.158 101.216 49.158C101.447 49.158 101.678 49.2736 101.678 49.6207Z" fill="white"/>
<path d="M49.8573 96.4686V109.077C47.0812 108.383 44.999 105.838 44.999 102.831C44.999 99.7075 47.0812 97.1627 49.8573 96.4686Z" fill="#F9CA24"/>
<path d="M66.1645 100.864C64.7764 103.178 63.0413 106.069 61.4218 109.193H51.4739C51.3582 109.193 51.2425 109.193 51.0112 109.193C50.5485 109.193 50.2015 109.077 49.7388 108.961V96.4685C50.0858 96.3529 50.5485 96.2372 51.0112 96.2372C51.1269 96.2372 51.2425 96.2372 51.4739 96.2372H63.6196C65.9331 96.2372 67.4369 98.8977 66.1645 100.864Z" fill="#7E5CEB"/>
<path d="M61.4218 109.308C60.8435 110.35 60.2651 111.391 59.6867 112.547H54.3657C55.0598 111.506 55.6381 110.465 56.3322 109.308H61.4218Z" fill="#7E5CEB"/>
<path d="M65.1229 115.786C59.4549 123.999 46.1524 146.324 48.4658 170.5C48.5815 171.888 48.8129 173.276 49.0442 174.664H32.7342C29.3796 174.664 27.0661 171.425 28.1072 168.186C31.4618 158.123 39.4433 137.07 54.3652 112.432H63.5034C65.1229 112.432 66.1639 114.282 65.1229 115.786Z" fill="#7E5CEB"/>
<path d="M51.1289 95.1963H49.8564V110.35H51.1289V95.1963Z" fill="#7E5CEB"/>
<path d="M127.124 123.652C115.788 120.76 104.105 112.894 104.105 112.894L105.146 110.928C102.717 109.656 104.221 106.764 104.105 101.327C103.989 95.8903 103.411 91.032 103.411 91.032C92.5375 97.2784 68.1303 102.484 68.1303 102.484L66.7422 97.3941C66.7422 97.3941 78.5409 93.2298 89.7613 86.7521C95.6607 83.2818 99.5936 79.4646 103.064 76.8041C103.527 76.4571 103.989 76.11 104.452 75.763C104.799 75.416 105.262 75.1847 105.609 74.8376C108.963 72.6398 112.78 71.7144 116.019 72.0615C116.945 73.4495 117.986 75.069 118.795 76.3414C119.49 77.3825 120.068 78.3079 120.531 78.8862C125.389 85.1326 129.437 97.9724 127.124 123.652Z" fill="#F9CA24"/>
<path d="M56.7942 102.484C56.6786 102.484 56.7942 102.484 56.7942 102.484C56.4472 102.368 56.3315 102.137 56.3315 101.905L59.5704 87.099C59.5704 86.8676 59.9174 86.752 60.1488 86.752C60.3801 86.752 60.4958 87.099 60.4958 87.3303L57.2569 102.137C57.1413 102.368 57.0256 102.484 56.7942 102.484Z" fill="#7E5CEB"/>
<path d="M59.6881 105.029C59.8038 106.07 58.9941 106.995 57.953 106.879C56.565 106.764 54.8298 105.838 54.3671 102.715C53.6731 97.1627 60.9606 96.5843 63.7367 98.4351L68.0167 97.047L68.9421 101.211L64.6621 102.368C64.6621 102.368 62.3487 106.417 60.3822 105.029C58.3001 103.525 59.6881 105.029 59.6881 105.029Z" fill="#FF922C"/>
<path d="M58.6448 105.607C60.2419 105.607 61.5366 104.312 61.5366 102.715C61.5366 101.118 60.2419 99.8232 58.6448 99.8232C57.0477 99.8232 55.7529 101.118 55.7529 102.715C55.7529 104.312 57.0477 105.607 58.6448 105.607Z" fill="#7E5CEB"/>
<path d="M103.411 90.9163C92.5375 97.1627 68.1303 102.368 68.1303 102.368L66.7422 97.2784C66.7422 97.2784 78.5409 93.1141 89.7613 86.6363C95.6607 83.1661 99.5936 79.3489 103.064 76.6884C103.527 76.3414 103.989 75.9943 104.452 75.6473C104.799 75.3003 105.262 75.0689 105.609 74.7219C111.971 79.3489 110.814 86.8677 103.411 90.9163Z" fill="#F9CA24"/>
<path d="M61.9993 90.3379H61.768C59.6858 90.3379 58.0664 88.7185 58.0664 86.6364V85.711C58.0664 83.6288 59.6858 82.0094 61.768 82.0094H61.9993V90.3379Z" fill="#7E5CEB"/>
<path d="M131.871 194.097C141.709 194.097 149.685 186.122 149.685 176.284C149.685 166.445 141.709 158.47 131.871 158.47C122.033 158.47 114.057 166.445 114.057 176.284C114.057 186.122 122.033 194.097 131.871 194.097Z" fill="#2E266F"/>
<path d="M131.873 186.463C137.495 186.463 142.052 181.905 142.052 176.284C142.052 170.662 137.495 166.104 131.873 166.104C126.251 166.104 121.693 170.662 121.693 176.284C121.693 181.905 126.251 186.463 131.873 186.463Z" fill="#5663AF"/>
<path d="M131.871 179.638C133.724 179.638 135.226 178.136 135.226 176.284C135.226 174.431 133.724 172.929 131.871 172.929C130.018 172.929 128.517 174.431 128.517 176.284C128.517 178.136 130.018 179.638 131.871 179.638Z" fill="white"/>
<path d="M166.917 174.664H49.1604C48.9291 173.276 48.6977 171.888 48.582 170.5H88.3739C88.3739 170.5 93.5792 133.022 105.956 133.022C121.341 133.022 112.434 133.022 134.181 133.022C163.331 133.022 166.917 174.664 166.917 174.664Z" fill="#7E5CEB"/>
<path d="M158.126 174.664H105.61C106.536 160.899 117.872 150.026 131.868 150.026C145.865 150.026 157.317 160.899 158.126 174.664Z" fill="#7E5CEB"/>
<path d="M113.709 133.022H103.53C102.257 133.022 101.101 131.981 101.101 130.592C101.101 127.122 103.877 124.346 107.347 124.346H117.064C127.59 124.346 123.194 120.876 130.482 120.876H136.497C138.116 120.876 139.389 122.148 139.389 123.768C139.389 128.857 135.224 133.022 130.135 133.022H113.709Z" fill="#2E266F"/>
<path d="M164.489 67.5502H144.824C135.455 67.5502 127.936 75.069 127.936 84.4386V108.73C127.936 113.357 131.638 117.059 136.265 117.059H171.082V74.1436C171.082 70.5577 168.075 67.5502 164.489 67.5502Z" fill="#FF922C"/>
<path d="M133.142 135.219H115.328C114.865 135.219 114.634 134.872 114.634 134.525C114.634 134.063 114.981 133.831 115.328 133.831H131.638V127.585C131.638 122.727 135.571 118.794 140.429 118.794H170.504C170.967 118.794 171.198 119.141 171.198 119.488C171.198 119.95 170.851 120.182 170.504 120.182H140.429C136.381 120.182 133.142 123.421 133.142 127.469V135.219Z" fill="#7E5CEB"/>
<path d="M157.787 100.682C162.395 96.074 162.395 88.6035 157.787 83.9959C153.179 79.3882 145.709 79.3882 141.101 83.9959C136.494 88.6035 136.494 96.074 141.101 100.682C145.709 105.289 153.179 105.289 157.787 100.682Z" fill="white"/>
<path d="M158.015 88.3714L147.951 98.435L141.011 91.4946L143.209 89.2968L147.951 94.0394L155.817 86.1736L158.015 88.3714Z" fill="#F0932B"/>
<defs>
<linearGradient id="paint0_linear_135_8659" x1="95.454" y1="62.1619" x2="101.178" y2="54.3118" gradientUnits="userSpaceOnUse">
<stop/>
<stop offset="1" stop-opacity="0"/>
</linearGradient>
</defs>
</svg>
