<svg width="163" height="201" viewBox="0 0 163 201" fill="none" xmlns="http://www.w3.org/2000/svg">
<path d="M139.613 150.196C139.613 150.196 139.713 142.396 147.413 142.396C147.413 142.396 139.613 142.296 139.613 134.596C139.613 134.596 139.513 142.396 131.813 142.396C131.913 142.396 139.613 142.496 139.613 150.196Z" fill="#F9CA24"/>
<path d="M44.613 185.296C44.613 185.296 44.713 177.496 52.413 177.496C52.413 177.496 44.613 177.396 44.613 169.696C44.613 169.696 44.513 177.496 36.813 177.496C36.913 177.496 44.613 177.596 44.613 185.296Z" fill="#F9CA24"/>
<path d="M91.7131 59.1964C91.7131 59.1964 91.8131 51.3964 99.5131 51.3964C99.5131 51.3964 91.7131 51.2964 91.7131 43.5964C91.7131 43.5964 91.6131 51.3964 83.9131 51.3964C83.9131 51.3964 91.7131 51.4964 91.7131 59.1964Z" fill="#F9CA24"/>
<path d="M120.713 173.496C120.713 173.496 120.813 168.896 125.313 168.896C125.313 168.896 120.713 168.796 120.713 164.296C120.713 164.296 120.613 168.896 116.113 168.896C116.113 168.996 120.713 168.996 120.713 173.496Z" fill="#F9CA24"/>
<path d="M21.8129 174.296C21.8129 174.296 21.9129 169.696 26.4129 169.696C26.4129 169.696 21.8129 169.596 21.8129 165.096C21.8129 165.096 21.7129 169.696 17.2129 169.696C17.3129 169.796 21.8129 169.796 21.8129 174.296Z" fill="#F9CA24"/>
<path d="M154.013 80.3964C149.113 80.3964 145.113 76.3964 145.113 71.4964C145.113 66.5964 149.113 62.5964 154.013 62.5964C158.913 62.5964 162.913 66.5964 162.913 71.4964C162.913 76.3964 158.913 80.3964 154.013 80.3964ZM154.013 65.2964C150.613 65.2964 147.813 68.0964 147.813 71.4964C147.813 74.8964 150.613 77.6964 154.013 77.6964C157.413 77.6964 160.213 74.8964 160.213 71.4964C160.213 68.0964 157.413 65.2964 154.013 65.2964Z" fill="#7E5CEB" fill-opacity="0.45"/>
<path d="M89.6145 200.896C80.1145 200.896 72.4146 193.196 72.4146 183.696C72.4146 174.196 80.1145 166.496 89.6145 166.496C99.1145 166.496 106.815 174.196 106.815 183.696C106.815 193.196 99.1145 200.896 89.6145 200.896ZM89.6145 169.196C81.6145 169.196 75.1145 175.696 75.1145 183.696C75.1145 191.696 81.6145 198.196 89.6145 198.196C97.6145 198.196 104.115 191.696 104.115 183.696C104.115 175.696 97.6145 169.196 89.6145 169.196Z" fill="#7E5CEB" fill-opacity="0.45"/>
<path d="M152.284 113.861C152.816 109.253 149.511 105.085 144.903 104.553C140.294 104.021 136.127 107.326 135.595 111.934C135.063 116.543 138.367 120.71 142.976 121.242C147.584 121.775 151.752 118.47 152.284 113.861Z" fill="#FF922C"/>
<path d="M150.013 106.896C152.913 110.596 152.313 115.896 148.613 118.696C144.913 121.596 139.613 120.996 136.813 117.296C133.913 113.596 134.513 108.296 138.213 105.496C141.813 102.596 147.113 103.296 150.013 106.896Z" fill="#F9CA24"/>
<path d="M149.013 107.696C151.513 110.796 150.913 115.296 147.813 117.796C144.713 120.296 140.213 119.696 137.713 116.596C135.213 113.496 135.813 108.996 138.913 106.496C142.013 104.096 146.513 104.596 149.013 107.696Z" fill="#FF922C"/>
<path d="M145.713 110.896C145.313 110.796 144.913 110.896 144.613 110.996C144.313 111.096 143.913 111.196 143.513 111.396C143.413 111.396 143.413 111.496 143.313 111.496C143.013 111.696 142.713 111.796 142.513 111.896H142.413C142.213 111.996 141.913 111.996 141.713 111.996C141.513 111.996 141.313 111.896 141.213 111.696C141.013 111.496 141.013 111.196 141.113 110.896C141.113 110.696 141.213 110.596 141.413 110.396C141.513 110.196 141.713 110.096 141.913 109.896C142.013 109.796 142.113 109.696 142.213 109.696C142.413 109.596 142.613 109.496 142.813 109.396C143.113 109.296 143.513 109.196 143.913 109.096L143.613 107.996C143.213 107.996 142.813 108.096 142.413 108.296C142.113 108.396 141.813 108.596 141.513 108.796L140.813 107.896L139.913 108.596L140.613 109.496C140.413 109.796 140.213 109.996 140.013 110.296C139.813 110.696 139.713 111.196 139.713 111.596C139.713 111.996 139.913 112.396 140.113 112.696C140.413 113.096 140.813 113.296 141.113 113.396C141.513 113.496 141.913 113.396 142.213 113.296C142.513 113.196 142.813 113.096 143.213 112.896C143.313 112.796 143.413 112.796 143.613 112.696C143.913 112.596 144.113 112.496 144.313 112.396C144.413 112.396 144.513 112.296 144.613 112.296C144.813 112.196 145.113 112.196 145.313 112.196C145.513 112.196 145.713 112.296 145.813 112.496C146.013 112.696 146.013 112.996 145.913 113.296C145.813 113.496 145.713 113.696 145.513 113.896C145.413 113.996 145.213 114.196 145.113 114.296C145.013 114.396 144.813 114.496 144.713 114.596C144.513 114.696 144.213 114.896 143.913 114.996C143.413 115.196 143.013 115.196 142.613 115.196L142.913 116.396C143.313 116.396 143.813 116.296 144.313 116.096C144.713 115.996 145.013 115.796 145.413 115.496L146.113 116.396L147.013 115.696L146.313 114.796C146.613 114.496 146.813 114.196 147.013 113.896C147.213 113.496 147.313 112.996 147.313 112.596C147.313 112.196 147.113 111.796 146.913 111.496C146.413 111.196 146.113 110.996 145.713 110.896Z" fill="#F9CA24"/>
<path d="M33.0128 150.296C31.6128 154.696 26.9128 157.196 22.4128 155.796C18.0128 154.396 15.5128 149.696 16.9128 145.196C18.3128 140.796 23.0128 138.296 27.5128 139.696C32.0128 141.096 34.4128 145.896 33.0128 150.296Z" fill="#FF922C"/>
<path d="M27.1998 154.983C31.7198 153.937 34.5363 149.425 33.4906 144.905C32.4449 140.385 27.9331 137.569 23.4131 138.614C18.8932 139.66 16.0767 144.172 17.1224 148.692C18.168 153.212 22.6799 156.028 27.1998 154.983Z" fill="#F9CA24"/>
<path d="M32.2988 148.392C33.1796 144.514 30.75 140.656 26.8722 139.775C22.9943 138.895 19.1367 141.324 18.2559 145.202C17.3751 149.08 19.8047 152.938 23.6826 153.818C27.5604 154.699 31.418 152.27 32.2988 148.392Z" fill="#FF922C"/>
<path d="M27.7127 148.096C27.5127 147.696 27.3127 147.396 27.0127 147.196C26.7127 146.996 26.4127 146.796 26.0127 146.496C25.9127 146.496 25.9127 146.396 25.8127 146.396C25.5127 146.196 25.2127 145.996 25.0127 145.896C25.0127 145.896 24.9127 145.896 24.9127 145.796C24.7127 145.696 24.5127 145.496 24.4127 145.296C24.3127 145.096 24.3127 144.896 24.3127 144.696C24.4127 144.396 24.6127 144.196 24.9127 144.096C25.1127 144.096 25.2127 143.996 25.4127 144.096C25.6127 144.096 25.9127 144.196 26.1127 144.296C26.2127 144.296 26.3127 144.396 26.5127 144.396C26.7127 144.496 26.9127 144.596 27.1127 144.696C27.4127 144.896 27.7127 145.096 28.0127 145.396L28.8127 144.496C28.6127 144.196 28.2127 143.896 27.8127 143.696C27.5127 143.496 27.2127 143.396 26.9127 143.196L27.2127 142.096L26.1127 141.796L25.8127 142.896C25.5127 142.796 25.1127 142.796 24.8127 142.896C24.3127 142.996 23.9127 143.096 23.6127 143.396C23.3127 143.696 23.1127 143.996 22.9127 144.396C22.8127 144.896 22.8127 145.296 22.9127 145.596C23.1127 145.996 23.3127 146.296 23.6127 146.496C23.8127 146.696 24.1127 146.896 24.5127 147.096C24.6127 147.196 24.7127 147.196 24.9127 147.296C25.1127 147.396 25.4127 147.596 25.5127 147.696C25.6127 147.796 25.7127 147.796 25.7127 147.896C25.9127 147.996 26.1127 148.196 26.2127 148.396C26.3127 148.596 26.3127 148.796 26.3127 148.996C26.2127 149.296 26.0127 149.496 25.7127 149.596C25.5127 149.696 25.3127 149.696 25.0127 149.596C24.8127 149.596 24.6127 149.496 24.4127 149.496C24.2127 149.396 24.1127 149.396 23.9127 149.296C23.6127 149.196 23.4127 148.996 23.2127 148.896C22.8127 148.596 22.5127 148.296 22.3127 147.996L21.5127 148.896C21.7127 149.296 22.1127 149.596 22.5127 149.896C22.8127 150.096 23.2127 150.296 23.6127 150.496L23.3127 151.596L24.4127 151.896L24.7127 150.796C25.1127 150.896 25.5127 150.896 25.8127 150.896C26.3127 150.796 26.7127 150.696 27.0127 150.396C27.3127 150.096 27.5127 149.796 27.7127 149.396C27.8127 148.796 27.8127 148.396 27.7127 148.096Z" fill="#F9CA24"/>
<path d="M104.813 90.7964V99.2964H51.613C49.213 99.2964 47.313 97.3964 47.313 95.0964C47.313 94.9964 47.313 94.8964 47.313 94.7964C47.413 92.5964 49.313 90.7964 51.513 90.7964H104.813Z" fill="#30336B"/>
<path d="M108.213 93.6964H52.2129V108.496H108.213V93.6964Z" fill="#7E5CEB"/>
<path d="M95.5131 67.3964L123.013 71.8964C125.813 72.3964 127.813 74.7964 127.413 77.3964L119.013 128.996C118.613 131.596 115.913 133.296 113.113 132.796L85.6131 128.296C82.8131 127.796 80.8131 125.396 81.2131 122.796L89.6131 71.2964C90.0131 68.6964 92.7131 66.9964 95.5131 67.3964Z" fill="#F9CA24"/>
<path d="M95.7066 67.4587L85.7358 128.35L90.5717 129.142L100.542 68.2506L95.7066 67.4587Z" fill="#FF922C"/>
<path d="M93.9361 119.749L92.8857 126.164L94.4648 126.422L95.5152 120.007L93.9361 119.749Z" fill="white"/>
<path d="M95.504 110.215L94.4536 116.63L96.0327 116.888L97.0831 110.474L95.504 110.215Z" fill="white"/>
<path d="M97.0885 100.584L96.0381 106.999L97.6171 107.257L98.6675 100.842L97.0885 100.584Z" fill="white"/>
<path d="M98.6715 90.9492L97.6211 97.364L99.2001 97.6226L100.251 91.2077L98.6715 90.9492Z" fill="white"/>
<path d="M100.256 81.3176L99.2061 87.7324L100.785 87.991L101.835 81.5761L100.256 81.3176Z" fill="white"/>
<path d="M101.824 71.7834L100.774 78.1982L102.353 78.4568L103.403 72.042L101.824 71.7834Z" fill="white"/>
<path d="M113.655 74.6672L111.716 86.51L119.808 87.8351L121.748 75.9923L113.655 74.6672Z" fill="#FFC75B"/>
<path d="M112.313 96.4963H55.0132V111.296H112.313V96.4963Z" fill="#7E5CEB"/>
<path d="M56.513 99.2964C56.513 99.2964 58.813 93.3964 51.813 93.3964V104.896H56.313L56.513 99.2964Z" fill="#7E5CEB"/>
<path d="M116.413 99.2963V152.396H51.613C49.213 152.396 47.313 150.496 47.313 148.196V95.0963C47.313 97.3963 49.213 99.2963 51.613 99.2963H116.413Z" fill="#3C4382"/>
<path opacity="0.2" d="M116.413 99.2963V152.396H51.613C49.213 152.396 47.313 150.496 47.313 148.196V95.0963C47.313 97.3963 49.213 99.2963 51.613 99.2963H116.413Z" fill="#2E266F"/>
<path d="M111.569 2.48576e-05L87.4102 24.2068L129.878 66.5908L154.037 42.384L111.569 2.48576e-05Z" fill="#FF922C"/>
<path d="M149.713 44.0964L131.613 62.1964C130.513 61.6964 129.213 61.6964 128.013 62.1964L91.7129 25.9964C92.2129 24.8964 92.2129 23.5964 91.7129 22.3964L109.813 4.29639C110.913 4.79639 112.213 4.79639 113.413 4.29639L149.813 40.5964C149.213 41.6964 149.213 42.9964 149.713 44.0964Z" fill="#FFD65A"/>
<path d="M120.713 46.3964C127.948 46.3964 133.813 40.5313 133.813 33.2964C133.813 26.0615 127.948 20.1964 120.713 20.1964C113.478 20.1964 107.613 26.0615 107.613 33.2964C107.613 40.5313 113.478 46.3964 120.713 46.3964Z" fill="#FF922C"/>
<path d="M123.413 37.1964C123.413 36.4964 123.313 35.8964 123.113 35.1964C122.913 34.6964 122.513 33.9964 122.113 33.2964C122.013 33.1964 122.013 33.0964 121.913 32.9964C121.613 32.3964 121.313 31.9964 121.113 31.5964C121.113 31.4964 121.013 31.4964 121.013 31.4964C120.813 31.0964 120.713 30.6964 120.713 30.3964C120.713 29.9964 120.813 29.6964 121.113 29.3964C121.513 28.9964 122.013 28.8964 122.513 28.9964C122.813 29.0964 123.113 29.1964 123.413 29.3964C123.713 29.5964 124.113 29.8964 124.413 30.1964C124.613 30.3964 124.713 30.4964 124.813 30.6964C125.013 30.9964 125.313 31.2964 125.513 31.6964C125.813 32.2964 126.113 32.8964 126.213 33.5964L128.113 32.7964C128.013 32.0964 127.713 31.3964 127.313 30.6964C127.013 30.1964 126.613 29.6964 126.313 29.1964L127.713 27.7964L126.313 26.3964L124.813 27.7964C124.313 27.3964 123.813 27.0964 123.313 26.8964C122.513 26.5964 121.713 26.4964 121.013 26.5964C120.313 26.6964 119.713 27.0964 119.113 27.5964C118.513 28.1964 118.113 28.8964 118.113 29.5964C118.113 30.2964 118.213 30.8964 118.413 31.5964C118.613 32.0964 118.913 32.5964 119.313 33.2964C119.413 33.4964 119.513 33.6964 119.713 33.8964C120.013 34.2964 120.213 34.6964 120.313 34.9964C120.413 35.1964 120.513 35.2964 120.513 35.3964C120.713 35.7964 120.813 36.1964 120.813 36.5964C120.813 36.9964 120.713 37.2964 120.413 37.5964C120.013 37.9964 119.613 38.0964 119.013 37.9964C118.613 37.8964 118.313 37.6964 117.913 37.3964C117.613 37.1964 117.413 36.9964 117.113 36.6964C116.913 36.4964 116.713 36.2964 116.513 35.9964C116.213 35.5964 115.913 35.1964 115.713 34.6964C115.313 33.8964 115.113 33.1964 115.013 32.4964L113.013 33.2964C113.113 33.9964 113.313 34.8964 113.813 35.7964C114.113 36.3964 114.513 36.9964 115.013 37.5964L113.613 38.9964L115.013 40.3964L116.413 38.9964C117.013 39.4964 117.513 39.7964 118.113 39.9964C118.913 40.2964 119.713 40.3964 120.413 40.2964C121.113 40.1964 121.713 39.7964 122.313 39.2964C123.013 38.4964 123.413 37.8964 123.413 37.1964Z" fill="#FFD65A"/>
<path d="M25.2977 59.6747L0 110.64L29.1102 125.09L54.408 74.1242L25.2977 59.6747Z" fill="#FF922C"/>
<path d="M28.213 62.8965L50.013 73.6965C49.913 74.8965 50.313 75.9965 51.113 76.8965L29.413 120.596C28.213 120.496 27.113 120.896 26.213 121.696L4.41299 110.896C4.51299 109.696 4.11299 108.596 3.31299 107.696L25.013 63.9965C26.213 64.0965 27.313 63.6965 28.213 62.8965Z" fill="#FFD65A"/>
<path d="M27.213 104.696C34.0613 104.696 39.613 99.1448 39.613 92.2965C39.613 85.4482 34.0613 79.8965 27.213 79.8965C20.3647 79.8965 14.813 85.4482 14.813 92.2965C14.813 99.1448 20.3647 104.696 27.213 104.696Z" fill="#FF922C"/>
<path d="M29.913 88.6964C29.313 88.8964 28.713 89.1964 28.213 89.5964C27.813 89.9964 27.313 90.4964 26.813 91.0964C26.713 91.1964 26.613 91.2964 26.513 91.3964C26.113 91.8964 25.813 92.2964 25.513 92.4964L25.413 92.5964C25.113 92.8964 24.813 93.0964 24.513 93.1964C24.213 93.2964 23.913 93.2964 23.513 93.1964C23.013 92.9964 22.813 92.5964 22.713 91.9964C22.713 91.6964 22.713 91.3964 22.813 91.0964C22.913 90.7964 23.013 90.3964 23.213 89.8964C23.313 89.6964 23.413 89.4964 23.513 89.2964C23.713 88.9964 23.913 88.6964 24.213 88.3964C24.613 87.8964 25.113 87.4964 25.713 87.1964L24.413 85.6964C23.813 85.9964 23.313 86.4964 22.813 87.0964C22.413 87.4964 22.113 87.9964 21.813 88.4964L20.113 87.6964L19.313 89.3964L21.013 90.2964C20.813 90.8964 20.713 91.3964 20.713 91.8964C20.713 92.6964 20.813 93.4964 21.213 94.0964C21.513 94.6964 22.013 95.1964 22.713 95.4964C23.413 95.8964 24.113 95.9964 24.813 95.7964C25.413 95.5964 26.013 95.2964 26.513 94.8964C26.913 94.5964 27.313 94.0964 27.713 93.5964C27.813 93.3964 28.013 93.2964 28.113 93.0964C28.413 92.6964 28.713 92.3964 28.913 92.1964C29.013 92.0964 29.113 91.9964 29.213 91.8964C29.513 91.5964 29.813 91.3964 30.113 91.2964C30.413 91.1964 30.813 91.1964 31.113 91.3964C31.513 91.5964 31.813 91.9964 31.913 92.5964C31.913 92.8964 31.913 93.2964 31.713 93.7964C31.613 94.0964 31.513 94.3964 31.313 94.6964C31.213 94.9964 31.013 95.1964 30.913 95.4964C30.613 95.8964 30.313 96.2964 30.013 96.5964C29.413 97.1964 28.813 97.5964 28.213 97.8964L29.513 99.4964C30.213 99.1964 30.813 98.6964 31.513 98.0964C32.013 97.5964 32.413 97.0964 32.713 96.4964L34.413 97.3964L35.213 95.6964L33.513 94.7964C33.713 94.0964 33.913 93.4964 33.913 92.8964C33.913 92.0964 33.813 91.2964 33.513 90.6964C33.213 90.0964 32.713 89.5964 32.013 89.2964C31.213 88.5964 30.513 88.4964 29.913 88.6964Z" fill="#FFD65A"/>
<path d="M78.613 30.7964C78.613 16.1964 66.813 4.39636 52.213 4.39636C37.613 4.39636 25.813 16.2964 25.813 30.7964C25.813 45.3964 37.613 57.1964 52.213 57.1964C52.713 57.1964 53.113 57.1964 53.613 57.1964L64.313 68.3964V54.2964C72.813 49.8964 78.613 41.0964 78.613 30.7964Z" fill="#7E5CEB"/>
<path d="M65.2426 35.7696C65.2426 28.749 59.5091 23.0155 52.4885 23.0155C45.4679 23.0155 39.7344 28.749 39.7344 35.7696H65.2426Z" fill="white"/>
<path d="M53.6619 22.3135C54.013 22.3135 54.247 21.9625 54.13 21.6114C53.896 21.0264 53.1939 20.5583 52.4918 20.5583C51.7898 20.5583 51.0877 21.0264 50.8537 21.6114C50.7367 21.9625 50.9707 22.3135 51.3217 22.3135H53.6619Z" fill="white"/>
<path d="M66.9997 36.7058H38.0981V37.6419H66.9997V36.7058Z" fill="white"/>
</svg>
