<svg width="146" height="212" viewBox="0 0 146 212" fill="none" xmlns="http://www.w3.org/2000/svg">
<path d="M17.1999 206.4C17.1999 206.4 17.2999 198.6 24.9999 198.6C24.9999 198.6 17.1999 198.5 17.1999 190.8C17.1999 190.8 17.0999 198.6 9.3999 198.6C9.3999 198.6 17.1999 198.7 17.1999 206.4Z" fill="#FFB72C"/>
<path d="M12.5998 31.3C12.5998 31.3 12.6998 23.5 20.3998 23.5C20.3998 23.5 12.5998 23.4 12.5998 15.7C12.5998 15.7 12.4998 23.5 4.7998 23.5C4.8998 23.6 12.5998 23.7 12.5998 31.3Z" fill="#FFB72C"/>
<path d="M138 55C138 55 138.1 47.2 145.8 47.2C145.8 47.2 138 47.1 138 39.4C138 39.4 137.9 47.2 130.2 47.2C130.2 47.2 138 47.3 138 55Z" fill="#FFB72C"/>
<path d="M132.5 166C132.5 166 132.6 158.2 140.3 158.2C140.3 158.2 132.5 158.1 132.5 150.4C132.5 150.4 132.4 158.2 124.7 158.2C124.7 158.2 132.5 158.3 132.5 166Z" fill="#FFB72C"/>
<path d="M67.1 211.8C67.1 211.8 67.2 207.2 71.7 207.2C71.7 207.2 67.1 207.1 67.1 202.6C67.1 202.6 67 207.2 62.5 207.2C62.5 207.3 67.1 207.3 67.1 211.8Z" fill="#FFB72C"/>
<path d="M8.1 112.7C8.1 112.7 8.2 108.1 12.7 108.1C12.7 108.1 8.1 108 8.1 103.5C8.1 103.5 8 108.1 3.5 108.1C3.5 108.2 8.1 108.2 8.1 112.7Z" fill="#FFB72C"/>
<path d="M32.8998 15.8C32.8998 15.8 32.9998 11.2 37.4998 11.2C37.4998 11.2 32.8998 11.1 32.8998 6.59998C32.8998 6.59998 32.7998 11.2 28.2998 11.2C28.2998 11.3 32.8998 11.3 32.8998 15.8Z" fill="#FFB72C"/>
<path d="M127.9 86.3C127.9 86.3 128 81.7 132.5 81.7C132.5 81.7 127.9 81.6 127.9 77.1C127.9 77.1 127.8 81.7 123.3 81.7C123.4 81.7 127.9 81.8 127.9 86.3Z" fill="#FFB72C"/>
<path d="M125.1 195.3C125.1 195.3 125.2 190.7 129.7 190.7C129.7 190.7 125.1 190.6 125.1 186.1C125.1 186.1 125 190.7 120.5 190.7C120.6 190.7 125.1 190.8 125.1 195.3Z" fill="#FFB72C"/>
<path d="M11.0001 87.6C6.1001 87.6 2.1001 83.6 2.1001 78.7C2.1001 73.8 6.1001 69.8 11.0001 69.8C15.9001 69.8 19.9001 73.8 19.9001 78.7C19.9001 83.6 15.9001 87.6 11.0001 87.6ZM11.0001 72.6C7.6001 72.6 4.8001 75.4 4.8001 78.8C4.8001 82.2 7.6001 85 11.0001 85C14.4001 85 17.2001 82.2 17.2001 78.8C17.2001 75.3 14.4001 72.6 11.0001 72.6Z" fill="#7E5CEB" fill-opacity="0.5"/>
<path d="M132.5 129.5C127.6 129.5 123.6 125.5 123.6 120.6C123.6 115.7 127.6 111.7 132.5 111.7C137.4 111.7 141.4 115.7 141.4 120.6C141.3 125.5 137.4 129.5 132.5 129.5ZM132.5 114.4C129.1 114.4 126.3 117.2 126.3 120.6C126.3 124 129.1 126.8 132.5 126.8C135.9 126.8 138.7 124 138.7 120.6C138.7 117.2 135.9 114.4 132.5 114.4Z" fill="#7E5CEB" fill-opacity="0.5"/>
<path d="M17.2 162.4C7.7 162.4 0 154.7 0 145.2C0 135.7 7.7 128 17.2 128C26.7 128 34.4 135.7 34.4 145.2C34.4 154.6 26.7 162.4 17.2 162.4ZM17.2 130.7C9.2 130.7 2.7 137.2 2.7 145.2C2.7 153.2 9.2 159.7 17.2 159.7C25.2 159.7 31.7 153.2 31.7 145.2C31.7 137.2 25.2 130.7 17.2 130.7Z" fill="#7E5CEB" fill-opacity="0.5"/>
<path d="M88.7 34.4C79.2 34.4 71.5 26.7 71.5 17.2C71.5 7.7 79.2 0 88.7 0C98.2 0 105.9 7.7 105.9 17.2C105.8 26.7 98.1 34.4 88.7 34.4ZM88.7 2.7C80.7 2.7 74.2 9.2 74.2 17.2C74.2 25.2 80.7 31.7 88.7 31.7C96.7 31.7 103.2 25.2 103.2 17.2C103.2 9.2 96.7 2.7 88.7 2.7Z" fill="#7E5CEB" fill-opacity="0.5"/>
<path opacity="0.1" d="M103.499 33H32.8992C28.3992 33 24.6992 36.9 24.6992 41.7V182C24.6992 186.8 28.3992 190.7 32.8992 190.7H103.499C107.999 190.7 111.699 186.8 111.699 182V41.7C111.699 36.9 107.999 33 103.499 33Z" fill="#2E266F"/>
<path d="M113.799 34.6001V174.9C113.799 179.3 110.399 182.9 106.199 182.9H35.4994C31.2994 182.9 27.8994 179.3 27.8994 174.9V34.6001C27.8994 30.2001 31.2994 26.6001 35.4994 26.6001H106.099C110.399 26.5001 113.799 30.1001 113.799 34.6001Z" fill="#E9F0FF"/>
<path d="M61.6991 87.3001H40.6991C37.5991 87.3001 35.0991 84.8001 35.0991 81.7001V60.8001C35.0991 57.7001 37.5991 55.2001 40.6991 55.2001H61.5991C64.6991 55.2001 67.1991 57.7001 67.1991 60.8001V81.7001C67.2991 84.8001 64.7991 87.3001 61.6991 87.3001Z" fill="#7E5CEB"/>
<path d="M100.999 87.3001H80.099C76.999 87.3001 74.499 84.8001 74.499 81.7001V60.8001C74.499 57.7001 76.999 55.2001 80.099 55.2001H100.999C104.099 55.2001 106.599 57.7001 106.599 60.8001V81.7001C106.599 84.8001 104.099 87.3001 100.999 87.3001Z" fill="#7E5CEB"/>
<path d="M61.6991 125.7H40.6991C37.5991 125.7 35.0991 123.2 35.0991 120.1V99.2001C35.0991 96.1001 37.5991 93.6001 40.6991 93.6001H61.5991C64.6991 93.6001 67.1991 96.1001 67.1991 99.2001V120.1C67.2991 123.2 64.7991 125.7 61.6991 125.7Z" fill="#7E5CEB"/>
<path d="M61.6991 164.2H40.6991C37.5991 164.2 35.0991 161.7 35.0991 158.6V137.7C35.0991 134.6 37.5991 132.1 40.6991 132.1H61.5991C64.6991 132.1 67.1991 134.6 67.1991 137.7V158.6C67.2991 161.6 64.7991 164.2 61.6991 164.2Z" fill="#7E5CEB"/>
<path d="M100.999 164.2H80.099C76.999 164.2 74.499 161.7 74.499 158.6V137.7C74.499 134.6 76.999 132.1 80.099 132.1H100.999C104.099 132.1 106.599 134.6 106.599 137.7V158.6C106.599 161.6 104.099 164.2 100.999 164.2Z" fill="#7E5CEB"/>
<path d="M62.0993 77.1001C62.0993 71.1001 57.1993 66.2001 51.1993 66.2001C45.1993 66.2001 40.2993 71.1001 40.2993 77.1001H62.0993Z" fill="white"/>
<path d="M52.1995 65.6001C52.4995 65.6001 52.6994 65.3001 52.5994 65.0001C52.3994 64.5001 51.7995 64.1001 51.1995 64.1001C50.5995 64.1001 49.9995 64.5001 49.7995 65.0001C49.6995 65.3001 49.8995 65.6001 50.1995 65.6001H52.1995Z" fill="white"/>
<path d="M63.4993 78.0001H38.7993V78.8001H63.4993V78.0001Z" fill="white"/>
<path d="M62.0993 113.6C62.0993 107.6 57.1993 102.7 51.1993 102.7C45.1993 102.7 40.2993 107.6 40.2993 113.6H62.0993Z" fill="white"/>
<path d="M52.1995 102.1C52.4995 102.1 52.6994 101.8 52.5994 101.5C52.3994 101 51.7995 100.6 51.1995 100.6C50.5995 100.6 49.9995 101 49.7995 101.5C49.6995 101.8 49.8995 102.1 50.1995 102.1H52.1995Z" fill="white"/>
<path d="M63.4993 114.4H38.7993V115.2H63.4993V114.4Z" fill="white"/>
<path d="M101.399 77.1001C101.399 71.1001 96.4991 66.2001 90.4991 66.2001C84.4991 66.2001 79.5991 71.1001 79.5991 77.1001H101.399Z" fill="white"/>
<path d="M91.4993 65.6001C91.7993 65.6001 91.9993 65.3001 91.8993 65.0001C91.6993 64.5001 91.0993 64.1001 90.4993 64.1001C89.8993 64.1001 89.2993 64.5001 89.0993 65.0001C88.9993 65.3001 89.1993 65.6001 89.4993 65.6001H91.4993Z" fill="white"/>
<path d="M102.899 78.0001H78.1992V78.8001H102.899V78.0001Z" fill="white"/>
<path d="M62.0993 153.8C62.0993 147.8 57.1993 142.9 51.1993 142.9C45.1993 142.9 40.2993 147.8 40.2993 153.8H62.0993Z" fill="white"/>
<path d="M52.1995 142.3C52.4995 142.3 52.6994 142 52.5994 141.7C52.3994 141.2 51.7995 140.8 51.1995 140.8C50.5995 140.8 49.9995 141.2 49.7995 141.7C49.6995 142 49.8995 142.3 50.1995 142.3H52.1995Z" fill="white"/>
<path d="M63.4993 154.6H38.7993V155.4H63.4993V154.6Z" fill="white"/>
<path d="M101.399 153.8C101.399 147.8 96.4991 142.9 90.4991 142.9C84.4991 142.9 79.5991 147.8 79.5991 153.8H101.399Z" fill="white"/>
<path d="M91.4993 142.3C91.7993 142.3 91.9993 142 91.8993 141.7C91.6993 141.2 91.0993 140.8 90.4993 140.8C89.8993 140.8 89.2993 141.2 89.0993 141.7C88.9993 142 89.1993 142.3 89.4993 142.3H91.4993Z" fill="white"/>
<path d="M102.899 154.6H78.1992V155.4H102.899V154.6Z" fill="white"/>
<path d="M103.599 128.4H77.3993C74.2993 128.4 71.7993 125.9 71.7993 122.8V96.5C71.7993 93.4 74.2993 90.9 77.3993 90.9H103.599C106.699 90.9 109.199 93.4 109.199 96.5V122.7C109.199 125.9 106.699 128.4 103.599 128.4Z" fill="#FF922C"/>
<path d="M104.599 130.8H76.3994C72.4994 130.8 69.3994 127.6 69.3994 123.8V95.6001C69.3994 91.7001 72.5994 88.6001 76.3994 88.6001H104.499C108.399 88.6001 111.499 91.8001 111.499 95.6001V123.7C111.599 127.6 108.499 130.8 104.599 130.8ZM76.3994 89.9001C73.2994 89.9001 70.6994 92.5001 70.6994 95.6001V123.7C70.6994 126.8 73.2994 129.4 76.3994 129.4H104.499C107.599 129.4 110.199 126.8 110.199 123.7V95.6001C110.199 92.5001 107.599 89.9001 104.499 89.9001H76.3994Z" fill="#FF922C"/>
<g opacity="0.4">
<path opacity="0.4" d="M48.6992 189.6L23.1992 176.5L104.099 18.5L129.599 31.5L48.6992 189.6Z" fill="url(#paint0_linear_135_8525)"/>
<path opacity="0.4" d="M18.0992 173.9L9.19922 169.3L90.0992 11.3L98.9992 15.9L18.0992 173.9Z" fill="url(#paint1_linear_135_8525)"/>
</g>
<path d="M103.199 116.3C103.199 109.3 97.4993 103.6 90.4993 103.6C83.4993 103.6 77.7993 109.3 77.7993 116.3H103.199Z" fill="white"/>
<path d="M91.699 102.9C92.099 102.9 92.299 102.5 92.199 102.2C91.899 101.6 91.299 101.1 90.499 101.1C89.799 101.1 89.099 101.5 88.799 102.2C88.599 102.5 88.899 102.9 89.299 102.9H91.699Z" fill="white"/>
<path d="M104.899 117.3H76.0991V118.2H104.899V117.3Z" fill="white"/>
<path d="M42.3991 41.6001H35.0991V48.9001H42.3991V41.6001Z" fill="#7E5CEB"/>
<path d="M106.599 41.6001H47.499V48.9001H106.599V41.6001Z" fill="#7E5CEB"/>
<path d="M106.199 183.6H35.4993C30.9993 183.6 27.2993 179.7 27.2993 174.9V34.6C27.2993 29.8 30.9993 25.9 35.4993 25.9H106.099C110.599 25.9 114.299 29.8 114.299 34.6V174.9C114.399 179.7 110.699 183.6 106.199 183.6ZM35.4993 27.2C31.6993 27.2 28.5993 30.5 28.5993 34.6V174.9C28.5993 179 31.6993 182.3 35.4993 182.3H106.099C109.899 182.3 112.999 179 112.999 174.9V34.6C112.999 30.5 109.899 27.2 106.099 27.2H35.4993Z" fill="#2E266F"/>
<path d="M113.799 174V174.9C113.799 179.3 110.399 182.9 106.199 182.9H35.4994C31.2994 182.9 27.8994 179.3 27.8994 174.9V174H113.799Z" fill="#2E266F"/>
<path d="M27.999 35.5001V34.6001C27.999 30.2001 31.399 26.6001 35.599 26.6001H106.199C110.399 26.6001 113.799 30.2001 113.799 34.6001V35.5001H27.999Z" fill="#2E266F"/>
<path d="M123.399 60C123.399 41.7 108.399 26.9 90.0991 27.2C72.4991 27.4 58.0991 41.8 57.6991 59.4C57.4991 69.7 62.0991 79 69.3991 85.2C76.2991 91 81.7991 98.2 85.8991 106.3L87.3991 109.3C88.6991 111.9 92.2991 111.9 93.5991 109.3L95.2991 105.9C99.2991 97.8 104.999 90.8 111.899 84.9C118.899 78.9 123.399 70 123.399 60Z" fill="#F9CA24"/>
<path d="M90.4993 88.2C106.074 88.2 118.699 75.5745 118.699 60C118.699 44.4256 106.074 31.8 90.4993 31.8C74.9249 31.8 62.2993 44.4256 62.2993 60C62.2993 75.5745 74.9249 88.2 90.4993 88.2Z" fill="#FF922C"/>
<path d="M90.4993 86.7C105.245 86.7 117.199 74.7461 117.199 60C117.199 45.254 105.245 33.3 90.4993 33.3C75.7533 33.3 63.7993 45.254 63.7993 60C63.7993 74.7461 75.7533 86.7 90.4993 86.7Z" fill="white"/>
<path d="M95.2751 73.4138C95.2751 73.7375 95.0127 73.9998 94.6891 73.9998C94.3654 73.9998 94.103 73.7375 94.103 73.4138C94.103 73.0901 94.3654 72.8278 94.6891 72.8278C95.0127 72.8278 95.2751 73.0901 95.2751 73.4138Z" fill="#FF922C"/>
<path d="M98.2105 61.4523L98.2107 61.4523C101.127 61.4837 103.704 59.2045 103.704 56.3046C103.704 53.519 101.269 51.1562 98.3801 51.1562C98.1747 51.1562 97.9475 51.1672 97.7315 51.1862C97.7627 51.7552 97.7321 52.33 97.6393 52.9025C97.6393 52.9025 97.6393 52.9026 97.6393 52.9026L97.5159 52.8826C97.4694 53.1703 97.2206 53.3749 96.9382 53.3751L98.2105 61.4523ZM98.2105 61.4523C97.1275 61.4429 96.0669 61.1297 95.057 60.518L95.0569 60.5179M98.2105 61.4523L95.0569 60.5179M96.8235 53.4907C96.8236 53.4907 96.8238 53.4907 96.8239 53.4907L96.8439 53.3674L96.8235 53.4907ZM96.8235 53.4907C96.4361 53.4277 96.173 53.0627 96.2357 52.6754C96.3441 52.0064 96.3498 51.3358 96.2531 50.6824C95.7985 47.6128 93.1104 45.2969 90.0013 45.2969C86.8922 45.2969 84.2041 47.6128 83.7495 50.6824L96.8235 53.4907ZM95.0569 60.5179C94.7213 60.315 94.2842 60.4218 94.0806 60.7579L94.0806 60.7579M95.0569 60.5179L94.0806 60.7579M94.0806 60.7579C93.8773 61.0937 93.9845 61.5308 94.3205 61.7343C95.3325 62.3473 96.3973 62.7153 97.4934 62.8326V69.1872H94.2278V64.5076C94.2278 64.1149 93.9096 63.7967 93.5169 63.7967C93.1242 63.7967 92.806 64.1149 92.806 64.5076V69.1872H90.7122V64.5076C90.7122 64.1149 90.394 63.7967 90.0013 63.7967C89.6086 63.7967 89.2904 64.1149 89.2904 64.5076V69.1872H87.1967V64.5076C87.1967 64.1149 86.8784 63.7967 86.4857 63.7967C86.0931 63.7967 85.7748 64.1149 85.7748 64.5076V69.1872H82.5092V62.8326L94.0806 60.7579ZM85.922 60.7578L85.922 60.7579C86.1253 61.0936 86.0182 61.531 85.6823 61.7343C85.6823 61.7343 85.6823 61.7343 85.6823 61.7343L85.6176 61.6274C84.5856 62.2525 83.5005 62.6178 82.3842 62.7194L85.922 60.7578ZM85.922 60.7578C85.7184 60.4221 85.2814 60.3149 84.9456 60.5182L84.9456 60.5182M85.922 60.7578L84.9456 60.5182M84.9456 60.5182C83.9357 61.1299 82.8751 61.4431 81.7919 61.4525M84.9456 60.5182L81.7919 61.4525M81.7919 61.4525C78.8295 61.4764 76.2983 59.1688 76.2983 56.3046M81.7919 61.4525L76.2983 56.3046M76.2983 56.3046C76.2983 53.519 78.7339 51.1562 81.6225 51.1562M76.2983 56.3046L81.6225 51.1562M81.6225 51.1562C81.8282 51.1562 82.0551 51.1672 82.2711 51.1862M81.6225 51.1562L82.2711 51.1862M82.2711 51.1862C82.24 51.755 82.2705 52.3298 82.3633 52.9026C82.3633 52.9026 82.3634 52.9026 82.3634 52.9026L82.4867 52.8826M82.2711 51.1862L83.7669 52.6754M82.4867 52.8826C82.5385 53.2021 82.8394 53.4191 83.1587 53.3674L83.1787 53.4907C83.1787 53.4907 83.1787 53.4907 83.1787 53.4907C83.5664 53.428 83.8297 53.0628 83.7669 52.6754M82.4867 52.8826C82.3888 52.2783 82.3613 51.672 82.4034 51.0733L82.4867 52.8826ZM83.7669 52.6754C83.7669 52.6754 83.7669 52.6754 83.7669 52.6754L83.6435 52.6954L83.7669 52.6754ZM98.3801 49.7343C98.1367 49.7343 97.8291 49.7482 97.5228 49.7778C96.6809 46.3274 93.5803 43.875 90.0013 43.875C86.4265 43.875 83.3227 46.3238 82.4799 49.7778C82.1735 49.7482 81.8659 49.7343 81.6225 49.7343C78.0172 49.7343 74.8765 52.6481 74.8765 56.3046C74.8765 59.7273 77.6537 62.5199 81.0873 62.8435V73.4138C81.0873 73.8064 81.4056 74.1247 81.7983 74.1247H92.345C92.7377 74.1247 93.056 73.8064 93.056 73.4138C93.056 73.0211 92.7377 72.7028 92.345 72.7028H82.5092V70.6091H97.4934V72.7028H97.0325C96.6398 72.7028 96.3216 73.0211 96.3216 73.4138C96.3216 73.8064 96.6398 74.1247 97.0325 74.1247H98.2044C98.597 74.1247 98.9153 73.8064 98.9153 73.4138V62.8435C102.344 62.5199 105.126 59.7324 105.126 56.3046C105.126 52.6474 101.985 49.7343 98.3801 49.7343Z" fill="#FF922C" stroke="#FF922C" stroke-width="0.25"/>
<path d="M124.885 38.2369C126.412 31.7313 122.377 25.2191 115.872 23.6915C109.366 22.1638 102.854 26.1992 101.326 32.7048C99.7985 39.2103 103.834 45.7225 110.339 47.2502C116.845 48.7778 123.357 44.7425 124.885 38.2369Z" fill="#FF922C"/>
<path d="M121.699 31.5001L111.499 41.7001L104.399 34.6001L106.699 32.4001L111.499 37.2001L119.499 29.2001L121.699 31.5001Z" fill="white"/>
<defs>
<linearGradient id="paint0_linear_135_8525" x1="51.3896" y1="152.95" x2="104.488" y2="49.2353" gradientUnits="userSpaceOnUse">
<stop stop-color="white"/>
<stop offset="1" stop-color="white" stop-opacity="0"/>
</linearGradient>
<linearGradient id="paint1_linear_135_8525" x1="29.0416" y1="141.509" x2="82.1395" y2="37.7949" gradientUnits="userSpaceOnUse">
<stop stop-color="white"/>
<stop offset="1" stop-color="white" stop-opacity="0"/>
</linearGradient>
</defs>
</svg>
