<svg width="483" height="507" viewBox="0 0 483 507" fill="none" xmlns="http://www.w3.org/2000/svg">
<g opacity="0.35">
<path d="M317.376 154.566C309.683 148.381 300.479 144.395 293.198 137.798C273.553 119.931 273.003 88.5943 257.342 67.1537C243.192 47.9121 218.739 39.2533 195.11 35.9548C153.485 30.1823 109.25 38.2912 75.0428 62.893C40.836 87.4948 18.4435 129.002 21.191 170.921C23.6638 207.892 44.4078 241.84 45.5068 278.811C46.7432 318.394 25.4497 355.366 21.191 394.811C19.9546 406.356 20.2294 418.176 23.8012 429.171C28.1973 442.503 37.2642 453.91 47.8422 463.256C94.1383 504.626 171.069 505.863 218.602 465.868L282.345 461.057C310.232 389.451 338.532 316.333 343.34 239.504C345.264 208.854 341.417 173.945 317.376 154.566Z" fill="white"/>
</g>
<path d="M119.277 318.669C119.277 318.669 131.366 413.09 117.079 490.744L104.715 491.294C104.715 491.294 98.8077 446.076 101.418 421.612C102.242 413.228 102.105 404.706 101.143 396.323C98.6703 375.019 95.7854 338.735 95.7854 338.735L119.277 318.669Z" fill="#FEBF9F"/>
<path d="M107.323 506L107.598 496.791L112.544 506H125.594C125.045 504.35 122.71 497.341 117.489 495.692L118.863 478.099H102.79L102.24 506H107.323Z" fill="#2E266F"/>
<path d="M71.7377 334.749C71.7377 334.749 75.3095 412.54 69.9518 413.915C64.5941 415.289 23.5184 430.545 13.902 433.156L14.1767 445.389C14.1767 445.389 84.239 447.863 96.7404 418.863L103.884 343.408L71.7377 334.749Z" fill="#FEBF9F"/>
<path d="M1.67978 441.54L10.3345 439.066L2.77879 446.351L6.21322 458.995C7.58699 458.033 13.769 453.91 14.0437 448.412L31.3532 445.251L26.6824 428.758L0.03125 437.142L1.67978 441.54Z" fill="#2E266F"/>
<path d="M128.622 268.228C128.622 268.228 137.552 430.133 130.821 442.502C124.089 454.872 47.7074 412.128 47.7074 412.128C47.7074 412.128 64.6048 373.92 63.3684 325.541C62.2694 277.162 71.1989 248.025 71.1989 248.025L128.622 268.228Z" fill="#2E266F"/>
<path d="M66.6622 270.84C66.6622 270.977 65.0137 271.527 61.854 271.939C60.3428 272.214 58.4196 272.352 56.2215 272.352C55.1225 272.352 54.0235 272.352 52.7871 272.352C52.2376 272.352 51.5507 272.352 50.8638 272.077C50.4517 271.939 50.1769 271.802 49.7648 271.527C49.6274 271.389 49.3527 271.115 49.3527 270.84C49.2153 270.565 49.3527 270.153 49.4901 269.878L49.6274 269.603L49.9022 269.465C54.2983 268.228 59.656 267.679 65.2884 267.266V268.778C65.0137 268.778 64.7389 268.641 64.4642 268.641C62.1287 268.228 59.7933 267.679 57.7327 266.854C56.6337 266.442 55.672 266.029 54.7104 265.617C53.7487 265.205 52.7871 264.792 51.8255 264.105C51.4133 263.693 50.8638 263.281 50.5891 262.731C50.3143 262.044 50.4517 261.219 51.0012 260.669C51.5507 260.119 52.2376 260.119 52.7871 260.119C53.3366 260.119 53.8861 260.257 54.2983 260.394C56.0842 260.944 57.5953 261.631 58.9691 262.318C61.854 263.555 63.9146 264.792 65.4258 265.754C66.9369 266.717 67.6238 267.266 67.6238 267.404C67.4865 267.679 64.1894 265.617 58.5569 263.418C57.1832 262.868 55.5346 262.318 53.8861 261.769C53.1992 261.494 52.1002 261.494 51.8255 261.906C51.6881 262.044 51.5507 262.318 51.6881 262.593C51.8255 262.868 52.1002 263.143 52.375 263.418C53.0619 263.968 54.0235 264.243 54.9851 264.792C55.9468 265.205 56.9084 265.617 58.0074 265.892C60.0681 266.579 62.2661 267.129 64.4642 267.541C64.7389 267.541 65.0137 267.679 65.2884 267.679L71.8825 268.641L65.2884 269.19C59.656 269.603 54.573 270.153 50.1769 271.252L50.5891 270.84C50.5891 270.84 50.4517 270.84 50.5891 270.84C50.5891 270.84 50.5891 270.84 50.7265 270.977C50.8638 271.115 51.1386 271.252 51.276 271.252C51.6881 271.39 52.375 271.389 52.9245 271.527C54.1609 271.664 55.2599 271.664 56.3589 271.664C58.4196 271.664 60.3428 271.664 61.854 271.527C64.8763 270.977 66.5248 270.702 66.6622 270.84Z" fill="#2E266F"/>
<path d="M68.0392 266.991L128.897 268.641L133.293 364.711L90.4316 363.612L97.85 273.726L67.7644 269.603L68.0392 266.991Z" fill="white"/>
<path d="M110.354 115.945C108.431 114.158 105.958 113.333 103.485 112.646C99.0889 111.547 94.4181 111.134 90.022 112.234C89.0604 105.912 84.3895 101.239 78.8944 101.514C73.1246 101.789 68.7285 107.698 69.0033 114.708C69.278 119.931 72.163 124.191 76.0095 125.841C74.9105 129.002 74.361 132.3 74.361 135.599C74.361 138.073 74.4984 140.409 75.1853 142.746C76.8338 147.694 80.8177 151.542 85.4885 153.878C87.2744 154.84 89.4725 155.528 91.121 154.428L94.2807 141.371C98.402 140.684 102.523 139.447 105.958 137.111C109.392 134.774 112.277 131.338 113.376 127.352C114.475 123.504 113.376 118.831 110.354 115.945Z" fill="#2E266F"/>
<path d="M116.95 135.874C115.576 127.352 107.059 113.059 92.0845 121.855C87.2763 124.604 85.3531 129.689 84.3914 134.912C83.7045 138.623 85.0783 174.357 85.0783 174.357C86.3147 188.651 107.883 192.087 108.707 174.632L107.883 162.675C118.461 159.101 118.461 145.357 116.95 135.874Z" fill="#FEBF9F"/>
<path d="M107.608 162.675C107.608 162.675 101.426 164.736 89.7491 157.452C89.7491 157.452 96.3432 167.073 108.158 170.921L107.608 162.675Z" fill="#B06D6A"/>
<path d="M87.8239 147.556C87.8239 150.992 90.5714 153.878 94.1432 153.878C97.715 153.878 100.463 151.13 100.463 147.556C100.463 144.12 97.715 141.234 94.1432 141.234C90.5714 141.234 87.8239 144.12 87.8239 147.556Z" fill="#FCB091"/>
<path d="M110.491 143.296C110.491 139.86 113.238 136.973 116.81 136.973C116.948 136.973 117.085 136.973 117.085 136.973C117.634 140.959 117.909 145.357 117.222 149.48C117.085 149.48 116.81 149.48 116.673 149.48C113.238 149.618 110.491 146.732 110.491 143.296Z" fill="#FCB091"/>
<path d="M77.3822 140.134C76.8327 142.608 78.3438 145.082 80.8166 145.769C83.2894 146.319 85.7622 144.807 86.4491 142.333C86.9986 139.859 85.4874 137.386 83.0146 136.698C80.5419 136.011 77.9317 137.66 77.3822 140.134Z" fill="#FEBF9F"/>
<path d="M83.9739 142.471C83.1496 141.921 82.6001 141.372 81.9132 141.234C81.2264 140.959 80.6769 141.097 79.7152 141.509C79.8526 141.097 80.1273 140.684 80.6769 140.41C81.089 140.135 81.7759 140.135 82.3254 140.272C83.287 140.684 83.8365 141.509 83.9739 142.471Z" fill="#2E266F"/>
<path d="M108.29 147.281C108.153 147.831 107.741 148.381 107.329 148.793C106.916 149.205 106.23 149.618 105.405 149.618C104.718 149.618 104.031 149.343 103.482 148.793C103.07 148.381 102.658 147.831 102.658 147.144C103.757 147.831 104.581 148.381 105.405 148.381C105.817 148.381 106.23 148.243 106.779 148.106C107.191 147.831 107.741 147.556 108.29 147.281Z" fill="#2E266F"/>
<path d="M106.645 133.675C108.018 135.324 109.117 136.973 110.079 138.76L110.354 139.172L109.942 139.447C108.98 139.997 108.018 140.409 106.919 140.822C107.744 140.134 108.568 139.447 109.53 138.76L109.392 139.31C108.705 138.485 108.156 137.661 107.744 136.698C107.194 135.736 106.919 134.774 106.645 133.675Z" fill="#2E266F"/>
<path d="M102.249 135.049C102.524 135.874 102.661 136.836 102.524 137.661C102.524 138.073 102.387 138.623 102.249 139.035C102.112 139.447 101.562 139.997 101.013 140.272C100.463 140.547 99.7765 140.272 99.3643 140.135C98.9522 139.86 98.5401 139.585 98.2653 139.172C97.7158 138.485 97.3037 137.661 96.8915 136.836C96.7542 136.561 96.8915 136.424 97.1663 136.286C97.3037 136.286 97.5784 136.286 97.5784 136.424C97.9906 137.111 98.5401 137.798 99.0896 138.348C99.6391 138.898 100.326 139.31 100.601 139.172C101.013 139.035 101.288 138.348 101.425 137.661C101.562 136.836 101.562 136.011 101.562 135.324C101.562 135.187 101.7 134.912 101.837 134.912C102.112 134.774 102.249 134.912 102.249 135.049Z" fill="#2E266F"/>
<path d="M115.162 133.537C115.437 134.362 115.574 135.187 115.574 136.011C115.574 136.424 115.574 136.836 115.437 137.386C115.3 137.798 115.025 138.485 114.338 138.623C113.651 138.76 112.964 138.348 112.689 138.073C112.277 137.798 112.003 137.386 111.865 137.111C111.453 136.424 111.041 135.599 110.766 134.912C110.766 134.637 110.766 134.499 111.041 134.362C111.178 134.362 111.453 134.362 111.453 134.499C111.865 135.187 112.277 135.874 112.689 136.424C112.964 136.699 113.102 136.973 113.376 137.248C113.651 137.523 113.788 137.523 113.926 137.523C114.063 137.523 114.201 137.386 114.201 137.111C114.338 136.836 114.338 136.424 114.338 136.149C114.338 135.462 114.338 134.637 114.338 133.812C114.338 133.675 114.475 133.4 114.613 133.4C114.887 133.262 115.025 133.4 115.162 133.537Z" fill="#2E266F"/>
<path d="M96.2036 131.75C96.341 132.3 97.1652 132.713 98.2642 132.575C99.3632 132.438 100.05 131.75 100.05 131.201C99.9128 130.651 99.0885 130.239 97.9895 130.376C96.8905 130.514 96.0662 131.201 96.2036 131.75Z" fill="#2E266F"/>
<path d="M110.903 129.551C110.629 130.101 111.316 130.926 112.415 131.201C113.376 131.613 114.475 131.338 114.613 130.788C114.887 130.239 114.201 129.414 113.102 129.139C112.003 128.864 111.041 129.002 110.903 129.551Z" fill="#2E266F"/>
<path d="M84.6614 137.935C84.6614 137.935 86.5847 138.76 90.2939 125.566C90.2939 125.566 111.725 132.3 113.648 123.229C115.709 114.158 90.706 110.035 85.7604 118.831L83.6998 124.054C81.7765 128.589 82.1886 133.675 84.6614 137.935Z" fill="#2E266F"/>
<path d="M150.881 161.025C151.706 153.603 155.964 147.006 155.277 145.769C154.591 144.532 150.744 150.855 150.744 150.855C151.156 148.381 156.377 140.134 154.728 139.859C153.629 139.585 148.546 147.694 148.546 147.694C148.546 147.694 149.645 144.258 151.843 140.272C153.354 137.386 152.255 137.111 152.255 137.111C150.195 136.698 145.524 146.319 145.524 146.319C145.524 146.319 146.073 143.845 146.897 142.058C147.722 140.272 147.722 137.66 146.897 137.66C144.699 137.798 140.853 150.442 140.853 150.442C140.853 150.442 140.578 151.817 139.067 147.968C137.693 144.12 136.182 145.22 136.182 145.22C136.182 145.22 136.869 151.267 136.869 153.741C136.869 154.428 136.594 157.452 136.457 159.513C136.045 162.949 135.495 166.385 134.946 169.821C141.54 172.02 144.837 172.845 151.019 175.869C150.881 170.921 150.881 165.836 150.881 161.025Z" fill="#FEBF9F"/>
<path d="M141.265 151.404C142.502 151.267 143.738 151.954 144.425 153.054C145.112 154.153 145.249 155.528 144.837 156.627C144.562 156.077 144.288 155.528 144.013 155.115C143.738 154.703 143.601 154.291 143.326 153.878C143.051 153.466 142.776 153.054 142.364 152.641C141.952 152.229 141.677 151.817 141.265 151.404Z" fill="#FF8C32"/>
<path d="M133.846 166.798L158.574 174.22C158.574 174.22 158.712 175.182 158.849 177.793C159.536 196.622 152.117 230.982 143.325 237.442C133.709 244.589 108.844 230.982 95.2433 191.4C91.8089 181.504 104.035 173.807 111.591 180.954L127.39 196.073L133.846 166.798Z" fill="#FFA037"/>
<path d="M66.6685 266.854C87.5498 268.503 108.843 267.541 129.725 268.641C139.204 254.072 117.498 195.66 109.118 174.082C101.425 175.594 90.8469 176.144 85.2144 174.632C73.2626 173.67 62.8219 234.556 65.1573 260.944C65.4321 263.006 65.8442 265.067 66.6685 266.854Z" fill="#FFA037"/>
<path d="M118.871 201.433C118.459 201.57 117.086 195.523 114.338 188.376C111.728 181.229 108.843 175.869 109.118 175.594C109.392 175.457 112.827 180.679 115.574 187.826C118.459 195.248 119.284 201.433 118.871 201.433Z" fill="#FF8C32"/>
<path d="M151.152 193.324C151.152 193.324 154.449 191.812 158.845 190.575C162.005 189.613 161.455 188.651 161.455 188.651C160.219 186.864 150.053 190.162 150.053 190.162C150.053 190.162 152.251 188.788 154.037 188.238C155.823 187.551 157.746 185.764 157.197 185.215C155.548 183.703 143.734 189.613 143.734 189.613C143.734 189.613 142.497 190.3 144.283 186.589C146.069 182.878 144.283 182.603 144.283 182.603C144.283 182.603 140.437 187.276 138.513 188.926C137.964 189.338 135.766 191.262 134.117 192.636C131.37 194.698 128.485 196.76 125.737 198.684C128.76 204.869 130.408 207.892 132.469 214.627C136.041 211.053 139.612 207.48 143.184 204.181C149.229 199.646 156.785 197.997 157.197 196.76C157.609 195.385 150.328 197.034 150.328 197.034C152.388 195.66 162.005 193.736 161.043 192.224C160.494 191.399 151.152 193.324 151.152 193.324Z" fill="#FEBF9F"/>
<path d="M127.25 195.935L139.064 218.888C139.064 218.888 138.515 219.712 136.592 221.636C123.403 235.105 93.5925 252.286 83.0145 250.499C71.3375 248.437 58.5614 211.466 76.8325 178.755C81.9155 169.684 90.7076 177.243 90.7076 187.689L95.1037 218.338L127.25 195.935Z" fill="#FFA037"/>
<path d="M89.0595 225.347C88.6473 225.21 89.1968 222.736 90.708 220.125C92.2191 217.513 93.8677 215.726 94.2798 216.001C94.5545 216.276 93.4555 218.338 92.0818 220.949C90.5706 223.423 89.4716 225.485 89.0595 225.347Z" fill="#FF8C32"/>
<path d="M95.2359 223.698C94.8238 223.561 94.8238 221.774 94.9612 219.437C95.0986 217.238 95.2359 215.314 95.6481 215.314C96.0602 215.314 96.6097 217.238 96.4723 219.575C96.335 222.049 95.6481 223.835 95.2359 223.698Z" fill="#FF8C32"/>
<path d="M114.612 246.376C114.75 246.513 112.002 248.162 107.331 249.949C104.996 250.774 102.111 251.598 98.814 252.011C95.517 252.423 91.8078 252.286 87.9612 251.323C84.2521 250.361 80.8176 248.575 78.3449 246.376C75.7347 244.177 74.0862 241.428 73.1245 239.229C72.0255 236.892 71.476 234.968 71.0639 233.731C70.6517 232.357 70.5144 231.669 70.6517 231.669C70.7891 231.669 71.0639 232.357 71.6134 233.594C72.1629 234.831 72.9871 236.755 74.0862 238.816C75.1852 241.015 76.8337 243.352 79.3065 245.414C81.7793 247.475 84.939 249.124 88.5108 249.949C92.0826 250.911 95.6544 251.049 98.814 250.636C101.974 250.361 104.859 249.674 107.194 248.987C111.727 247.475 114.475 246.238 114.612 246.376Z" fill="#FF8C32"/>
<path d="M160.216 229.745C160.354 229.608 161.315 231.807 162.826 235.655L163.101 236.48L162.139 236.342C159.254 235.93 155.82 234.83 152.248 233.319C151.149 232.906 149.913 232.219 149.363 230.982C149.089 230.432 148.814 229.745 148.951 229.058C149.089 228.371 149.501 227.821 150.05 227.409C150.6 226.996 151.149 226.859 151.699 226.859C152.248 226.859 152.66 226.859 153.073 226.996C154.034 226.996 154.858 227.271 155.545 227.546C157.056 228.096 158.155 228.646 158.842 228.921C159.804 229.333 160.216 229.608 160.216 229.745C160.079 229.745 159.667 229.745 158.842 229.47C157.881 229.195 156.782 228.921 155.408 228.508C154.721 228.371 153.897 228.096 153.073 228.096C152.66 228.096 152.111 228.096 151.699 228.096C151.287 228.096 151.012 228.233 150.6 228.508C150.05 228.921 149.913 229.745 150.325 230.432C150.737 231.12 151.561 231.669 152.66 232.082C156.095 233.594 159.529 234.693 162.139 235.243L161.59 235.93C160.628 232.357 160.079 229.883 160.216 229.745Z" fill="#2E266F"/>
<path d="M225.882 229.745C226.019 229.883 225.47 232.357 224.371 236.067L223.821 235.38C226.432 234.693 229.866 233.731 233.3 232.219C234.262 231.807 235.224 231.257 235.636 230.57C236.048 229.883 235.911 229.058 235.361 228.646C234.812 228.233 233.987 228.233 233.026 228.371C232.201 228.508 231.377 228.646 230.69 228.783C227.668 229.333 225.882 229.883 225.882 229.745C225.882 229.608 227.531 228.646 230.416 227.684C231.102 227.409 231.927 227.271 232.888 226.996C233.3 226.859 233.85 226.859 234.399 226.859C234.949 226.859 235.636 226.996 236.048 227.409C236.598 227.821 237.01 228.371 237.147 229.058C237.284 229.745 237.147 230.432 236.735 230.982C236.048 232.219 234.812 232.769 233.85 233.319C230.278 234.83 226.844 235.93 223.959 236.342L222.997 236.48L223.272 235.655C224.783 231.807 225.745 229.47 225.882 229.745Z" fill="#2E266F"/>
<path d="M215.029 263.143H172.03C165.573 263.143 160.353 257.92 160.353 251.461V223.423H226.706V251.461C226.706 257.92 221.486 263.143 215.029 263.143Z" fill="#7E5CEB"/>
<path d="M226.98 222.873H159.803V224.248H226.98V222.873Z" fill="#2E266F"/>
<path d="M175.742 159.925C176.017 159.925 175.193 163.636 176.155 169.546C176.704 172.433 177.666 175.869 179.589 179.167C180.551 180.816 181.787 182.603 182.749 184.527C183.71 186.451 184.672 188.788 184.397 191.399C184.26 192.636 183.71 193.873 183.023 194.835C182.337 195.797 181.65 196.622 180.963 197.447C180.276 198.271 179.589 198.958 178.902 199.783C178.353 200.608 177.803 201.432 177.528 202.257C176.017 205.693 176.567 209.404 177.528 212.015C178.078 213.39 178.765 214.489 179.314 215.451C180.001 216.413 180.688 217.101 181.375 217.65C181.65 217.925 181.924 218.063 182.199 218.338C182.474 218.475 182.611 218.612 182.886 218.75C183.298 219.025 183.436 219.162 183.436 219.162C183.436 219.162 183.161 219.162 182.749 219.025C182.474 218.887 182.337 218.887 181.924 218.75C181.65 218.612 181.237 218.338 180.963 218.2C180.276 217.788 179.452 216.963 178.627 216.138C177.803 215.176 176.979 214.077 176.429 212.565C175.193 209.816 174.643 205.83 176.155 201.845C176.567 200.883 177.116 199.921 177.666 199.096C178.353 198.271 179.039 197.447 179.726 196.622C181.1 195.11 182.474 193.323 182.749 191.262C183.023 189.2 182.199 187.139 181.237 185.352C180.276 183.428 179.039 181.778 178.078 179.992C176.155 176.418 175.193 172.845 174.781 169.821C174.369 166.797 174.643 164.324 174.781 162.674C175.33 160.75 175.605 159.788 175.742 159.925Z" fill="#2E266F"/>
<path d="M204.453 164.461C204.59 164.461 204.453 165.286 204.316 166.66C204.178 168.034 204.453 170.096 205.14 172.57C205.827 175.044 206.926 177.793 207.75 181.229C208.162 182.878 208.574 184.665 208.437 186.726C208.437 187.276 208.437 187.688 208.299 188.238C208.162 188.788 208.162 189.2 208.025 189.75C207.613 190.712 207.338 191.674 206.788 192.636C205.689 194.423 204.178 195.797 202.804 197.034C201.431 198.271 200.194 199.371 199.233 200.745C197.309 203.219 196.76 206.38 197.035 208.717C197.309 211.191 198.134 212.977 198.82 214.214C199.507 215.451 200.057 216.001 200.057 216.001C200.057 216.001 199.37 215.589 198.408 214.489C197.447 213.39 196.348 211.465 196.073 208.717C195.661 206.105 196.073 202.669 198.271 199.783C200.332 196.897 203.766 194.835 205.689 191.812C206.239 191.124 206.514 190.162 206.788 189.338C206.926 188.925 206.926 188.513 207.063 188.101C207.2 187.688 207.2 187.276 207.2 186.864C207.2 185.077 206.926 183.428 206.651 181.778C205.827 178.617 204.865 175.594 204.316 173.12C203.766 170.508 203.629 168.447 203.903 166.935C203.903 165.148 204.316 164.461 204.453 164.461Z" fill="#2E266F"/>
<path d="M289.353 234.556C289.353 234.556 289.628 234.693 290.177 235.105C290.727 235.38 291.413 236.068 292.375 236.342C293.337 236.48 294.71 235.93 296.222 235.105C296.909 234.693 297.733 234.281 298.557 233.869C299.381 233.456 300.48 233.044 301.579 233.044C305.701 233.044 310.646 232.906 316.141 232.906C318.889 232.906 321.774 232.906 324.796 232.906C326.307 232.906 327.818 232.906 329.329 232.906H330.429C330.841 232.906 331.115 232.906 331.39 232.769C331.94 232.632 332.489 232.219 332.764 231.807C333.451 230.845 332.489 229.608 331.253 229.333C330.978 229.196 330.703 229.196 330.291 229.196H329.192C328.368 229.196 327.681 229.196 326.994 229.196C323.972 229.196 321.087 229.196 318.339 229.196C312.844 229.196 307.899 229.058 303.777 229.058C299.656 229.058 296.222 228.921 293.886 228.783C291.551 228.646 290.314 228.646 290.314 228.508C290.314 228.371 291.551 228.371 293.886 228.233C296.222 228.096 299.519 228.096 303.777 227.959C307.899 227.959 312.844 227.821 318.339 227.821C321.087 227.821 323.972 227.821 326.994 227.821C327.681 227.821 328.505 227.821 329.192 227.821H330.291C330.703 227.821 331.115 227.821 331.665 227.959C332.489 228.233 333.451 228.646 334 229.608C334.55 230.433 334.55 231.669 334 232.632C333.451 233.456 332.627 234.006 331.665 234.281C331.253 234.418 330.703 234.418 330.291 234.418H329.192C327.681 234.418 326.17 234.418 324.659 234.418C321.636 234.418 318.751 234.418 316.004 234.418C310.509 234.418 305.563 234.281 301.442 234.281C300.48 234.143 299.656 234.556 298.832 234.831C298.008 235.243 297.183 235.518 296.496 235.93C294.985 236.617 293.611 237.167 292.238 236.892C291.551 236.755 291.139 236.342 290.864 236.068C290.452 235.793 290.177 235.518 290.04 235.243C289.628 234.831 289.353 234.556 289.353 234.556Z" fill="#2E266F"/>
<path d="M244.29 226.859V252.835C244.29 258.47 248.961 263.143 254.594 263.143H280.558C286.19 263.143 290.861 258.47 290.861 252.835V226.859H244.29Z" fill="#7E5CEB"/>
<path d="M291.273 226.035H243.741V227.821H291.273V226.035Z" fill="#2E266F"/>
<path d="M265.173 167.897C265.311 167.897 265.311 168.722 265.723 170.096C265.998 171.471 266.822 173.395 267.921 175.594C268.47 176.694 269.157 177.93 269.844 179.305C270.531 180.679 271.081 182.191 271.493 183.978C271.905 185.765 271.905 187.551 271.493 189.613C271.081 191.537 269.707 193.461 267.784 194.561C265.998 195.66 264.212 196.21 262.975 197.31C261.602 198.409 260.777 199.783 260.09 201.295C259.541 202.807 259.129 204.319 259.129 205.693C259.129 207.068 259.266 208.442 259.541 209.679C260.228 212.016 261.327 213.802 262.289 214.764C262.701 215.314 263.25 215.589 263.525 215.864C263.8 216.139 263.937 216.276 263.937 216.276C263.937 216.276 263.662 216.276 263.388 216.139C263.113 216.001 262.563 215.726 262.014 215.177C260.915 214.215 259.404 212.565 258.579 209.954C258.167 208.717 257.892 207.205 257.892 205.693C257.892 204.182 258.167 202.395 258.854 200.746C259.541 199.096 260.503 197.447 262.014 196.21C263.525 194.836 265.448 194.286 266.959 193.324C268.47 192.362 269.569 190.987 269.982 189.338C270.394 187.689 270.394 186.039 270.119 184.39C269.57 181.229 268.058 178.48 266.959 176.144C265.86 173.807 265.311 171.746 265.036 170.234C264.899 168.722 265.173 167.897 265.173 167.897Z" fill="#2E266F"/>
<path d="M284.818 168.997C284.955 168.997 284.955 169.821 285.23 171.058C285.505 172.433 286.054 174.22 287.153 176.556C288.115 178.755 289.626 181.366 290.45 184.665C290.862 186.314 291.137 188.101 291 190.025C290.862 191.949 290.176 193.874 288.939 195.523C287.565 197.172 285.78 197.997 284.268 198.821C282.757 199.646 281.246 200.471 280.01 201.433C277.674 203.494 276.85 206.381 276.85 208.717C276.713 211.054 277.4 212.978 278.086 214.077C278.773 215.314 279.185 215.864 279.185 215.864C279.185 215.864 278.499 215.452 277.674 214.352C276.85 213.253 275.888 211.191 275.888 208.58C275.888 206.106 276.575 202.807 279.185 200.333C281.796 197.997 285.505 197.035 287.84 194.423C288.939 193.049 289.489 191.4 289.626 189.75C289.763 188.101 289.489 186.452 289.214 184.94C288.527 181.916 287.153 179.305 286.192 176.831C285.367 174.494 284.818 172.433 284.681 171.058C284.543 169.821 284.681 168.997 284.818 168.997Z" fill="#2E266F"/>
<path d="M307.071 268.778H147.026V294.067H307.071V268.778Z" fill="#FFB23C"/>
<path d="M307.622 262.319H146.341V269.191H307.622V262.319Z" fill="#2E266F"/>
<path d="M307.209 288.845H146.89V484.697H307.209V288.845Z" fill="#FFBF48"/>
<path d="M307.209 484.697H146.89V506H307.209V484.697Z" fill="#5F462E"/>
<path d="M280.559 457.896H176.015C170.383 457.896 165.712 453.361 165.712 447.588V341.484C165.712 335.849 170.245 331.176 176.015 331.176H280.559C286.192 331.176 290.863 335.712 290.863 341.484V447.588C290.863 453.223 286.329 457.896 280.559 457.896Z" fill="#5F462E"/>
<path d="M178.762 316.47C183.239 316.47 186.868 312.839 186.868 308.361C186.868 303.883 183.239 300.252 178.762 300.252C174.286 300.252 170.657 303.883 170.657 308.361C170.657 312.839 174.286 316.47 178.762 316.47Z" fill="white"/>
<path d="M184.121 302.726L178.763 308.361" stroke="#2E266F" stroke-miterlimit="10" stroke-linecap="round"/>
<path d="M216.542 314.271C213.245 317.295 208.162 317.157 205.003 313.996C201.843 310.835 202.118 305.612 205.277 302.451C208.437 299.29 213.657 299.565 216.817 302.726C219.977 306.025 219.839 311.247 216.542 314.271Z" fill="white"/>
<path d="M218.738 308.361H210.908" stroke="#2E266F" stroke-miterlimit="10" stroke-linecap="round"/>
<path d="M251.298 308.636C251.16 313.171 247.451 316.607 242.918 316.607C238.384 316.47 234.95 312.759 234.95 308.224C235.087 303.688 238.796 300.252 243.33 300.252C247.863 300.389 251.435 304.1 251.298 308.636Z" fill="white"/>
<path d="M248.55 302.863L243.192 308.361" stroke="#2E266F" stroke-miterlimit="10" stroke-linecap="round"/>
<path d="M280.588 314.522C283.985 311.606 284.377 306.487 281.462 303.088C278.548 299.689 273.431 299.297 270.033 302.213C266.636 305.129 266.244 310.248 269.159 313.647C272.073 317.046 277.19 317.438 280.588 314.522Z" fill="white"/>
<path d="M280.557 314.133L275.337 308.361" stroke="#2E266F" stroke-miterlimit="10" stroke-linecap="round"/>
<path d="M44.2721 505.863H322.323" stroke="#2E266F" stroke-miterlimit="10"/>
<g filter="url(#filter0_d_8_159)">
<rect x="303.316" y="84.7239" width="128.889" height="128.889" rx="64.4447" fill="#7E5CEB"/>
<path d="M390.949 154.373C390.24 154.373 389.664 153.797 389.664 153.088C389.664 140.259 379.995 129.821 368.11 129.821C356.225 129.821 346.556 140.259 346.556 153.088C346.556 153.797 345.982 154.373 345.272 154.373C344.562 154.373 343.987 153.797 343.987 153.088C343.987 138.842 354.809 127.252 368.11 127.252C381.412 127.252 392.234 138.842 392.234 153.088C392.234 153.797 391.659 154.373 390.949 154.373Z" fill="white"/>
<path d="M372.396 129.535C371.687 129.535 371.112 128.96 371.112 128.251C371.112 126.595 369.77 125.253 368.114 125.253C366.459 125.253 365.117 126.595 365.117 128.251C365.117 128.96 364.542 129.535 363.832 129.535C363.123 129.535 362.547 128.96 362.547 128.251C362.547 125.176 365.04 122.684 368.114 122.684C371.189 122.684 373.681 125.176 373.681 128.251C373.681 128.96 373.106 129.535 372.396 129.535Z" fill="white"/>
<path d="M353.218 148.883C352.855 148.884 352.508 148.73 352.264 148.46C352.02 148.19 351.901 147.83 351.938 147.468C352.379 143.148 354.825 139.39 358.48 137.417C358.885 137.196 359.376 137.209 359.768 137.45C360.16 137.691 360.394 138.123 360.38 138.583C360.366 139.043 360.107 139.46 359.701 139.677C356.795 141.246 354.849 144.256 354.495 147.728C354.428 148.383 353.877 148.882 353.218 148.883Z" fill="white"/>
<path fill-rule="evenodd" clipRule="evenodd" d="M349.057 158.839V180.017C349.057 180.727 349.632 181.302 350.342 181.302C351.051 181.302 351.626 180.727 351.626 180.017V158.839C351.64 157.659 352.6 156.71 353.779 156.71C354.959 156.71 355.919 157.659 355.933 158.839V167.325C355.933 169.475 357.008 171.069 358.962 171.814C361.096 172.614 363.499 172.156 365.188 170.626L365.329 170.501L381.633 157.27C381.667 157.244 381.699 157.215 381.729 157.184C383.009 155.919 384.873 155.445 386.602 155.947L387.649 156.249C387.676 156.253 387.697 156.274 387.703 156.301C387.712 156.322 387.705 156.348 387.687 156.362C387.665 156.385 387.644 156.409 387.625 156.433L369.374 179.013C368.928 179.564 369.014 180.373 369.566 180.819C370.118 181.265 370.927 181.18 371.373 180.628L389.597 158.081C390.093 157.53 390.334 156.796 390.262 156.059C390.19 155.322 389.81 154.649 389.217 154.205H396.806C397.516 154.205 398.09 153.63 398.09 152.921C398.09 152.211 397.516 151.636 396.806 151.636H339.424C338.714 151.636 338.139 152.211 338.139 152.921C338.139 153.63 338.714 154.205 339.424 154.205H353.022C350.744 154.571 349.065 156.532 349.057 158.839ZM354.534 154.205H366.633C366.309 154.464 365.998 154.74 365.704 155.033L358.499 161.539V158.838C358.49 156.531 356.812 154.57 354.534 154.205ZM363.683 168.524L379.963 155.314C380.402 154.886 380.892 154.513 381.422 154.205H381.06C380.924 154.253 380.78 154.278 380.636 154.278C377.963 154.273 375.392 155.301 373.458 157.146L373.43 157.171L362.244 167.209C361.714 167.671 360.912 167.622 360.443 167.099C359.973 166.576 360.012 165.773 360.528 165.297L371.702 155.271C372 154.989 372.309 154.722 372.628 154.471C372.613 154.433 372.599 154.393 372.587 154.354C370.661 154.61 368.873 155.494 367.5 156.869C367.484 156.886 367.467 156.902 367.45 156.917L358.498 165.001V167.325C358.498 168.422 358.908 169.045 359.873 169.413C361.113 169.859 362.498 169.587 363.477 168.705L363.64 168.56L363.683 168.524Z" fill="white"/>
<path d="M377.395 119.234V123.944C377.395 124.654 377.971 125.229 378.68 125.229C379.39 125.229 379.965 124.654 379.965 123.944V119.234C379.965 118.525 379.39 117.949 378.68 117.949C377.971 117.949 377.395 118.525 377.395 119.234Z" fill="white"/>
<path d="M354.836 118.948V125.229C354.836 125.938 355.411 126.513 356.121 126.513C356.83 126.513 357.405 125.938 357.405 125.229V118.948C357.405 118.239 356.83 117.663 356.121 117.663C355.411 117.663 354.836 118.239 354.836 118.948Z" fill="white"/>
<path d="M346.988 123.944V131.367C346.988 132.076 347.564 132.651 348.273 132.651C348.983 132.651 349.558 132.076 349.558 131.367V123.944C349.558 123.235 348.983 122.659 348.273 122.659C347.564 122.659 346.988 123.235 346.988 123.944Z" fill="white"/>
<path d="M385.243 123.373V130.367C385.243 131.077 385.818 131.652 386.528 131.652C387.237 131.652 387.812 131.077 387.812 130.367V123.373C387.812 122.664 387.237 122.088 386.528 122.088C385.818 122.088 385.243 122.664 385.243 123.373Z" fill="white"/>
</g>
<g filter="url(#filter1_d_8_159)">
<rect x="227.039" y="20.3918" width="80.993" height="80.993" rx="40.4965" fill="#FF922C"/>
<path fill-rule="evenodd" clipRule="evenodd" d="M261.664 45.629V50.3242H264.012V45.629H261.664ZM266.36 46.8029V50.3243H268.708V46.8029H266.36ZM254.624 52.7818L254.477 51.498H277.073L276.926 52.7818L276.449 57.367H278.1C280.03 57.367 281.622 58.9581 281.622 60.8885V64.4099C281.622 66.3403 280.03 67.9313 278.1 67.9313H275.349L274.799 72.9934C274.611 74.777 273.07 76.148 271.277 76.148H260.273C258.48 76.148 256.939 74.777 256.751 72.9934L254.624 52.7818ZM257.119 53.8457H274.433L272.452 72.7367C272.388 73.3466 271.888 73.8005 271.278 73.8005H260.274C259.664 73.8005 259.164 73.3466 259.1 72.7367L257.119 53.8457ZM278.103 59.7147H276.195L275.572 65.5838H278.103C278.768 65.5838 279.277 65.0748 279.277 64.41V60.8885C279.277 60.2237 278.768 59.7147 278.103 59.7147Z" fill="white"/>
</g>
<defs>
<filter id="filter0_d_8_159" x="273.316" y="64.7239" width="208.889" height="208.889" filterUnits="userSpaceOnUse" color-interpolation-filters="sRGB">
<feFlood flood-opacity="0" result="BackgroundImageFix"/>
<feColorMatrix in="SourceAlpha" type="matrix" values="0 0 0 0 0 0 0 0 0 0 0 0 0 0 0 0 0 0 127 0" result="hardAlpha"/>
<feOffset dx="10" dy="20"/>
<feGaussianBlur stdDeviation="20"/>
<feColorMatrix type="matrix" values="0 0 0 0 0.301961 0 0 0 0 0.164706 0 0 0 0 0 0 0 0 0.2 0"/>
<feBlend mode="normal" in2="BackgroundImageFix" result="effect1_dropShadow_8_159"/>
<feBlend mode="normal" in="SourceGraphic" in2="effect1_dropShadow_8_159" result="shape"/>
</filter>
<filter id="filter1_d_8_159" x="197.039" y="0.391846" width="160.993" height="160.993" filterUnits="userSpaceOnUse" color-interpolation-filters="sRGB">
<feFlood flood-opacity="0" result="BackgroundImageFix"/>
<feColorMatrix in="SourceAlpha" type="matrix" values="0 0 0 0 0 0 0 0 0 0 0 0 0 0 0 0 0 0 127 0" result="hardAlpha"/>
<feOffset dx="10" dy="20"/>
<feGaussianBlur stdDeviation="20"/>
<feColorMatrix type="matrix" values="0 0 0 0 0.301961 0 0 0 0 0.164706 0 0 0 0 0 0 0 0 0.2 0"/>
<feBlend mode="normal" in2="BackgroundImageFix" result="effect1_dropShadow_8_159"/>
<feBlend mode="normal" in="SourceGraphic" in2="effect1_dropShadow_8_159" result="shape"/>
</filter>
</defs>
</svg>
