<svg width="22" height="22" viewBox="0 0 22 22" fill="none" xmlns="http://www.w3.org/2000/svg">
<path d="M0.648828 13.7256C1.48715 16.1581 3.08859 18.1545 5.15625 19.2025V20.7788C5.15625 21.2114 5.445 21.5625 5.80078 21.5625H16.1992C16.555 21.5625 16.8438 21.2114 16.8438 20.7788V19.2025C18.9114 18.1545 20.5129 16.1581 21.3512 13.7256H0.648828ZM21.3555 9.02344H0.644531C0.28875 9.02344 0 9.37453 0 9.80713C0 10.6107 0.0782031 11.3985 0.227734 12.1582H21.7723C21.9218 11.3985 22 10.6107 22 9.80713C22 9.37453 21.7113 9.02344 21.3555 9.02344Z" fill="#2E266F"/>
<path d="M6.68252 6.25653C6.43081 6.00482 6.43081 5.59674 6.68252 5.34503C7.14306 4.88445 7.1431 4.13903 6.68252 3.6784C5.72041 2.71629 5.72041 1.1509 6.68252 0.188783C6.93419 -0.0629277 7.34231 -0.0629277 7.59402 0.188783C7.84573 0.440494 7.84573 0.848568 7.59402 1.10028C7.13348 1.56086 7.13344 2.30628 7.59402 2.76691C8.55613 3.72902 8.55613 5.29442 7.59402 6.25653C7.34235 6.5082 6.93419 6.50824 6.68252 6.25653Z" fill="#2E266F"/>
<path d="M10.536 6.25726C10.2843 6.00555 10.2843 5.59748 10.536 5.34577C10.9966 4.88518 10.9966 4.13976 10.536 3.67914C9.57392 2.71702 9.57392 1.15163 10.536 0.189516C10.7877 -0.0621953 11.1958 -0.0621953 11.4475 0.189516C11.6992 0.441227 11.6992 0.849301 11.4475 1.10101C10.987 1.56159 10.987 2.30702 11.4475 2.76764C12.4096 3.72975 12.4096 5.29515 11.4475 6.25726C11.1959 6.50893 10.7877 6.50897 10.536 6.25726Z" fill="#2E266F"/>
<path d="M14.4169 6.25726C14.1652 6.00555 14.1652 5.59748 14.4169 5.34577C14.8774 4.88523 14.8775 4.13976 14.4169 3.67914C13.4548 2.71702 13.4548 1.15163 14.4169 0.189516C14.6686 -0.0621953 15.0767 -0.0621953 15.3284 0.189516C15.5801 0.441227 15.5801 0.849301 15.3284 1.10101C14.8679 1.56155 14.8678 2.30702 15.3284 2.76764C16.2905 3.72975 16.2905 5.29515 15.3284 6.25726C15.0767 6.50893 14.6686 6.50897 14.4169 6.25726Z" fill="#2E266F"/>
</svg>
