<svg width="22" height="21" viewBox="0 0 22 21" fill="none" xmlns="http://www.w3.org/2000/svg">
<path d="M20.9482 15.389C20.818 15.2222 20.6182 15.125 20.4064 15.125H1.61473C1.40298 15.125 1.20315 15.2222 1.07298 15.389C0.942817 15.5568 0.896984 15.774 0.948317 15.9793L1.86498 19.646C1.94107 19.9522 2.21607 20.1667 2.5314 20.1667H19.4897C19.8051 20.1667 20.0801 19.9522 20.1571 19.646L21.0737 15.9793C21.1251 15.774 21.0783 15.5568 20.9482 15.389Z" fill="#2E266F"/>
<path d="M11.0046 5.95732C10.4986 5.95732 10.0879 5.54757 10.0879 5.04065V3.20732C10.0879 2.7004 10.4986 2.29065 11.0046 2.29065C11.5106 2.29065 11.9212 2.7004 11.9212 3.20732V5.04065C11.9212 5.54757 11.5106 5.95732 11.0046 5.95732Z" fill="#2E266F"/>
<path d="M10.9974 3.66667C12.0099 3.66667 12.8307 2.84586 12.8307 1.83333C12.8307 0.820811 12.0099 0 10.9974 0C9.98487 0 9.16406 0.820811 9.16406 1.83333C9.16406 2.84586 9.98487 3.66667 10.9974 3.66667Z" fill="#2E266F"/>
<path d="M11.0587 4.58455C6.01703 4.52955 1.64453 8.50788 0.957031 13.522H20.922C20.2437 8.59955 16.027 4.63955 11.0587 4.58455ZM17.1545 12.8987C16.7787 12.8987 16.467 12.587 16.4762 12.2112C16.4945 10.057 14.7712 8.28788 12.617 8.26955C12.2412 8.26038 11.9387 7.95788 11.9387 7.57288C11.9479 7.19705 12.2595 6.88538 12.6354 6.89455C15.5412 6.92205 17.8787 9.31455 17.8512 12.2204C17.842 12.6054 17.5304 12.9079 17.1545 12.8987Z" fill="#2E266F"/>
<path d="M21.0833 14.8959H0.916667C0.410667 14.8959 0 15.3056 0 15.8125C0 16.3195 0.410667 16.7292 0.916667 16.7292H21.0833C21.5893 16.7292 22 16.3195 22 15.8125C22 15.3056 21.5893 14.8959 21.0833 14.8959Z" fill="#2E266F"/>
</svg>
