<svg width="54" height="54" viewBox="0 0 54 54" fill="none" xmlns="http://www.w3.org/2000/svg">
<g id="24x24/On Light/Messages">
<path id="Shape" fill-rule="evenodd" clip-rule="evenodd" d="M3.1621 46.1818C2.32733 47.2673 3.06483 48.8426 4.43308 48.8968C10.0947 49.1207 14.4128 48.427 17.4021 46.7317C20.3633 48.1748 23.6279 48.9375 26.9998 48.9375C39.1155 48.9375 48.9373 39.1157 48.9373 27C48.9373 14.8843 39.1155 5.0625 26.9998 5.0625C14.884 5.0625 5.06227 14.8843 5.06227 27C5.06227 30.7839 6.02308 34.4306 7.82269 37.6609C7.18864 40.1073 5.64195 42.9573 3.1621 46.1818ZM18.1275 43.3092C17.5643 43.0021 16.8757 43.0409 16.3506 43.4093C14.5413 44.6785 11.6762 45.4079 7.76514 45.5405C9.61135 42.7284 10.7835 40.1294 11.2702 37.7273C11.3537 37.3148 11.2802 36.886 11.0639 36.525C9.35356 33.6702 8.43734 30.4043 8.43734 27C8.43734 16.7482 16.7481 8.4375 26.9998 8.4375C37.2516 8.4375 45.5623 16.7482 45.5623 27C45.5623 37.2518 37.2516 45.5625 26.9998 45.5625C23.8546 45.5625 20.8262 44.7807 18.1275 43.3092ZM18 33.1875H33.75C34.682 33.1875 35.4375 32.432 35.4375 31.5C35.4375 30.568 34.682 29.8125 33.75 29.8125H18C17.068 29.8125 16.3125 30.568 16.3125 31.5C16.3125 32.432 17.068 33.1875 18 33.1875ZM29.25 24.1875H18C17.068 24.1875 16.3125 23.432 16.3125 22.5C16.3125 21.568 17.068 20.8125 18 20.8125H29.25C30.182 20.8125 30.9375 21.568 30.9375 22.5C30.9375 23.432 30.182 24.1875 29.25 24.1875Z" fill="#2E266F"/>
</g>
</svg>
