<svg width="36" height="36" viewBox="0 0 36 36" fill="none" xmlns="http://www.w3.org/2000/svg">
<rect width="36" height="36" rx="10" fill="#7E5CEB"/>
<path fill-rule="evenodd" clip-rule="evenodd" d="M20.3558 8.00793C20.1328 7.97595 19.9087 8.04191 19.7304 8.18381C19.5472 8.32771 19.4326 8.53557 19.4077 8.76841C19.355 9.23908 19.6946 9.66479 20.1646 9.71776C23.4063 10.0795 25.9259 12.6048 26.2904 15.8565C26.3392 16.2922 26.7047 16.621 27.1409 16.621C27.1738 16.621 27.2057 16.619 27.2385 16.615C27.4666 16.59 27.6697 16.4771 27.8132 16.2972C27.9556 16.1174 28.0203 15.8935 27.9944 15.6647C27.5403 11.6075 24.4002 8.45862 20.3558 8.00793ZM20.4181 11.4899C19.942 11.402 19.5048 11.7058 19.4142 12.1705C19.3236 12.6352 19.6283 13.0888 20.0914 13.1798C21.4857 13.4516 22.5623 14.5309 22.8351 15.9299V15.9309C22.9128 16.3336 23.2674 16.6264 23.6757 16.6264C23.7305 16.6264 23.7852 16.6214 23.841 16.6114C24.3041 16.5185 24.6088 16.0658 24.5182 15.6001C24.1109 13.5106 22.5025 11.8967 20.4181 11.4899ZM22.0001 21.0905C22.4515 20.8302 22.9615 20.5362 23.6047 20.673C24.1873 20.7959 26.1731 22.4078 26.7169 22.9665C27.0734 23.3322 27.2716 23.7099 27.3025 24.0877C27.3562 25.5697 25.3425 27.2615 24.976 27.4724C24.489 27.8231 23.9224 28 23.286 28C22.6357 28 21.9106 27.8151 21.1199 27.4464C16.8296 25.6556 10.2755 19.231 8.54266 14.9739C7.82362 13.389 7.81864 12.0819 8.53071 11.0996C8.81454 10.6389 10.4329 8.71325 11.8819 8.7742C12.2673 8.80718 12.6418 9.00505 13.0093 9.3648C13.565 9.90942 15.1365 11.9011 15.258 12.4857C15.3925 13.1352 15.0977 13.6519 14.8358 14.1055C14.7799 14.2031 14.7046 14.3188 14.6222 14.4456C14.3092 14.9268 13.8926 15.5674 14.04 15.9763C15.0967 18.5705 17.5376 20.8339 20.133 21.8972C20.5343 22.0431 21.1745 21.6235 21.6542 21.3092C21.7791 21.2273 21.8932 21.1525 21.9893 21.0967L22.0001 21.0905Z" fill="white"/>
</svg>
