<svg width="36" height="36" viewBox="0 0 36 36" fill="none" xmlns="http://www.w3.org/2000/svg">
<rect width="36" height="36" rx="10" fill="#7E5CEB"/>
<path fill-rule="evenodd" clip-rule="evenodd" d="M13.81 8H22.191C25.28 8 27 9.78 27 12.83V23.16C27 26.26 25.28 28 22.191 28H13.81C10.77 28 9 26.26 9 23.16V12.83C9 9.78 10.77 8 13.81 8ZM14.08 12.66V12.65H17.069C17.5 12.65 17.85 13 17.85 13.429C17.85 13.87 17.5 14.22 17.069 14.22H14.08C13.649 14.22 13.3 13.87 13.3 13.44C13.3 13.01 13.649 12.66 14.08 12.66ZM14.08 18.74H21.92C22.35 18.74 22.7 18.39 22.7 17.96C22.7 17.53 22.35 17.179 21.92 17.179H14.08C13.649 17.179 13.3 17.53 13.3 17.96C13.3 18.39 13.649 18.74 14.08 18.74ZM14.08 23.31H21.92C22.319 23.27 22.62 22.929 22.62 22.53C22.62 22.12 22.319 21.78 21.92 21.74H14.08C13.78 21.71 13.49 21.85 13.33 22.11C13.17 22.36 13.17 22.69 13.33 22.95C13.49 23.2 13.78 23.35 14.08 23.31Z" fill="white"/>
</svg>
