<svg width="36" height="36" viewBox="0 0 36 36" fill="none" xmlns="http://www.w3.org/2000/svg">
<rect width="36" height="36" rx="10" fill="#7E5CEB"/>
<path fill-rule="evenodd" clip-rule="evenodd" d="M22.9303 13C22.9621 12.9291 22.977 12.8519 22.9739 12.7743H23C22.8882 10.1059 20.6849 8 18.0049 8C15.325 8 13.1217 10.1059 13.0099 12.7743C12.9967 12.849 12.9967 12.9253 13.0099 13H12.9317C11.6502 13 10.2803 13.846 9.88264 16.1201L9.1049 22.3147C8.46858 26.8629 10.8106 28 13.8685 28H22.1585C25.2075 28 27.4789 26.3535 26.9133 22.3147L26.1444 16.1201C25.676 13.9096 24.3503 13 23.0865 13H22.9303ZM21.4932 13C21.4654 12.9279 21.4506 12.8515 21.4497 12.7743C21.4497 10.8568 19.8899 9.30238 17.9657 9.30238C16.0416 9.30238 14.4818 10.8568 14.4818 12.7743C14.495 12.849 14.495 12.9253 14.4818 13H21.4932ZM15.097 18.1486C14.6089 18.1486 14.2132 17.7413 14.2132 17.2389C14.2132 16.7366 14.6089 16.3293 15.097 16.3293C15.5851 16.3293 15.9808 16.7366 15.9808 17.2389C15.9808 17.7413 15.5851 18.1486 15.097 18.1486ZM20.002 17.2389C20.002 17.7413 20.3977 18.1486 20.8858 18.1486C21.3739 18.1486 21.7696 17.7413 21.7696 17.2389C21.7696 16.7366 21.3739 16.3293 20.8858 16.3293C20.3977 16.3293 20.002 16.7366 20.002 17.2389Z" fill="white"/>
</svg>
