<svg width="54" height="54" viewBox="0 0 54 54" fill="none" xmlns="http://www.w3.org/2000/svg">
<g id="24x24/On Light/Messages-Alert">
<path id="Shape" fill-rule="evenodd" clip-rule="evenodd" d="M31.3395 5.49168C29.9366 5.21019 28.4855 5.0625 26.9998 5.0625C14.884 5.0625 5.06227 14.8843 5.06227 27C5.06227 30.7839 6.02308 34.4306 7.82269 37.6609C7.18864 40.1073 5.64195 42.9573 3.1621 46.1818C2.32733 47.2673 3.06483 48.8426 4.43308 48.8968C10.0947 49.1207 14.4128 48.427 17.4021 46.7317C20.3633 48.1748 23.6279 48.9375 26.9998 48.9375C39.1155 48.9375 48.9373 39.1157 48.9373 27C48.9373 25.5144 48.7896 24.0634 48.5082 22.6607C47.5428 23.308 46.4812 23.823 45.3495 24.1797C45.4896 25.0994 45.5623 26.0412 45.5623 27C45.5623 37.2518 37.2516 45.5625 26.9998 45.5625C23.8546 45.5625 20.8262 44.7807 18.1275 43.3092C17.5643 43.0021 16.8757 43.0409 16.3506 43.4093C14.5413 44.6785 11.6762 45.4079 7.76514 45.5405C9.61135 42.7284 10.7835 40.1294 11.2702 37.7273C11.3537 37.3148 11.2802 36.886 11.0639 36.525C9.35356 33.6702 8.43734 30.4043 8.43734 27C8.43734 16.7482 16.7481 8.4375 26.9998 8.4375C27.9587 8.4375 28.9006 8.51021 29.8203 8.65041C30.1771 7.51863 30.6921 6.45707 31.3395 5.49168ZM35.9163 6.95034C35.1336 7.77381 34.5272 8.76645 34.1575 9.86777C38.6533 11.7483 42.2517 15.3467 44.1321 19.8425C45.2335 19.4729 46.2261 18.8665 47.0496 18.0838C44.8459 13.1358 40.8643 9.15413 35.9163 6.95034ZM33.75 33.1875H18C17.068 33.1875 16.3125 32.432 16.3125 31.5C16.3125 30.568 17.068 29.8125 18 29.8125H33.75C34.682 29.8125 35.4375 30.568 35.4375 31.5C35.4375 32.432 34.682 33.1875 33.75 33.1875ZM18 24.1875H29.25C30.182 24.1875 30.9375 23.432 30.9375 22.5C30.9375 21.568 30.182 20.8125 29.25 20.8125H18C17.068 20.8125 16.3125 21.568 16.3125 22.5C16.3125 23.432 17.068 24.1875 18 24.1875Z" fill="white"/>
<path id="Shape_2" d="M41.625 20.25C37.2758 20.25 33.75 16.7242 33.75 12.375C33.75 8.02576 37.2758 4.5 41.625 4.5C45.9742 4.5 49.5 8.02576 49.5 12.375C49.5 16.7242 45.9742 20.25 41.625 20.25Z" fill="#6FCF97"/>
</g>
</svg>
