<svg width="72" height="72" viewBox="0 0 72 72" fill="none" xmlns="http://www.w3.org/2000/svg">
<path fill-rule="evenodd" clip-rule="evenodd" d="M72 36C72 55.8822 55.8822 72 36 72C16.1178 72 0 55.8822 0 36C0 16.1178 16.1178 0 36 0C55.8822 0 72 16.1178 72 36ZM36.168 41.1162C42.8032 31.733 43.096 26.0462 36.168 15.9996C29.1076 26.2606 30.0178 31.6994 36.168 41.1162ZM33.0165 53.3395C34.0711 41.8957 31.4815 36.8245 20.4583 31.5879C19.4743 44.0043 22.9819 48.2595 33.0165 53.3395ZM39.3591 53.3395C38.3045 41.8957 40.8943 36.8245 51.9175 31.5879C52.9013 44.0043 49.3939 48.2595 39.3591 53.3395Z" fill="#7E5CEB"/>
</svg>
